<svg xmlns="http://www.w3.org/2000/svg" data-name="Layer 1" viewBox="0 0 1000 700"><ellipse cx="388.91" cy="347.8" fill="#b6efd7" class="coloreaefb6 svgShape" rx="256.4" ry="261.39"/><circle cx="654.79" cy="388.54" r="233.42" fill="#b6efd7" class="coloreaefb6 svgShape"/><path fill="#6dc6a1" d="M317.22 364.36a76.91 76.91 0 0 1-15.78 60.3 40.73 40.73 0 0 1-6.83 6.87 27.12 27.12 0 0 1-11.18 5c-4.2.83-9.15.38-11.89-2.92a13.87 13.87 0 0 1-2.28-4.66 63.37 63.37 0 0 1-2.94-24.19 14 14 0 0 1 1.45-5.95c1.47-2.56 4.24-4.06 6.17-6.3 5-5.76 3.3-14.43 3.86-22 .62-8.47 4.87-17 12.26-21.18s17.91-3 23 3.83c2.44 3.17 3.49 7.22 4.16 11.2ZM370.41 451.58c-.88 11.4-5.2 22.23-9.5 32.83-4 9.88-8.12 19.89-14.65 28.32s-15.89 15.27-26.49 16.32c-5.56.57-11.16-.44-16.6-1.72a6.94 6.94 0 0 1-2.52-1c-1.29-.94-1.77-2.62-2.08-4.19-4-20.17 8.39-42.35 27.7-49.45a14.21 14.21 0 0 0 3.78-1.77c2.49-1.89 3.12-5.29 3.83-8.33 2.64-11.22 9.71-22.25 20.67-25.83 3.79-1.24 8.24-1.43 11.47.9 4.12 3.01 4.78 8.85 4.39 13.92ZM325.41 632.37a46.56 46.56 0 0 0-16.33-.83 16.2 16.2 0 0 1-3.34-1.44c-5.56-3.25-8.54-9.76-9.2-16.16-1.62-15.69 10.54-31.56 26.11-34.09 2.72-.44 5.71-.61 7.76-2.46 1.73-1.55 2.37-3.94 3.34-6.06 2.08-4.57 5.87-8.09 9.57-11.49 5.86-5.39 12.78-11.16 20.71-10.37 7.14.71 12.85 7 14.76 13.89s.66 14.35-1.47 21.21c-4.11 13.27-11.61 25.62-22.24 34.56a58.45 58.45 0 0 1-29.67 13.24Z" class="colorb5c66d svgShape"/><path fill="#6dc6a1" d="M175.56 317.17c6.23 15.1 19.58 24.77 33.72 35a216 216 0 0 1 19.1 14.95c10.73 9.8 19 21.64 25.69 31.92a416.6 416.6 0 0 1 66.85 232.57c-.65-.08-1.27-.2-1.94-.26-.86-.07-1.67-.06-2.51-.09a412.06 412.06 0 0 0-66.15-229.78c-6.53-10.05-14.6-21.6-24.95-31.06a211.57 211.57 0 0 0-18.7-14.63c-14-10.15-28.53-20.65-35.24-36.92Z" class="colorb5c66d svgShape"/><path fill="#6dc6a1" d="M246.17 510.35c-9.27.08-17.43-5.61-25.56-10.09s-18.33-7.86-26.38-3.27c-7.43 4.24-10.11 14.21-8 22.51s7.92 15.14 14.26 20.88c28.46 25.79 71.11 34.81 107.57 22.73 8.31-2.75 17.28-7.7 19-16.28 1-5-.75-10-2.82-14.61-4.26-9.48-10.25-18.41-18.58-24.64s-19.2-9.51-29.36-7.29c-10.44 2.27-19.49 9.97-30.13 10.06ZM206.62 573.16c4.42-4.87 11.51-6.35 18.08-6.18a47.77 47.77 0 0 1 31.86 13.48c7.14 7 12.78 16.74 22.48 19.2 2.81.71 5.76.73 8.56 1.47 4 1.06 7.47 3.53 10.84 6 9.14 6.58 18.9 14.17 22.51 24.52-.66-.08-1.29-.2-2-.26-13.27-1.11-23.7 3.1-31.12 10.13a32.77 32.77 0 0 1-3-2c-7.77-5.81-14.37-13.88-23.72-16.48-5.79-1.6-11.94-.87-17.93-1.29A47.36 47.36 0 0 1 208 601.48c-5.8-8.48-8.25-20.77-1.38-28.32ZM215.4 407c4.58 3 10.19 5.74 15.33 3.85 2.61-1 4.7-3 7.29-4 3.34-1.32 7.12-.8 10.56.23a38.7 38.7 0 0 1 25.75 26.54c-9.93 3.69-17.2 12.41-26.77 17-11.45 5.45-24.9 4.34-37.34 1.85-9.79-2-19.63-4.79-27.85-10.45s-14.71-14.57-15.4-24.53 5.51-20.58 15.19-23.05c11.84-3.16 23 5.8 33.24 12.56ZM154.19 337.71a16.81 16.81 0 0 0-18.82 25.47c3.51 5.23 9.74 8.09 16 9.07s12.57.3 18.85-.13a248.07 248.07 0 0 1 52.38 2c1.61.24 3.36.46 4.77-.33a6.47 6.47 0 0 0 2.13-2.28 23.41 23.41 0 0 0-30.87-33.13c-2.39 1.27-4.53 3-6.88 4.3a28.47 28.47 0 0 1-26 .95c-3.96-1.9-7.44-4.63-11.56-5.92ZM177.54 260.58c5.58-.56 10.61 4.07 12.44 9.37s1.21 11.09.57 16.65q-1.25 10.75-2.48 21.51c-.46 4.06-1 8.28-3.25 11.69-4.25 6.4-13.66 7.72-20.72 4.67s-12.11-9.43-16-16c-4.09-6.84-6.57-17.2.12-21.52 2.14-1.38 4.78-1.72 7.08-2.83 10.02-4.86 11.13-22.42 22.24-23.54Z" class="colorb5c66d svgShape"/><path fill="#4d9b7a" d="M206.09 644.71a2.55 2.55 0 0 0 2-2.94c-10.21-58.39-83.57-120.28-86.68-122.89a2.56 2.56 0 0 0-3.28 3.92c.75.63 75.05 63.3 84.93 119.85a2.55 2.55 0 0 0 3 2.07Z" class="color899b4d svgShape"/><path fill="#4d9b7a" d="M161.3 600.09c-3.67 1.6-7.1 3.84-11 4.83s-8.57.37-11-2.83c-3.21-4.28-.6-10.7 3.58-14 5.38-4.29 12.76-5.4 19.58-4.51s13.26 3.6 19.61 6.28a36.07 36.07 0 0 1 .28-27.42c2.4-5.6 8-11.18 13.79-9.21 4 1.37 6.14 6.1 5.76 10.34s-2.71 8-5.22 11.48-5.31 6.76-6.88 10.71a20 20 0 0 0 .05 14.72 35.26 35.26 0 0 0-28.55-.39Z" class="color899b4d svgShape"/><path fill="#4d9b7a" d="M174.75 541.67a45.11 45.11 0 0 0-4.29 31.71 76.1 76.1 0 0 0-31.87 3c-3.11 1-6.22 2.18-9.47 2.23s-6.78-1.31-8.23-4.23c-1.6-3.21-.11-7.31 2.61-9.67s6.34-3.33 9.88-4c9.33-1.68 19.28-1.44 27.87 2.58a49.46 49.46 0 0 1-2.78-22.06c.53-5.22 2.19-10.78 6.47-13.83s11.61-1.81 13.05 3.23c1.08 3.85-1.35 7.6-3.24 11.04Z" class="color899b4d svgShape"/><path fill="#4d9b7a" d="M146.8 546.67a24.72 24.72 0 0 1 1-16.76c1.51-3.5 3.81-6.6 5.37-10.07s2.34-7.61.65-11a9.51 9.51 0 0 0-8.44-5.06 11.43 11.43 0 0 0-8.9 4.58c-2.85 3.74-3.39 8.78-3 13.46s1.72 9.26 2.12 14c-6.68-4.45-15.37-4.31-23.31-3.14-5.61.83-11.72 2.45-14.87 7.17a7.87 7.87 0 0 0-1.42 4.03c-.13 4.69 5.28 7.85 10 7.55s8.88-2.86 13.25-4.57a38.78 38.78 0 0 1 27.55-.19Z" class="color899b4d svgShape"/><path fill="#4d9b7a" d="M99.22 486.85c3.71-1.82 8.22.13 11.31 2.87 6 5.37 8.93 13.35 11.59 21l6.56 18.81c-7.14-2.5-13-7.68-18.61-12.74-4.68-4.22-9.44-8.52-12.62-14a16.4 16.4 0 0 1-2.57-8.54 8.54 8.54 0 0 1 4.34-7.4ZM118.66 630h748.6a8.31 8.31 0 0 1 8.29 8.29 8.31 8.31 0 0 1-8.29 8.29h-748.6a8.31 8.31 0 0 1-8.29-8.29 8.31 8.31 0 0 1 8.29-8.29Z" class="color899b4d svgShape"/><path fill="#92c6b0" d="M345.67 98.85h46.35v166.86h-46.35z" class="colorbcc692 svgShape" transform="rotate(131.88 368.84 182.263)"/><path fill="#92c6b0" d="m249.78 81.4 8.8 23.81a7.54 7.54 0 0 0 9.69 4.45l30.19-11.16a7.53 7.53 0 0 0 4.46-9.69L293.39 63a46.35 46.35 0 1 1-43.61 18.4Z" class="colorbcc692 svgShape"/><path fill="#4d9b7a" d="m259.02 223.78-20.91-13.54 2.66-7.03 24.63 3.7 6.29 8-2.65 7.03-10.02 1.84z" class="color899b4d svgShape"/><path fill="#4d9b7a" d="M313.75 182.05h7.21v108.3h-7.21z" class="color899b4d svgShape" transform="rotate(110.72 317.36 236.226)"/><path fill="#77f3bf" d="m365.82 268.52 9.25-24.46a4.07 4.07 0 0 0-2.36-5.23 4.07 4.07 0 0 0-5.23 2.36l-9.25 24.46a4.07 4.07 0 0 0 2.36 5.23 4.07 4.07 0 0 0 5.23-2.36Z" class="colorf37977 svgShape"/><path fill="#77f3bf" d="M363.3 263.71 370 246l5.86-.34a29.64 29.64 0 0 1 12.19 1.87l37.4 14.15-10.21 27-37.4-14.14a29.68 29.68 0 0 1-10.37-6.68Z" class="colorf37977 svgShape"/><path fill="#93f7cd" d="m573.59 280.68.13-44.33 12.4 1.75 1.17 40.16-13.7 2.42z" class="colorf7a093 svgShape"/><path fill="#33eea0" d="M573.55 277.81s-1.38 9.09-.13 16.43l40.67 2.35s3-7.65-6.12-10.14-20.5-10.16-20.5-10.16-8.62 6.58-13.92 1.52Z" class="coloree3533 svgShape"/><path fill="#fff" d="m573.41 294.24 40.67 2.35a8.61 8.61 0 0 0 .35-4.08L573 290.13a19.37 19.37 0 0 0 .41 4.11Z" class="colorffffff svgShape"/><path fill="none" stroke="#303030" stroke-linecap="round" stroke-linejoin="round" stroke-width=".8" d="M586.26 279.22a5.48 5.48 0 0 1 1.43-1.77 5.88 5.88 0 0 1 3.11-.9 24.81 24.81 0 0 1 2.86 0 6.24 6.24 0 0 1 3.53 1c.3.24.59.59.49 1a.92.92 0 0 1-.6.55 4.64 4.64 0 0 1-2.66 0q-3.18-.69-6.29-1.66a13.25 13.25 0 0 1 .2 3.5 7.12 7.12 0 0 1-.9 3.16 2.52 2.52 0 0 1-1 1 1.37 1.37 0 0 1-1.36 0 1.48 1.48 0 0 1-.61-1.21 3.83 3.83 0 0 1 .3-1.37 18.65 18.65 0 0 1 1.5-3.3ZM614.43 292.51l-41.25-2.39M573.31 281.49s10.24 0 11.2 9.22M612.17 288.62l-10.31-.37a24.73 24.73 0 0 0-12.2 2.71l-.17.08" class="colorStroke303030 svgStroke"/><path fill="none" stroke="#303030" stroke-linecap="round" stroke-linejoin="round" stroke-width=".8" d="m584.19 278.64 14.09 7.62 2.1-2.64" class="colorStroke303030 svgStroke"/><path fill="#93f7cd" d="M541.52 149.27s15.26 32.33 22.73 32c13.46-.6 38.88-39.33 38.88-39.33l-5.68-5.53-29 22.23-11.38-19.84Z" class="colorf7a093 svgShape"/><path fill="#77f3bf" d="m512.51 102.31 18.24 4.79s10.47 7.18 17.65 11.66 17.24 33.3 17.24 33.3l-20.83 12.16S538.53 149 537.33 149s-9.57 24.82-9.57 24.82l-52.39 13.82s1.55-77.82 7.53-80.51 29.61-4.82 29.61-4.82Z" class="colorf37977 svgShape"/><path fill="#4d9b7a" d="M531.65 189.94s-1.2-15.55 4.79-36.19l-43.39-17.4L470.64 187s-4.49 27.52-.6 35.29 34.39 45.16 34.39 45.16l-46.35 8.38v20.63s79.55-2.69 85.83-8.67 2.1-18.24-2.39-25.12-21.53-35-20.94-36.79 44.57-10.17 44.57-10.17l5.68 60.12h21.83s.6-81.65-6.28-87.33-54.73 1.44-54.73 1.44Z" class="color899b4d svgShape"/><path fill="none" stroke="#02995a" stroke-linecap="round" stroke-linejoin="round" stroke-width=".5" d="m497.77 143.7 32.93 11.86-7.46 23.38-21.52 5.93-12.51-14.27 8.56-26.9z" class="colorStroke026999 svgStroke"/><path fill="#93f7cd" d="M467.91 133.38s-21.15 47.39-11 49.18S511 181 511 181l.29-9.87-36.78-3 13.38-28.64Z" class="colorf7a093 svgShape"/><path fill="#77f3bf" d="M482.9 107.1c-6 2.52-9.87 8.69-12.86 16s-9.38 19.15-9.38 19.15 6.81 9.06 24.37 9.06l9.24-22.6Z" class="colorf37977 svgShape"/><path fill="none" stroke="#00c170" stroke-miterlimit="10" stroke-width=".9" d="M531.65 189.94s-19.24 12.76-61.91 5" class="colorStroke008fc1 svgStroke"/><path fill="none" stroke="#00c170" stroke-miterlimit="10" stroke-width=".9" d="M470.34 189.74s36.66 7.18 60.41-3.74M476.72 196.12s-2.39 17.55 4.59 27.32 33.89 44.26 33.49 48.45-55.8 8.17-55.8 8.17" class="colorStroke008fc1 svgStroke"/><path fill="none" stroke="#00c170" stroke-miterlimit="10" stroke-width=".9" d="M488.88 197.52s3.59 14.16-10 20.74M520.58 225.83s-5.78-24.52-10-29.31M517.19 195.33s6.39 15.35 6.78 20.53l-4 6.78M524.77 193.33s5.58 3.59 16.15-4.38" class="colorStroke008fc1 svgStroke"/><path fill="#93f7cd" d="m534.69 89.24-1.9 16a4.42 4.42 0 0 0 1.12 3.52l.84.93s-8.89 6.62-24.07-7.22l2-.43a4 4 0 0 0 3.09-3.24l3-17.91Z" class="colorf7a093 svgShape"/><path fill="#71f3bd" d="M533.21 101.9s-13.73-2.19-15.07-16.9l16.12 8.47Z" class="colorf37a71 svgShape"/><path fill="#81f5c5" d="M542.25 76.73s2.25-1.83 3.49-.57 1 5.85-3.37 6.34a11.11 11.11 0 0 1-.12-5.77Z" class="colorf58981 svgShape"/><path fill="#1e362c" d="M540.65 66.53s2.16 6.38 2.87 9.81c0 0 .27-9.64-1.33-12.1s-1.54 2.29-1.54 2.29Z" class="color1e2236 svgShape"/><path fill="#50d79f" d="M533.16 86.7a.16.16 0 0 1-.15-.06.89.89 0 0 1-.13-1.08.69.69 0 0 1 .57-.34h.36a3.39 3.39 0 0 0 .93-.4.93.93 0 0 0 .45-.9 1.23 1.23 0 0 0-.26-.49 9.66 9.66 0 0 1-1.71-5.6.16.16 0 0 1 .17-.16.16.16 0 0 1 .16.16 9.31 9.31 0 0 0 1.65 5.41 1.76 1.76 0 0 1 .31.61 1.26 1.26 0 0 1-.58 1.24 3.54 3.54 0 0 1-1 .44l-.18.06-.21.05c-.15 0-.31.06-.34.15a.59.59 0 0 0 .08.74.17.17 0 0 1 0 .23.18.18 0 0 1-.12-.06Z" class="colord75150 svgShape"/><path fill="#fff" d="M538.7 88.17s-7.81 1.23-12.83.6c0 0 3.77 4.3 7.59 4.17s5.24-4.77 5.24-4.77Z" class="colorffffff svgShape"/><path fill="#1e362c" d="M524.87 68.12s-4.09 11.36-8.67 14.26c0 0-3.49-2.7-4.39-9.77s13.06-4.49 13.06-4.49Z" class="color1e2236 svgShape"/><path fill="#77f3bf" d="M543.2 67.7s-1.2-16.08-18.88-14.14C506.4 55.54 512 75.17 512 75.17s6.58-4.63 9.27-5.38 21.93-2.09 21.93-2.09Z" class="colorf37977 svgShape"/><path fill="#93f7cd" d="M518.31 81.68s-.4-4.66-5-2.4c-1.82.9-1.28 6.18 4.11 6.34.02 0 1.82-.62.89-3.94Z" class="colorf7a093 svgShape"/><path fill="#77f3bf" d="M542.87 66s8 7.91 6.5 7.17c-15-7.25-19.66 3.89-22.51 1.95a53.76 53.76 0 0 1-6.72-6.12l13-2.54Z" class="colorf37977 svgShape"/><path fill="#4d9b7a" d="m492.94 137 5.96-33.34 5.83-.6-6.96 35.81-4.83-1.87zM536.43 153.75l9.43-36.63-4.49-2.99-9.72 39.18 4.78.44z" class="color899b4d svgShape"/><path fill="#93f7cd" d="M595.93 136.85a101.18 101.18 0 0 1 4.56-11.61c.69-1.41 2.26 2.51 3.7 2.23s8.68-4.16 8.68-4.16l5.94 11.26s-9.79 8-16.13 7.8l-7.84 9.6-7.36-7.61Z" class="colorf7a093 svgShape"/><path fill="#93f7cd" d="M598.94 129.63s1.4-4.84 2.74-6.43 6.18-3.39 6.18-3.39l5.54.35s.65 2.59-4.69 2.29l-3.09 2.39s-1 7.73-2.34 9.82-4.34-5.03-4.34-5.03Z" class="colorf7a093 svgShape"/><path fill="#52cc99" d="M607.87 114.36h5.46v27.44h-5.46z" class="colora3afb8 svgShape" transform="rotate(-24.53 610.522 128.076)"/><path fill="#52cc99" d="m601.83 107.62 2.36 1.82a.89.89 0 0 1 .16 1.25l-2.31 3a.89.89 0 0 1-1.25.16l-2.56-2a5.46 5.46 0 1 0 3.6-4.25ZM620.68 147.22l-2.79-1.07a.89.89 0 0 1-.52-1.14l1.36-3.55a.89.89 0 0 1 1.14-.51l3 1.15a5.33 5.33 0 0 0-1.31-2.9 5.46 5.46 0 1 0-.9 8Z" class="colora3afb8 svgShape"/><path fill="#81f5c5" d="M616.43 123.07a1.61 1.61 0 0 0-2.18-.62l-6.67 3.73a1.6 1.6 0 0 0-.62 2.17 1.61 1.61 0 0 0 2.18.62l6.67-3.73a1.6 1.6 0 0 0 .62-2.17ZM617.52 126.3a1.61 1.61 0 0 0-2.18-.62l-6.67 3.73a1.6 1.6 0 0 0-.62 2.17 1.61 1.61 0 0 0 2.18.62l6.67-3.72a1.61 1.61 0 0 0 .62-2.18Z" class="colorf58981 svgShape"/><path fill="#81f5c5" d="M618.65 129.26a1.61 1.61 0 0 0-2.18-.62l-6.58 3.68a1.6 1.6 0 0 0-.62 2.17 1.61 1.61 0 0 0 2.18.62l6.58-3.68a1.59 1.59 0 0 0 .62-2.17Z" class="colorf58981 svgShape"/><path fill="#81f5c5" d="M619.46 132.39a1.61 1.61 0 0 0-2.18-.62l-5.37 3a1.61 1.61 0 0 0-.61 2.18 1.6 1.6 0 0 0 2.17.62l5.37-3a1.61 1.61 0 0 0 .62-2.18Z" class="colorf58981 svgShape"/><path fill="#92c6b0" d="M574.2 556.57S502.73 371 799.27 264.59c0 0-18.27 340.64-225.07 291.98Z" class="colorbcc692 svgShape"/><path fill="#92c6b0" d="M578.53 588.23s21.88-157.89 271.21-117.45c0 0-145.02 231.86-271.21 117.45Z" class="colorbcc692 svgShape"/><rect width="253.19" height="451.63" x="389.93" y="179.87" fill="#1e362c" class="color1e2236 svgShape" rx="15.31" transform="rotate(180 516.525 405.685)"/><path fill="#fff" d="M397.04 187.04h239.13V613.6H397.04z" class="colorffffff svgShape" transform="rotate(180 516.605 400.315)"/><rect width="213.01" height="213.01" x="410.01" y="263.4" fill="#6dc6a1" class="colorb5c66d svgShape" rx="59.73" transform="rotate(180 516.515 369.905)"/><path fill="#fff" d="m420.11 387.21 6.39 22.63 23.76-1.84a75.39 75.39 0 0 0 15.17 20.11c.16.16.34.28.5.43l-7.59 22.92 19.54 12.08 17-18.65a72.09 72.09 0 0 0 25.52 2.66l10.05 22.44 22.18-5.31-.21-27.28a75.85 75.85 0 0 0 18.36-15.29c.18-.21.33-.43.51-.64l22.71 7.79 11.51-20.34-18.19-17.53a80.82 80.82 0 0 0 2.87-26.79l20-9.73-5.21-22.95-24 .3a75.1 75.1 0 0 0-14.79-19.37c-.43-.41-.9-.74-1.33-1.13l6.28-22.52-20-11.32-14.92 18.05a72.38 72.38 0 0 0-25.16-2.51L499 271.59l-21.73 7 2.26 24.77a76.07 76.07 0 0 0-18.7 15.48c-.4.46-.73.95-1.12 1.42l-23.4-7.42-11.24 20.51L444 350.69a80.81 80.81 0 0 0-2.64 24.38Zm57.43-52.62c19.3-22.06 52-24 72.94-4.41s22.24 53.57 2.94 75.64-52 24-72.94 4.4-22.24-53.56-2.94-75.63Z" class="colorffffff svgShape"/><path fill="#93f7cd" d="m691.21 616.75.86-34.46-12.26-1.6-.96 33.36 12.36 2.7z" class="colorf7a093 svgShape"/><path fill="#62febd" d="M691.36 614.14s.93 8.31-.48 14.94l-37.06.67s-2.41-7.07 5.93-9 19-8.51 19-8.51 7.61 6.31 12.61 1.9Z" class="colorfede62 svgShape"/><path fill="#ebf3f0" d="m690.89 629.08-37.06.67a7.78 7.78 0 0 1-.17-3.72l37.76-.67a17.66 17.66 0 0 1-.53 3.72Z" class="colorf3edeb svgShape"/><path fill="none" stroke="#303030" stroke-linecap="round" stroke-linejoin="round" stroke-width=".73" d="M679.75 615a5.06 5.06 0 0 0-1.24-1.66 5.31 5.31 0 0 0-2.79-.93 22.64 22.64 0 0 0-2.6-.13 5.51 5.51 0 0 0-3.25.77.89.89 0 0 0-.47.85.82.82 0 0 0 .52.52 4.23 4.23 0 0 0 2.42.07q2.91-.51 5.78-1.28a12.1 12.1 0 0 0-.31 3.18 6.46 6.46 0 0 0 .7 2.9 2.44 2.44 0 0 0 .86.94 1.28 1.28 0 0 0 1.23 0 1.36 1.36 0 0 0 .6-1.08 3.42 3.42 0 0 0-.22-1.26 17.57 17.57 0 0 0-1.23-2.89ZM653.66 626.03l37.59-.68M691.44 617.49s-9.31-.37-10.52 8M655.85 622.57h9.39a22.5 22.5 0 0 1 11 2.9l.15.09" class="colorStroke303030 svgStroke"/><path fill="none" stroke="#303030" stroke-linecap="round" stroke-linejoin="round" stroke-width=".73" d="m681.65 614.51-13.08 6.42-1.82-2.48" class="colorStroke303030 svgStroke"/><path fill="#93f7cd" d="m749.36 618.49-4.53-40.86-12.84 6.19 5 31.98 12.37 2.69z" class="colorf7a093 svgShape"/><path fill="#62febd" d="M749.5 615.88s.93 8.31-.48 14.94l-37 .67s-2.41-7.07 5.93-9 19-8.5 19-8.5 7.55 6.3 12.55 1.89Z" class="colorfede62 svgShape"/><path fill="#ebf3f0" d="m749 630.82-37 .67a7.78 7.78 0 0 1-.17-3.72l37.74-.67a17.66 17.66 0 0 1-.57 3.72Z" class="colorf3edeb svgShape"/><path fill="none" stroke="#303030" stroke-linecap="round" stroke-linejoin="round" stroke-width=".73" d="M737.9 616.71a5 5 0 0 0-1.24-1.66 5.26 5.26 0 0 0-2.8-.93 20.44 20.44 0 0 0-2.59-.14 5.67 5.67 0 0 0-3.25.77.89.89 0 0 0-.47.85.82.82 0 0 0 .52.52 4.23 4.23 0 0 0 2.42.07c1.94-.34 3.87-.76 5.78-1.28a11.73 11.73 0 0 0-.31 3.18 6.46 6.46 0 0 0 .7 2.9 2.36 2.36 0 0 0 .86.94 1.28 1.28 0 0 0 1.23.05 1.35 1.35 0 0 0 .6-1.08 3.42 3.42 0 0 0-.22-1.26 17.47 17.47 0 0 0-1.23-2.93ZM711.82 627.77l37.57-.68M749.59 619.24s-9.31-.38-10.52 8M714 624.31h9.38a22.65 22.65 0 0 1 11 2.91l.15.08" class="colorStroke303030 svgStroke"/><path fill="none" stroke="#303030" stroke-linecap="round" stroke-linejoin="round" stroke-width=".73" d="m739.8 616.26-13.08 6.41-1.82-2.48" class="colorStroke303030 svgStroke"/><path fill="#93f7cd" d="M637.17 357.45s-.1-9.76-.2-11.38a40.38 40.38 0 0 1 1.06-8.61 1 1 0 0 0-1.15-1.21 2.83 2.83 0 0 0-1.8 1.64c-1 2.32-1.72 9.73-2.93 9.13s-6.7-5.9-6.7-5.9l-8.13 8.56s6.72 9.62 12.44 11l4.58 10.54 8.48-5Z" class="colorf7a093 svgShape"/><path fill="#81f5c5" d="M622.33 340a1.49 1.49 0 0 1 2.1 0l5 5a1.48 1.48 0 0 1 0 2.1 1.48 1.48 0 0 1-2.09 0l-5-5a1.49 1.49 0 0 1-.01-2.1ZM620.55 342.62a1.49 1.49 0 0 1 2.1 0l5 5a1.49 1.49 0 0 1 0 2.1 1.49 1.49 0 0 1-2.1 0l-5-5a1.49 1.49 0 0 1 0-2.1Z" class="colorf58981 svgShape"/><path fill="#81f5c5" d="M618.8 345a1.48 1.48 0 0 1 2.1 0l5 4.93a1.47 1.47 0 0 1 0 2.09 1.49 1.49 0 0 1-2.1 0l-5-4.93a1.5 1.5 0 0 1 0-2.09Z" class="colorf58981 svgShape"/><path fill="#81f5c5" d="M617.29 347.57a1.47 1.47 0 0 1 2.09 0l4 4a1.49 1.49 0 0 1 0 2.1 1.48 1.48 0 0 1-2.1 0l-4-4a1.48 1.48 0 0 1 .01-2.1Z" class="colorf58981 svgShape"/><path fill="#93f7cd" d="M679.39 379.4s-11.11 28.89-22.22 26.87S630.7 362 630.7 362l6.47-4.58 19.39 26.4 10.71-17Z" class="colorf7a093 svgShape"/><path fill="none" stroke="#50d79f" stroke-linecap="round" stroke-linejoin="round" stroke-width=".3" d="M656.56 383.85a22 22 0 0 1 3.74 6.15" class="colorStroked75150 svgStroke"/><path fill="#93f7cd" d="m736.15 374.42 10.77 32.05.54 45.79 8.62 2.15s7.27-41.47 6.19-50.36S751 362 751 362Z" class="colorf7a093 svgShape"/><path fill="#ebf3f0" d="M699.23 342.64s-24.36 6.87-26.51 9.29-13.47 27.2-13.47 27.2 4.58 6.33 17.24 9.16l1.21 32.19h53.6l6.19-30.71 2.7 10.51S755 401.62 764.7 393c0 0-11.58-36.36-18.32-42s-28-9.43-28-9.43Z" class="colorf3edeb svgShape"/><path fill="#517868" d="m734.26 412.13-5.38-1.08-1.49-40.4-45.39-.27-5.92 39.05-2.69 35.57v161.32l19.93.54s7.14-133.86 11.45-134.4 17.91 92.65 24.91 133.05c0 0 .81 4 20.2-.27 0 0-5.92-72.18-6.46-84s-9.16-109.11-9.16-109.11Z" class="color516878 svgShape"/><path fill="#93f7cd" d="m698.67 323.89-.48 17.62a1.83 1.83 0 0 1-1.17 1.65l-1.24.47s7.43 9.63 24.39-1.82a5.15 5.15 0 0 1-4-4.88l-.59-18.93Z" class="colorf7a093 svgShape"/><path fill="#71f3bd" d="M698.32 336.58s13.84-.17 17.29-14.48l-17.11 6Z" class="colorf37a71 svgShape"/><path fill="#81f5c5" d="M693 310.46s-2-2.13-3.36-1.06-1.85 5.62 2.4 6.73a11.07 11.07 0 0 0 .96-5.67Z" class="colorf58981 svgShape"/><path fill="#1e362c" d="M717.4 319.72s-2.79-5.47-.92-14.64c0 0-3.67-2.29-6.38-2.64s-6.38 1.17-11.58-.3a9.72 9.72 0 0 1-6.52-5.94 14.93 14.93 0 0 0 1.66.4 33.41 33.41 0 0 1-2.21-5.75s1.24.57 6.46 1a10.45 10.45 0 0 1-1.63-3.32 28.53 28.53 0 0 0 9.21 2.22c5.34.4 12.31 1 15 4s2.72 3.46 2.72 3.46-.2-4-1.45-5.15c0 0 3.14 2.36 2.53 5.94a27.88 27.88 0 0 1 2.88 1.35c1 .57-2.51-.39-2.51-.39s3.84 10.95-6.52 22.49Z" class="color1e2236 svgShape"/><path fill="#1e362c" d="M723.14 298.2s-1.36-4.66-5-7.11-11.63-3.09-14.34-4.89a14.12 14.12 0 0 0 6 5.79 54.43 54.43 0 0 1 7.69 5.13ZM696.08 300.63s-3 6-4.24 9.26c0 0 1.12-9.54 3.06-11.73s1.18 2.47 1.18 2.47Z" class="color1e2236 svgShape"/><path fill="#93f7cd" d="M715.92 318.8s1.07-4.54 5.26-1.65c1.66 1.15.37 6.28-5 5.66.03 0-1.65-.9-.26-4.01Z" class="colorf7a093 svgShape"/><path fill="#50d79f" d="M700.56 321.6a.14.14 0 0 0 .15 0 .91.91 0 0 0 .29-1.05c-.07-.25-.32-.35-.52-.42l-.17-.07-.17-.08a3.37 3.37 0 0 1-.86-.53.92.92 0 0 1-.31-.95 1.63 1.63 0 0 1 .32-.45 9.7 9.7 0 0 0 2.49-5.28.17.17 0 0 0-.14-.18.17.17 0 0 0-.19.14 9.36 9.36 0 0 1-2.4 5.1 1.51 1.51 0 0 0-.4.56 1.26 1.26 0 0 0 .39 1.3 3.73 3.73 0 0 0 1 .58l.17.08.2.08c.14.06.29.11.31.2.09.36.05.52-.19.72a.17.17 0 0 0 0 .23.14.14 0 0 0 .03.02Z" class="colord75150 svgShape"/><path fill="#fff" d="M694.88 322.25s7.52 2.34 12.56 2.45c0 0-4.33 3.69-8.08 3s-4.48-5.45-4.48-5.45Z" class="colorffffff svgShape"/><path fill="#fafefc" d="M708.34 416.71c13.85 0 25.92-.83 26.14-.84a.19.19 0 0 0 .16-.19.17.17 0 0 0-.19-.16c-.4 0-40.58 2.78-58.52-1.81a.17.17 0 0 0-.21.12.18.18 0 0 0 .12.22c8.16 2.09 20.96 2.66 32.5 2.66ZM703.72 423.05c2.88 0 5.67 0 8.26-.09 12.52-.29 23-1.09 23.1-1.1a.17.17 0 0 0 .16-.18.16.16 0 0 0-.18-.16c-.42 0-41.93 3.18-59.47-.94a.17.17 0 0 0-.21.13.17.17 0 0 0 .13.2c7.14 1.68 18.21 2.14 28.21 2.14Z" class="colorfafcfe svgShape"/><path fill="#fafefc" d="M736.42 442.15h.49a.18.18 0 0 0 .15-.2.17.17 0 0 0-.2-.14c-.1 0-10.82 1.33-16.37-19.07a.17.17 0 0 0-.33.09c4.94 18.17 14.03 19.32 16.26 19.32ZM673.86 441.73c.12 0 11.87-2 13.68-19.14a.18.18 0 0 0-.15-.19.17.17 0 0 0-.19.16c-.52 4.86-2.22 11.55-7.39 15.81a13.88 13.88 0 0 1-6 3 .18.18 0 0 0-.15.2.19.19 0 0 0 .2.16ZM704.77 472.63a.17.17 0 0 0 .17-.17l-.8-49.43a.18.18 0 0 0-.18-.17.17.17 0 0 0-.17.18l.81 49.42a.17.17 0 0 0 .17.17Z" class="colorfafcfe svgShape"/><path fill="#fafefc" d="M704.37 462a.16.16 0 0 0 .13-.06.17.17 0 0 0 0-.24l-5.6-4.67-.94-34c0-.09-.08-.15-.18-.17a.18.18 0 0 0-.16.18l.94 34.07a.16.16 0 0 0 .06.13l5.66 4.71a.15.15 0 0 0 .09.05ZM700.85 409l-16.36-8.28a.17.17 0 0 1-.09-.16l.81-25.86a.16.16 0 0 1 .17-.16h36.16a.18.18 0 0 1 .12.05.19.19 0 0 1 .05.13l-1 28.07a.16.16 0 0 1-.12.16L701 409h-.05Zm20.51-34.12h-35.81l-.8 25.58 16.2 8.2 19.41-6Z" class="colorfafcfe svgShape"/><path fill="#77f3bf" d="M722.3 462.2h2.83v57.33h-2.83z" class="colorf37977 svgShape" transform="rotate(180 723.71 490.865)"/><path fill="#52cc99" d="M733.32 479.92h7.32v26.36h-7.32z" class="colora3afb8 svgShape"/><path fill="#52cc99" d="m736.29 468.46-1.87 3.54a1.18 1.18 0 0 0 .49 1.61l4.5 2.38a1.19 1.19 0 0 0 1.61-.5l2-3.84a7.32 7.32 0 1 1-6.76-3.19Z" class="colora3afb8 svgShape"/><path fill="#52cc99" d="M762.2 487.34h4.2v15.11h-4.2z" class="colora3afb8 svgShape" transform="rotate(-163.53 764.316 494.866)"/><path fill="#52cc99" d="m767.92 481.23-1.61 1.65a.68.68 0 0 0 0 1l2.08 2a.69.69 0 0 0 1 0l1.74-1.78a4.2 4.2 0 1 1-3.2-2.86Z" class="colora3afb8 svgShape"/><path fill="#1e362c" d="m744.23 473.71.8-3.74h1.16l.81 3.74-.81 1.35h-1.16l-.8-1.35z" class="color1e2236 svgShape"/><path fill="#1e362c" d="M745.06 474.45h1.11v16.66h-1.11z" class="color1e2236 svgShape" transform="rotate(180 745.615 482.785)"/><path fill="#6efec2" d="M743.6 491.52h4a.63.63 0 0 0 .63-.63.63.63 0 0 0-.63-.62h-4a.62.62 0 0 0-.62.62.63.63 0 0 0 .62.63Z" class="colorfee86e svgShape"/><path fill="#6efec2" d="M744.16 490.89h2.91l.37.83a4.55 4.55 0 0 1 .39 1.85v6.16h-4.44v-6.16a4.56 4.56 0 0 1 .4-1.85Z" class="colorfee86e svgShape"/><path fill="#fff" d="m722.07 472.2-.37-4.56 1.32-.4 2.22 4-.46 1.81-1.32.4-1.39-1.25z" class="colorffffff svgShape"/><path fill="#fff" d="M726.15 472.14h1.33v19.9h-1.33z" class="colorffffff svgShape" transform="rotate(163.08 726.814 482.084)"/><path fill="#6efec2" d="m727.55 492.77 4.6-1.4a.75.75 0 0 0 .49-.93.74.74 0 0 0-.93-.5l-4.6 1.4a.75.75 0 0 0-.49.93.76.76 0 0 0 .93.5Z" class="colorfee86e svgShape"/><path fill="#6efec2" d="m728 491.86 3.32-1 .71.81a5.4 5.4 0 0 1 1.1 2l2.14 7-5.08 1.55-2.13-7a5.4 5.4 0 0 1-.2-2.26Z" class="colorfee86e svgShape"/><path fill="#4d9b7a" d="m755.78 486.19 1 .13.59-4.5s-.89 0-.72-1.2a1 1 0 0 1 1.36-.86l.71-5.37-.58-.07-3.46 4.93-.65 5Z" class="color899b4d svgShape"/><path fill="#4d9b7a" d="m757.73 486.62-1-.31 1.36-4.33s.79.4 1.16-.79a1 1 0 0 0-.88-1.35l1.62-5.17.56.18 1.06 5.93-1.51 4.82Z" class="color899b4d svgShape"/><path fill="#1e362c" d="m753.92 485.53 5.34 1.05a.7.7 0 0 1 .55.81.7.7 0 0 1-.82.55l-5.34-1a.7.7 0 0 1-.55-.82.7.7 0 0 1 .82-.59Z" class="color1e2236 svgShape"/><path fill="#1e362c" d="M755.15 487s-4.64 3.91-5.36 5.56-2.83 10.09-2.55 12.24 1.86 4.19 3 3.87 1.92-3.95 1.47-6.23.84-9.09 1-9.51 4-5.78 4-5.78Z" class="color1e2236 svgShape"/><path fill="#1e362c" d="M757.58 487.49s2.83 5.38 2.87 7.18-1.19 10.41-2.26 12.29-3.3 3.18-4.26 2.45-.28-4.38 1-6.32 2.66-8.73 2.7-9.17-1.54-6.87-1.54-6.87Z" class="color1e2236 svgShape"/><path fill="#77f3bf" d="M779.84 462.2h2.83v57.33h-2.83z" class="colorf37977 svgShape" transform="rotate(180 781.26 490.865)"/><path fill="#1e362c" d="M725.27 464.08h54.54v3.64h-54.54z" class="color1e2236 svgShape" transform="rotate(180 752.545 465.895)"/><path fill="#6efec2" d="M770.31 474.59h5.25v44.31h-5.25z" class="colorfee86e svgShape" transform="rotate(-158.48 772.943 496.73)"/><path fill="#1e362c" d="M770.49 472.92h21.14v7.14h-21.14z" class="color1e2236 svgShape" transform="rotate(-158.48 781.068 476.485)"/><path fill="#77f3bf" d="M724.22 494.44h58.38v25.09h-58.38z" class="colorf37977 svgShape" transform="rotate(180 753.415 506.985)"/><path fill="#93f7cd" d="M756.48 452.06c-.2 1 7.07 9.39 7.27 10.7s-1.61 6.37-2.42 6.47-.81-1.62-.81-1.62-1 1.72-1.82 1.72-1-1.82-1-1.82-1 1.62-2 1.62-.8-1.52-.8-1.52-1.62 1.41-2.63 1.41-2-1.21-2-1.21l1.72-.1a10.42 10.42 0 0 0 .76-2.62c-.11-.51-1.42-3-2-2.58s-.36 1.57-.36 1.57h-2.57a24.37 24.37 0 0 1-.31-12.53Z" class="colorf7a093 svgShape"/><path fill="#517868" d="m727.39 370.65 1.35-26.93-4.63-1-1.66 28.28 4.94-.35zM682.01 370.38l3.37-23.67 4.54-1.51-3.13 25.55-4.78-.37z" class="color516878 svgShape"/><ellipse cx="686.28" cy="237.67" fill="#fff" class="colorffffff svgShape" rx="15.96" ry="24.87"/><ellipse cx="257.44" cy="263.52" fill="#fff" class="colorffffff svgShape" rx="15.96" ry="24.87"/><ellipse cx="209.54" cy="229.3" fill="#fff" class="colorffffff svgShape" rx="10.64" ry="16.57"/><ellipse cx="731.9" cy="208.01" fill="#fff" class="colorffffff svgShape" rx="9.61" ry="14.98"/><path fill="#4d9b7a" d="M803.6 487.56a42.25 42.25 0 0 0 8.68 33.16 22 22 0 0 0 3.72 3.78 14.94 14.94 0 0 0 6.15 2.74c2.31.46 5 .21 6.54-1.6a7.82 7.82 0 0 0 1.25-2.56 34.93 34.93 0 0 0 1.62-13.31 7.77 7.77 0 0 0-.8-3.27c-.81-1.41-2.33-2.24-3.39-3.46-2.75-3.17-1.82-8-2.12-12.13-.35-4.66-2.68-9.34-6.75-11.65s-9.85-1.63-12.66 2.11a14 14 0 0 0-2.24 6.19ZM774.34 535.52c.49 6.28 2.87 12.23 5.23 18.06 2.21 5.43 4.47 10.94 8.06 15.57s8.73 8.38 14.57 9a27.92 27.92 0 0 0 9.12-1 3.72 3.72 0 0 0 1.39-.53 3.61 3.61 0 0 0 1.15-2.3c2.21-11.09-4.62-23.29-15.24-27.2a7.46 7.46 0 0 1-2.08-1c-1.37-1-1.71-2.91-2.11-4.58-1.45-6.17-5.34-12.23-11.36-14.2-2.09-.69-4.53-.79-6.31.49-2.26 1.69-2.63 4.91-2.42 7.69ZM799.09 635a25.78 25.78 0 0 1 9-.46 8.8 8.8 0 0 0 1.84-.79c3.06-1.79 4.7-5.37 5.06-8.89.89-8.63-5.8-17.36-14.36-18.75-1.5-.24-3.14-.33-4.27-1.35a9.4 9.4 0 0 1-1.83-3.33c-1.15-2.51-3.23-4.45-5.27-6.32-3.22-3-7-6.14-11.38-5.7-3.94.39-7.07 3.83-8.12 7.64s-.36 7.89.81 11.66a40.27 40.27 0 0 0 12.23 19 32.05 32.05 0 0 0 16.29 7.29Z" class="color899b4d svgShape"/><path fill="#4d9b7a" d="M881.5 461.61c-3.42 8.3-10.77 13.62-18.55 19.25a118.66 118.66 0 0 0-10.5 8.22c-5.9 5.39-10.45 11.89-14.12 17.55a229.14 229.14 0 0 0-36.77 127.9c.36 0 .7-.11 1.07-.14s.92 0 1.38 0A226.63 226.63 0 0 1 840.39 508c3.59-5.53 8-11.88 13.72-17.08a119.57 119.57 0 0 1 10.28-8.05c7.72-5.58 15.69-11.35 19.38-20.3Z" class="color899b4d svgShape"/><path fill="#4d9b7a" d="M842.67 567.84c5.1 0 9.59-3.08 14.05-5.55s10.08-4.32 14.52-1.79c4.08 2.33 5.55 7.81 4.41 12.38s-4.36 8.32-7.84 11.48a61.26 61.26 0 0 1-59.16 12.5c-4.57-1.51-9.5-4.23-10.44-9-.54-2.71.41-5.5 1.55-8A34.11 34.11 0 0 1 810 566.32c4.58-3.43 10.56-5.23 16.14-4s10.68 5.47 16.53 5.52ZM864.42 602.38c-2.43-2.67-6.33-3.49-9.94-3.4A26.3 26.3 0 0 0 837 606.4c-3.93 3.85-7 9.21-12.37 10.56-1.54.39-3.16.4-4.7.8a19.08 19.08 0 0 0-6 3.28c-5 3.62-10.39 7.8-12.37 13.49.36 0 .7-.11 1.08-.14 7.3-.61 13 1.7 17.11 5.57a16.09 16.09 0 0 0 1.64-1.09c4.27-3.2 7.9-7.64 13-9.06 3.18-.89 6.56-.48 9.86-.71a26.05 26.05 0 0 0 19.44-11.1c3.16-4.68 4.51-11.47.73-15.62ZM859.59 511c-2.51 1.65-5.6 3.15-8.43 2.11-1.44-.53-2.59-1.65-4-2.22a8.91 8.91 0 0 0-5.81.13 21.3 21.3 0 0 0-14.16 14.59c5.47 2 9.46 6.83 14.72 9.33 6.3 3 13.7 2.39 20.54 1 5.38-1.08 10.79-2.64 15.32-5.75s8.08-8 8.47-13.49-3-11.32-8.36-12.68c-6.53-1.66-12.66 3.27-18.29 6.98ZM893.26 472.9a9.25 9.25 0 0 1 10.35 14c-1.94 2.87-5.36 4.45-8.79 5s-6.91.16-10.37-.08a136 136 0 0 0-28.8 1.09 4.2 4.2 0 0 1-2.63-.19 3.6 3.6 0 0 1-1.17-1.25 12.88 12.88 0 0 1 17-18.22c1.31.7 2.49 1.62 3.78 2.36a15.66 15.66 0 0 0 14.33.53c2.11-1.03 4.04-2.55 6.3-3.24ZM880.41 430.48c-3.06-.31-5.83 2.25-6.84 5.16s-.66 6.09-.31 9.16l1.36 11.82c.26 2.23.55 4.56 1.79 6.43 2.34 3.52 7.51 4.25 11.39 2.57s6.66-5.19 8.83-8.82 3.62-9.45-.06-11.83c-1.18-.76-2.64-1-3.9-1.55-5.54-2.66-6.15-12.32-12.26-12.94Z" class="color899b4d svgShape"/><path fill="#0daf6b" d="M354.34 311.14v20.8h19.61v-8.91h61.8v8.91h43.6v-8.62h13.14v8.69h14.71l11.14 15.82h-21.39v25.41h12.26v7.8h-12.26v31.71h-13.07v50.51h13.07v138.38h21.39v17.15h-8.91l-12.48 12.63H336.51v-85.56h10.1v-80.82h-10.1v-153.9h17.83z" class="color0d7daf svgShape"/><path fill="#fff" d="M346.76 385.05V353a10.93 10.93 0 0 1 10.92-11h123.45a10.93 10.93 0 0 1 10.92 11v32.09A10.93 10.93 0 0 1 481.13 396H357.68a10.93 10.93 0 0 1-10.92-10.95Zm10.92-39.44a7.36 7.36 0 0 0-7.35 7.35v32.09a7.36 7.36 0 0 0 7.35 7.35h123.45a7.36 7.36 0 0 0 7.35-7.35V353a7.36 7.36 0 0 0-7.35-7.35Z" class="colorffffff svgShape" opacity=".35"/><path fill="#1e362c" d="M443.25 353.41h17.6v33.43h-17.6z" class="color1e2236 svgShape" transform="rotate(180 452.05 370.12)"/><path fill="#1e362c" d="M419.41 353.41h17.6v33.43h-17.6z" class="color1e2236 svgShape" transform="rotate(180 428.205 370.12)"/><path fill="#71fec3" d="M468.13 354.15h12.4a1.56 1.56 0 0 1 1.56 1.56 1.56 1.56 0 0 1-1.56 1.56h-12.4a1.56 1.56 0 0 1-1.56-1.56 1.56 1.56 0 0 1 1.56-1.56ZM468.13 359.05h12.4a1.56 1.56 0 0 1 1.56 1.56 1.56 1.56 0 0 1-1.56 1.56h-12.4a1.56 1.56 0 0 1-1.56-1.56 1.56 1.56 0 0 1 1.56-1.56ZM468.13 364h12.4a1.56 1.56 0 0 1 1.56 1.56 1.56 1.56 0 0 1-1.56 1.56h-12.4a1.56 1.56 0 0 1-1.56-1.56 1.56 1.56 0 0 1 1.56-1.56ZM468.13 368.86h12.4a1.56 1.56 0 0 1 1.56 1.56 1.56 1.56 0 0 1-1.56 1.55h-12.4a1.56 1.56 0 0 1-1.56-1.55 1.56 1.56 0 0 1 1.56-1.56ZM468.13 374h12.4a1.56 1.56 0 0 1 1.56 1.56 1.56 1.56 0 0 1-1.56 1.56h-12.4a1.56 1.56 0 0 1-1.56-1.56 1.56 1.56 0 0 1 1.56-1.56ZM468.13 378.88h12.4a1.57 1.57 0 0 1 1.56 1.56 1.56 1.56 0 0 1-1.56 1.56h-12.4a1.56 1.56 0 0 1-1.56-1.56 1.57 1.57 0 0 1 1.56-1.56Z" class="colorfee571 svgShape"/><path fill="#fff" d="M357.16 353.18h12.33v6.24h-12.33z" class="colorffffff svgShape" opacity=".35" transform="rotate(180 363.325 356.305)"/><path fill="#fff" d="M357.16 364.92h12.33v6.24h-12.33z" class="colorffffff svgShape" opacity=".35" transform="rotate(180 363.325 368.04)"/><path fill="#fff" d="M357.16 376.8h12.33v6.24h-12.33z" class="colorffffff svgShape" opacity=".35" transform="rotate(180 363.325 379.925)"/><path fill="#71fec3" d="M402.92 354.07h9.95v9.95h-9.95z" class="colorfee571 svgShape" transform="rotate(180 407.895 359.05)"/><path fill="#71fec3" d="M388.95 354.07h9.95v9.95h-9.95z" class="colorfee571 svgShape" transform="rotate(180 393.93 359.05)"/><path fill="#71fec3" d="M374.99 354.07h9.95v9.95h-9.95z" class="colorfee571 svgShape" transform="rotate(180 379.965 359.05)"/><path fill="#71fec3" d="M402.92 369.08h9.95v9.95h-9.95z" class="colorfee571 svgShape" transform="rotate(180 407.895 374.055)"/><path fill="#71fec3" d="M388.95 369.08h9.95v9.95h-9.95z" class="colorfee571 svgShape" transform="rotate(180 393.93 374.055)"/><path fill="#71fec3" d="M374.99 369.08h9.95v9.95h-9.95z" class="colorfee571 svgShape" transform="rotate(180 379.965 374.055)"/><path fill="#b6efd7" d="M426.54 411.42h51.4v44.86h-51.4z" class="coloreaefb6 svgShape" transform="rotate(180 452.235 433.85)"/><path fill="#303030" d="M469.39 418.25a1.56 1.56 0 1 1 1.56 1.56 1.56 1.56 0 0 1-1.56-1.56ZM463.3 418.25a1.56 1.56 0 1 1 1.56 1.56 1.56 1.56 0 0 1-1.56-1.56ZM456.39 418.25a1.57 1.57 0 1 1 1.56 1.56 1.56 1.56 0 0 1-1.56-1.56ZM450.3 418.25a1.56 1.56 0 1 1 1.57 1.56 1.56 1.56 0 0 1-1.57-1.56ZM444 418.25a1.56 1.56 0 1 1 1.56 1.56 1.56 1.56 0 0 1-1.56-1.56ZM437.9 418.25a1.56 1.56 0 1 1 1.56 1.56 1.56 1.56 0 0 1-1.56-1.56ZM431.66 418.25a1.56 1.56 0 1 1 1.56 1.56 1.56 1.56 0 0 1-1.56-1.56ZM469.39 424.19a1.56 1.56 0 1 1 1.56 1.56 1.56 1.56 0 0 1-1.56-1.56ZM463.3 424.19a1.56 1.56 0 1 1 1.56 1.56 1.56 1.56 0 0 1-1.56-1.56ZM456.39 424.19a1.57 1.57 0 1 1 1.56 1.56 1.56 1.56 0 0 1-1.56-1.56ZM450.3 424.19a1.56 1.56 0 1 1 1.57 1.56 1.56 1.56 0 0 1-1.57-1.56ZM444 424.19a1.56 1.56 0 1 1 1.56 1.56 1.56 1.56 0 0 1-1.56-1.56ZM437.9 424.19a1.56 1.56 0 1 1 1.56 1.56 1.56 1.56 0 0 1-1.56-1.56ZM431.66 424.19a1.56 1.56 0 1 1 1.56 1.56 1.56 1.56 0 0 1-1.56-1.56ZM469.39 429.62a1.56 1.56 0 1 1 1.56 1.56 1.56 1.56 0 0 1-1.56-1.56ZM463.3 429.62a1.56 1.56 0 1 1 1.56 1.56 1.56 1.56 0 0 1-1.56-1.56ZM456.39 429.62a1.57 1.57 0 1 1 1.56 1.56 1.56 1.56 0 0 1-1.56-1.56ZM450.3 429.62a1.56 1.56 0 1 1 1.57 1.56 1.57 1.57 0 0 1-1.57-1.56ZM444 429.62a1.56 1.56 0 1 1 1.56 1.56 1.56 1.56 0 0 1-1.56-1.56ZM437.9 429.62a1.56 1.56 0 1 1 1.56 1.56 1.56 1.56 0 0 1-1.56-1.56ZM431.66 429.62a1.56 1.56 0 1 1 1.56 1.56 1.56 1.56 0 0 1-1.56-1.56ZM469.39 435.56a1.56 1.56 0 1 1 1.56 1.56 1.56 1.56 0 0 1-1.56-1.56ZM463.3 435.56a1.56 1.56 0 1 1 1.56 1.56 1.56 1.56 0 0 1-1.56-1.56ZM456.39 435.56a1.57 1.57 0 1 1 1.56 1.56 1.56 1.56 0 0 1-1.56-1.56ZM450.3 435.56a1.56 1.56 0 1 1 1.57 1.56 1.56 1.56 0 0 1-1.57-1.56ZM444 435.56a1.56 1.56 0 1 1 1.56 1.56 1.56 1.56 0 0 1-1.56-1.56ZM437.9 435.56a1.56 1.56 0 1 1 1.56 1.56 1.56 1.56 0 0 1-1.56-1.56ZM431.66 435.56a1.56 1.56 0 1 1 1.56 1.56 1.56 1.56 0 0 1-1.56-1.56ZM469.39 440.9a1.56 1.56 0 1 1 1.56 1.56 1.56 1.56 0 0 1-1.56-1.56ZM463.3 440.9a1.56 1.56 0 1 1 1.56 1.56 1.56 1.56 0 0 1-1.56-1.56ZM456.39 440.9a1.57 1.57 0 1 1 1.56 1.56 1.56 1.56 0 0 1-1.56-1.56ZM450.3 440.9a1.56 1.56 0 1 1 1.57 1.56 1.56 1.56 0 0 1-1.57-1.56ZM444 440.9a1.56 1.56 0 1 1 1.56 1.56 1.56 1.56 0 0 1-1.56-1.56ZM437.9 440.9a1.56 1.56 0 1 1 1.56 1.56 1.56 1.56 0 0 1-1.56-1.56ZM431.66 440.9a1.56 1.56 0 1 1 1.56 1.56 1.56 1.56 0 0 1-1.56-1.56ZM469.39 446.85a1.56 1.56 0 1 1 1.56 1.56 1.56 1.56 0 0 1-1.56-1.56ZM463.3 446.85a1.56 1.56 0 1 1 1.56 1.56 1.56 1.56 0 0 1-1.56-1.56ZM456.39 446.85a1.57 1.57 0 1 1 1.56 1.56 1.56 1.56 0 0 1-1.56-1.56ZM450.3 446.85a1.56 1.56 0 1 1 1.57 1.56 1.56 1.56 0 0 1-1.57-1.56ZM444 446.85a1.56 1.56 0 1 1 1.56 1.56 1.56 1.56 0 0 1-1.56-1.56ZM437.9 446.85a1.56 1.56 0 1 1 1.56 1.56 1.56 1.56 0 0 1-1.56-1.56ZM431.66 446.85a1.56 1.56 0 1 1 1.56 1.56 1.56 1.56 0 0 1-1.56-1.56Z" class="color303030 svgShape"/><path fill="#fff" d="M350.92 403.79h32.24v1.78h-32.24z" class="colorffffff svgShape"/><path fill="#fff" d="M382.66 404.68a3.22 3.22 0 1 1 3.22 3.22 3.22 3.22 0 0 1-3.22-3.22ZM392.35 416.15a3.22 3.22 0 1 1 3.22 3.23 3.22 3.22 0 0 1-3.22-3.23ZM356.7 443.34a3.22 3.22 0 1 1 3.22 3.22 3.22 3.22 0 0 1-3.22-3.22ZM408.06 412.25a3.22 3.22 0 1 1 3.22 3.23 3.22 3.22 0 0 1-3.22-3.23ZM400 444.57a3.22 3.22 0 1 1 3.22 3.22 3.22 3.22 0 0 1-3.22-3.22Z" class="colorffffff svgShape"/><path fill="#fff" d="M382.06 445.43h18.41v-1.78h-17.26l-17.59-38.91-1.62.73 18.06 39.96z" class="colorffffff svgShape"/><path fill="#71fec3" d="M370.83 466.23H471.4a15.89 15.89 0 0 1 15.89 15.9A15.88 15.88 0 0 1 471.4 498H370.83a15.89 15.89 0 0 1-15.9-15.89 15.9 15.9 0 0 1 15.9-15.88Z" class="colorfee571 svgShape"/><path fill="#fff" d="M377.29 432.96h34.98v-17.61h-1.78v15.83h-33.2v1.78zM362.2 441.17l8.81-23.92h21.66v-1.79h-22.91l-9.24 25.1 1.68.61zM350.51 398a.87.87 0 0 1 .86.86v12.44a.87.87 0 0 1-.86.86.86.86 0 0 1-.85-.86v-12.47a.86.86 0 0 1 .85-.83Z" class="colorffffff svgShape"/><path fill="#b6efd7" d="M343.05 578.84h84.08v35.06h-84.08z" class="coloreaefb6 svgShape" transform="rotate(180 385.09 596.365)"/><path fill="#71fec3" d="M344.53 569.33h11.59v4.01h-11.59z" class="colorfee571 svgShape" transform="rotate(180 350.33 571.335)"/><path fill="#71fec3" d="M357.9 569.33h11.59v4.01H357.9z" class="colorfee571 svgShape" transform="rotate(180 363.695 571.335)"/><path fill="#71fec3" d="M371.42 569.33H383v4.01h-11.58z" class="colorfee571 svgShape" transform="rotate(180 377.215 571.335)"/><path fill="#71fec3" d="M384.79 569.33h11.58v4.01h-11.58z" class="colorfee571 svgShape" transform="rotate(180 390.585 571.335)"/><path fill="#71fec3" d="M398.31 569.33h11.59v4.01h-11.59z" class="colorfee571 svgShape" transform="rotate(180 404.105 571.335)"/><path fill="#71fec3" d="M411.68 569.33h11.59v4.01h-11.59z" class="colorfee571 svgShape" transform="rotate(180 417.475 571.335)"/><path fill="#71fec3" d="M426.98 601.71h11.59v4.01h-11.59z" class="colorfee571 svgShape" transform="rotate(90 432.775 603.715)"/><path fill="#71fec3" d="M426.98 588.34h11.59v4.01h-11.59z" class="colorfee571 svgShape" transform="rotate(90 432.775 590.345)"/><path fill="#303030" d="M478.45 507.83a6.48 6.48 0 0 1 6.47 6.46v98a6.48 6.48 0 0 1-6.47 6.46 6.48 6.48 0 0 1-6.46-6.46v-98a6.48 6.48 0 0 1 6.46-6.46ZM451.12 507.83a6.47 6.47 0 0 1 6.46 6.46v98a6.47 6.47 0 0 1-6.46 6.46 6.48 6.48 0 0 1-6.46-6.46v-98a6.48 6.48 0 0 1 6.46-6.46Z" class="color303030 svgShape" opacity=".43"/><path fill="#1e362c" d="M352.78 530.78h61.06v24.73h-61.06z" class="color1e2236 svgShape" transform="rotate(180 383.305 543.145)"/><path fill="#fff" d="M356.35 506.27h73.98v6.91h-73.98z" class="colorffffff svgShape" opacity=".35" transform="rotate(180 393.335 509.72)"/><path fill="#fff" d="M356.12 518.08h64.84v7.13h-64.84z" class="colorffffff svgShape" opacity=".35" transform="rotate(180 388.54 521.645)"/><path fill="#303030" d="M361.32 476.26v12.11a.75.75 0 0 0 1.49 0v-5.05h19.74l7.59 8.91h8.35a4.11 4.11 0 1 0-.19-1.79H391l-6.07-7.12h30.49l7.59 8.91h8.35a4.11 4.11 0 1 0-.19-1.79h-7.34l-6.07-7.12h27.22l7.59 8.91h8.35a4.11 4.11 0 1 0-.19-1.79h-7.34l-6.07-7.12h25.45a4.11 4.11 0 1 0-.24-1.79h-36.31l6.29-7.37h7.34a4.13 4.13 0 1 0 .19-1.78h-8.35l-7.69 9.07.1.08h-27.44l6.28-7.37h7.35a4.13 4.13 0 1 0 .19-1.78h-8.36l-7.73 9.07.1.08h-30.66l6.28-7.37h7.35a4.1 4.1 0 1 0 .18-1.78h-8.34l-7.74 9.07.1.08h-8.85v-5.27a.75.75 0 0 0-1.49 0Zm27.87-2.57a2.33 2.33 0 1 1 2.33 2.33 2.33 2.33 0 0 1-2.33-2.33Zm32.83 0a2.33 2.33 0 1 1 2.34 2.33 2.33 2.33 0 0 1-2.36-2.33Zm29.56 0a2.34 2.34 0 1 1 2.34 2.33 2.33 2.33 0 0 1-2.34-2.33Zm10.85 17.22a2.33 2.33 0 1 1 2.33 2.34 2.32 2.32 0 0 1-2.33-2.34Zm-29.56 0a2.33 2.33 0 1 1 2.33 2.34 2.32 2.32 0 0 1-2.33-2.34Zm-32.83 0a2.33 2.33 0 1 1 2.33 2.34 2.32 2.32 0 0 1-2.37-2.34Zm74.2-9a2.33 2.33 0 1 1 2.33 2.33 2.33 2.33 0 0 1-2.33-2.35Z" class="color303030 svgShape" opacity=".57"/><path fill="#93f7cd" d="M234.42 364.48s-13.12 35.65-13.12 37.36 3.62 15.3 21 46.09l5.8-5-9.7-40.78 11.69-33.07ZM312.4 357l17.87 33.07L358 370.19l6.36 3.61s-25.75 42.1-38.68 38.68S301 371 301 371ZM293.85 620.93l-.86-34.45 12.27-1.61.96 33.37-12.37 2.69z" class="colorf7a093 svgShape"/><path fill="#77f3bf" d="M293.7 618.32s-.92 8.31.48 14.94l37.06.67s2.41-7.06-5.93-9-19-8.5-19-8.5-7.61 6.3-12.61 1.89Z" class="colorf37977 svgShape"/><path fill="#ebf3f0" d="m294.17 633.26 37.06.67a7.76 7.76 0 0 0 .17-3.72l-37.76-.67a17.66 17.66 0 0 0 .53 3.72Z" class="colorf3edeb svgShape"/><path fill="none" stroke="#303030" stroke-linecap="round" stroke-linejoin="round" stroke-width=".73" d="M305.31 619.15a5.13 5.13 0 0 1 1.24-1.67 5.32 5.32 0 0 1 2.8-.93 22.46 22.46 0 0 1 2.59-.13 5.59 5.59 0 0 1 3.25.77.92.92 0 0 1 .48.85.83.83 0 0 1-.53.52 4.2 4.2 0 0 1-2.41.07q-2.93-.51-5.79-1.28a11.73 11.73 0 0 1 .31 3.18 6.46 6.46 0 0 1-.7 2.9 2.36 2.36 0 0 1-.86.94 1.28 1.28 0 0 1-1.23 0 1.35 1.35 0 0 1-.6-1.08 3.42 3.42 0 0 1 .22-1.26 17.47 17.47 0 0 1 1.23-2.88ZM331.4 630.21l-37.58-.68M293.62 621.68s9.31-.38 10.52 8M329.21 626.75h-9.39a22.53 22.53 0 0 0-11 2.9l-.15.09" class="colorStroke303030 svgStroke"/><path fill="none" stroke="#303030" stroke-linecap="round" stroke-linejoin="round" stroke-width=".73" d="m303.41 618.7 13.08 6.42 1.82-2.49" class="colorStroke303030 svgStroke"/><path fill="#93f7cd" d="m235.71 620.77 4.52-40.86 12.84 6.19-5 31.98-12.36 2.69z" class="colorf7a093 svgShape"/><path fill="#77f3bf" d="M235.56 618.16s-.93 8.31.48 14.94l37 .67s2.42-7.07-5.93-9-19-8.5-19-8.5-7.55 6.3-12.55 1.89Z" class="colorf37977 svgShape"/><path fill="#ebf3f0" d="m236 633.1 37 .67a7.78 7.78 0 0 0 .17-3.72l-37.74-.67a17.66 17.66 0 0 0 .57 3.72Z" class="colorf3edeb svgShape"/><path fill="none" stroke="#303030" stroke-linecap="round" stroke-linejoin="round" stroke-width=".73" d="M247.16 619a5.13 5.13 0 0 1 1.24-1.66 5.29 5.29 0 0 1 2.8-.93 22.48 22.48 0 0 1 2.59-.14 5.67 5.67 0 0 1 3.21.73.93.93 0 0 1 .48.85.85.85 0 0 1-.53.52 4.2 4.2 0 0 1-2.41.07c-2-.34-3.88-.76-5.79-1.28a11.73 11.73 0 0 1 .31 3.18 6.33 6.33 0 0 1-.7 2.9 2.36 2.36 0 0 1-.86.94 1.28 1.28 0 0 1-1.23 0 1.35 1.35 0 0 1-.6-1.08 3.63 3.63 0 0 1 .22-1.26 18.34 18.34 0 0 1 1.27-2.84ZM273.24 630.05l-37.57-.68M235.48 621.52s9.3-.38 10.51 8M271.05 626.59h-9.38a22.53 22.53 0 0 0-11 2.9l-.15.09" class="colorStroke303030 svgStroke"/><path fill="none" stroke="#303030" stroke-linecap="round" stroke-linejoin="round" stroke-width=".73" d="m245.27 618.54 13.07 6.42 1.82-2.49" class="colorStroke303030 svgStroke"/><path fill="#6efec2" d="M285.83 344.92s24.36 6.87 26.51 9.29 13.47 27.2 13.47 27.2-4.58 6.33-17.24 9.16l-1.21 32.19-55.83.46-3.14-39.06-3.42 12s-12.83.29-21.1-8.55c0 0 9.76-36.64 22-39.63 8.54-2.1 20.86-4.11 20.86-4.11Z" class="colorfee86e svgShape"/><path fill="#4d9b7a" d="m250.8 414.41 5.39-1.08 1.48-40.4 45.38-.27 5.93 39 2.69 35.56V608.6l-19.93.54s-7.14-133.86-11.45-134.4-17.91 92.65-24.91 133c0 0-.81 4-20.2-.27 0 0 5.92-72.18 6.46-84s9.16-109.06 9.16-109.06Z" class="color899b4d svgShape"/><path fill="#93f7cd" d="m286.39 326.17.52 18.83 2.37.91s-7.88 9.74-24.85-1.71c2.48-.19 4.41-2.89 4.48-5.38l.54-18.6Z" class="colorf7a093 svgShape"/><path fill="#71f3bd" d="M286.75 338.86s-13.85-.17-17.3-14.48l17.12 6Z" class="colorf37a71 svgShape"/><path fill="#81f5c5" d="M292 312.74s2-2.13 3.36-1.06 1.85 5.62-2.41 6.73a11.14 11.14 0 0 1-.95-5.67Z" class="colorf58981 svgShape"/><path fill="#1e362c" d="M289 302.91s3 6 4.24 9.27c0 0-1.12-9.55-3.05-11.74s-1.19 2.47-1.19 2.47Z" class="color1e2236 svgShape"/><path fill="#50d79f" d="M284.5 323.88a.12.12 0 0 1-.14 0 .9.9 0 0 1-.3-1.05c.07-.25.32-.35.52-.42l.17-.07.17-.08a3.64 3.64 0 0 0 .86-.52 1 1 0 0 0 .32-1 1.92 1.92 0 0 0-.33-.45 9.56 9.56 0 0 1-2.49-5.28.16.16 0 0 1 .14-.18.16.16 0 0 1 .18.14 9.3 9.3 0 0 0 2.41 5.1 1.61 1.61 0 0 1 .39.56 1.26 1.26 0 0 1-.39 1.3 3.47 3.47 0 0 1-.95.58l-.17.08-.19.09c-.15.05-.3.1-.32.19-.09.36-.05.52.19.72a.17.17 0 0 1 0 .23s-.03.06-.07.06Z" class="colord75150 svgShape"/><path fill="#fff" d="M290.18 324.53s-7.52 2.34-12.56 2.45c0 0 4.33 3.69 8.08 3s4.48-5.45 4.48-5.45Z" class="colorffffff svgShape"/><path fill="#1e362c" d="M293.17 290.1c.76 1.15.27 2.71.63 4 .44 1.67 2.13 2.73 2.76 4.34 1 2.61-1.32 5.58-4.05 6.17-3.29.7-7-1-9.93.64-1.38.78-2.38 2.23-3.9 2.69s-3.32-.26-5-.7-3.75-.36-4.57 1.12a5.15 5.15 0 0 0-.15 3.21 18.33 18.33 0 0 1-1.78 10.68c-6.59-4.78-8-14.41-5.55-22.17.78-2.42 2.07-4.93 4.4-5.92 1.7-.72 3.81-.57 5.16-1.82a14.69 14.69 0 0 0 1.71-2.52 5.5 5.5 0 0 1 6.66-1.65c1.49.73 2.66 2.17 4.3 2.46s3.19-.64 4.74-1.24 3.66-.68 4.57.71Z" class="color1e2236 svgShape"/><path fill="#93f7cd" d="M269.14 321.08s-1.07-4.54-5.26-1.64c-1.66 1.15-.37 6.27 5 5.65-.03 0 1.66-.9.26-4.01Z" class="colorf7a093 svgShape"/><path fill="none" stroke="#02995a" stroke-linecap="round" stroke-linejoin="round" stroke-width=".52" d="M250.6 418s40.4 2.83 58.58-1.82M250 424s41.75 3.23 59.52-.94" class="colorStroke026999 svgStroke"/><path fill="none" stroke="#02995a" stroke-linecap="round" stroke-linejoin="round" stroke-width=".52" d="M248.17 444.24s10.91 1.61 16.57-19.19M311.2 443.83s-11.72-1.81-13.54-19M280.29 474.74l.81-49.42M287.29 425.32l-.94 34.07-5.66 4.71M263.52 376.97h36.16l.81 25.86-16.36 8.28-19.59-6.06-1.02-28.08z" class="colorStroke026999 svgStroke"/><path fill="#4d9b7a" d="m257.67 372.93-.9-27.41 5.17-.85.68 28.61-4.95-.35zM303.05 372.66l-3.37-23.67-4.54-1.51 3.13 25.55 4.78-.37z" class="color899b4d svgShape"/><path fill="#93f7cd" d="m356.74 381.74 9.83-8.64s5.34-9.32 4.38-10.4-11.23-4.86-11.23-4.86-1.58 6.38-3.67 13.54c0 .11-7.33 5.38-7.33 5.38Z" class="colorf7a093 svgShape"/><path fill="#93f7cd" d="M363 376a41.92 41.92 0 0 0 9.08-5.42c1.9-1.45 7.65-3.21 6.55-4.43s-7.74 2.05-8.14 1.71.57-4.26.57-4.26l-4.78 4.42Z" class="colorf7a093 svgShape"/><path fill="#93f7cd" d="M369.92 365.72s8.51-12.5 7.53-13.4-8.21 9.07-8.21 9.07 5.66-12.2 4.59-12.91-7.9 11.72-7.9 11.72 3-12.78 1.92-13.15-5.28 12-5.28 12 .51-10.58-.5-10.89-2.35 9.64-2.35 9.64l-1 6.57ZM254 447.75s3.63 2.42 4.59 3.95 1.19 6 1.19 6l-1.78 4.48s-2.31-.15-.67-4.48l-1.17-3.18s-6.12-2.84-7.5-4.5 5.34-2.27 5.34-2.27Z" class="colorf7a093 svgShape"/><path fill="#fff" d="m278.58 455.43 4.5.83.04 1.38-4.44 1.1-1.63-.92-.04-1.38 1.57-1.01z" class="colorffffff svgShape"/><path fill="#fff" d="M267.13 447.45h1.33v19.9h-1.33z" class="colorffffff svgShape" transform="rotate(-91.66 267.796 457.396)"/><path fill="#6efec2" d="m257.3 455.3.14 4.8a.76.76 0 0 0 .77.73.75.75 0 0 0 .72-.77l-.14-4.8a.76.76 0 0 0-.77-.73.75.75 0 0 0-.72.77Z" class="colorfee86e svgShape"/><path fill="#6efec2" d="m258.07 455.94.1 3.48-1 .47a5.35 5.35 0 0 1-2.2.53l-7.34.21-.16-5.3 7.35-.21a5.52 5.52 0 0 1 2.23.41Z" class="colorfee86e svgShape"/><path fill="#93f7cd" d="M248.81 443.37a87.8 87.8 0 0 1 8.4 6.81c1 .94-2.66 1.21-2.81 2.47s1.17 8.26 1.17 8.26l-10.87 2s-4.07-10.19-2.22-15.37l-6.29-10.7 8.63-2.39Z" class="colorf7a093 svgShape"/><path fill="#93f7cd" d="M254.84 463.92a1.39 1.39 0 0 0 1.07-1.64l-1.33-6.49a1.39 1.39 0 0 0-1.64-1.08 1.4 1.4 0 0 0-1.08 1.64l1.34 6.49a1.39 1.39 0 0 0 1.64 1.08ZM251.88 464a1.39 1.39 0 0 0 1.08-1.63l-1.33-6.49a1.39 1.39 0 0 0-1.64-1.08 1.38 1.38 0 0 0-1.08 1.64l1.33 6.49a1.39 1.39 0 0 0 1.64 1.07Z" class="colorf7a093 svgShape"/><path fill="#93f7cd" d="M249.14 464.13a1.39 1.39 0 0 0 1.08-1.63l-1.32-6.41a1.38 1.38 0 0 0-1.64-1.07 1.39 1.39 0 0 0-1.08 1.63l1.32 6.4a1.38 1.38 0 0 0 1.64 1.08Z" class="colorf7a093 svgShape"/><path fill="#93f7cd" d="M246.34 464a1.4 1.4 0 0 0 1.08-1.64l-1.08-5.22a1.38 1.38 0 0 0-1.64-1.08 1.4 1.4 0 0 0-1.08 1.64l1.08 5.22a1.39 1.39 0 0 0 1.64 1.08ZM511.39 170.87l11.35-1.87 9.55 3.28 7 6.13s-.86.71-3.28-.72-5.28-3-5.28-3l6.27 6.56s-1.56.85-4.13-1-4.56-3-4.56-3l4.42 5.13a5.61 5.61 0 0 1-3.71-1 36.54 36.54 0 0 0-5.68-2.77l4.25 3.62s-.57.43-3.27-.57a10.56 10.56 0 0 1-4-2.42s-7.69 2.14-11.12.14Z" class="colorf7a093 svgShape"/></svg>