<svg id="visual" viewBox="0 0 900 600" width="900" height="600" xmlns="http://www.w3.org/2000/svg" xmlns:xlink="http://www.w3.org/1999/xlink" version="1.1"><rect x="0" y="0" width="900" height="600" fill="#fff"></rect><path d="M563 600L536.5 585.7C510 571.3 457 542.7 447.7 514.2C438.3 485.7 472.7 457.3 493.3 428.8C514 400.3 521 371.7 545.7 343C570.3 314.3 612.7 285.7 612.7 257C612.7 228.3 570.3 199.7 556.3 171.2C542.3 142.7 556.7 114.3 580 85.8C603.3 57.3 635.7 28.7 651.8 14.3L668 0L900 0L900 14.3C900 28.7 900 57.3 900 85.8C900 114.3 900 142.7 900 171.2C900 199.7 900 228.3 900 257C900 285.7 900 314.3 900 343C900 371.7 900 400.3 900 428.8C900 457.3 900 485.7 900 514.2C900 542.7 900 571.3 900 585.7L900 600Z" fill="#005d72" stroke-linecap="round" stroke-linejoin="miter"></path></svg>