<svg xmlns="http://www.w3.org/2000/svg" xmlns:xlink="http://www.w3.org/1999/xlink" enable-background="new 0 0 3000 2500" viewBox="0 0 3000 2500"><rect width="2918.6" height="2432.2" x="40.7" y="33.9" fill="none"/><g class="color000000 svgShape" opacity=".17"><ellipse cx="1485.1" cy="2146.7" fill="#004c2c" class="color4c0000 svgShape" opacity="0" rx="345.5" ry="101.6"/><ellipse cx="1485.1" cy="2146.7" fill="#014a2b" class="color4a0101 svgShape" opacity=".038" rx="337.1" ry="99.1"/><ellipse cx="1485.1" cy="2146.7" fill="#02482b" class="color480202 svgShape" opacity=".077" rx="328.7" ry="96.7"/><ellipse cx="1485.1" cy="2146.7" fill="#03462a" class="color460303 svgShape" opacity=".115" rx="320.4" ry="94.2"/><ellipse cx="1485.1" cy="2146.7" fill="#044429" class="color440404 svgShape" opacity=".154" rx="312" ry="91.8"/><ellipse cx="1485.1" cy="2146.7" fill="#054228" class="color420505 svgShape" opacity=".192" rx="303.7" ry="89.3"/><ellipse cx="1485.1" cy="2146.7" fill="#064028" class="color400606 svgShape" opacity=".231" rx="295.3" ry="86.8"/><ellipse cx="1485.1" cy="2146.7" fill="#063e27" class="color3e0606 svgShape" opacity=".269" rx="286.9" ry="84.4"/><ellipse cx="1485.1" cy="2146.7" fill="#073c26" class="color3c0707 svgShape" opacity=".308" rx="278.6" ry="81.9"/><ellipse cx="1485.1" cy="2146.7" fill="#083a25" class="color3a0808 svgShape" opacity=".346" rx="270.2" ry="79.5"/><ellipse cx="1485.1" cy="2146.7" fill="#093824" class="color380909 svgShape" opacity=".385" rx="261.9" ry="77"/><ellipse cx="1485.1" cy="2146.7" fill="#0a3624" class="color360a0a svgShape" opacity=".423" rx="253.5" ry="74.6"/><ellipse cx="1485.1" cy="2146.7" fill="#0b3423" class="color340b0b svgShape" opacity=".462" rx="245.1" ry="72.1"/><ellipse cx="1485.1" cy="2146.7" fill="#0c3323" class="color330c0c svgShape" opacity=".5" rx="236.8" ry="69.6"/><ellipse cx="1485.1" cy="2146.7" fill="#0d3122" class="color310d0d svgShape" opacity=".538" rx="228.4" ry="67.2"/><ellipse cx="1485.1" cy="2146.7" fill="#0e2f21" class="color2f0e0e svgShape" opacity=".577" rx="220.1" ry="64.7"/><ellipse cx="1485.1" cy="2146.7" fill="#0f2d20" class="color2d0f0f svgShape" opacity=".615" rx="211.7" ry="62.3"/><ellipse cx="1485.1" cy="2146.7" fill="#102b20" class="color2b1010 svgShape" opacity=".654" rx="203.3" ry="59.8"/><ellipse cx="1485.1" cy="2146.7" fill="#11291f" class="color291111 svgShape" opacity=".692" rx="195" ry="57.3"/><ellipse cx="1485.1" cy="2146.7" fill="#12271e" class="color271212 svgShape" opacity=".731" rx="186.6" ry="54.9"/><ellipse cx="1485.1" cy="2146.7" fill="#12251d" class="color251212 svgShape" opacity=".769" rx="178.2" ry="52.4"/><ellipse cx="1485.1" cy="2146.7" fill="#13231c" class="color231313 svgShape" opacity=".808" rx="169.9" ry="50"/><ellipse cx="1485.1" cy="2146.7" fill="#14211c" class="color211414 svgShape" opacity=".846" rx="161.5" ry="47.5"/><ellipse cx="1485.1" cy="2146.7" fill="#151f1b" class="color1f1515 svgShape" opacity=".885" rx="153.2" ry="45"/><ellipse cx="1485.1" cy="2146.7" fill="#161d1a" class="color1d1616 svgShape" opacity=".923" rx="144.8" ry="42.6"/><ellipse cx="1485.1" cy="2146.7" fill="#171b19" class="color1b1717 svgShape" opacity=".962" rx="136.4" ry="40.1"/><ellipse cx="1485.1" cy="2146.7" fill="#181919" class="color191818 svgShape" rx="128.1" ry="37.7"/></g><linearGradient id="a" x1="1963.341" x2="1683.307" y1="1428.338" y2="892.504" gradientUnits="userSpaceOnUse"><stop class="stopColor444444 svgShape" offset="0" stop-color="#444"/><stop class="stopColor767676 svgShape" offset=".117" stop-color="#767676"/><stop class="stopColorffffff svgShape" offset=".36" stop-color="#fff"/><stop class="stopColor5c5c5c svgShape" offset=".718" stop-color="#5c5c5c"/><stop class="stopColor7f7f7f svgShape" offset="1" stop-color="#7f7f7f"/></linearGradient><path fill="url(#a)" d="M1183.9,1282.4l864.4,408.3c25,11.8,54.8,0.5,65.7-25l298.7-701.8c12.6-29.5-2-63.5-32.1-74.7l-872.2-326     c-35.4-13.2-75,3.7-89.8,38.6l-260.6,612.4C1146.8,1240.2,1158.3,1270.3,1183.9,1282.4z"/><linearGradient id="b" x1="1613.228" x2="1355.655" y1="1723.349" y2="1723.349" gradientUnits="userSpaceOnUse"><stop class="stopColor7f7f7f svgShape" offset="0" stop-color="#7f7f7f"/><stop class="stopColor444444 svgShape" offset="1" stop-color="#444"/></linearGradient><path fill="url(#b)" d="M1081.7,1311.1l-500.3,285.3c-21.4,12.2-21.2,43.1,0.3,55.1l870.9,486.1c24.5,13.7,54.7,12,77.5-4.4     l499.3-358.7c21-15.1,18.1-47.1-5.3-58.1l-864.2-408.2C1134.8,1296.3,1105.7,1297.4,1081.7,1311.1z"/><linearGradient id="c" x1="1613.228" x2="1355.655" y1="1721.092" y2="1721.092" gradientUnits="userSpaceOnUse"><stop class="stopColorfbfbfb svgShape" offset="0" stop-color="#fbfbfb"/><stop class="stopColore5e5e5 svgShape" offset="1" stop-color="#e5e5e5"/></linearGradient><path fill="url(#c)" d="M1081.7,1308.9l-500.3,285.3c-21.4,12.2-21.2,43.1,0.3,55.1l870.9,486.1c24.5,13.7,54.7,12,77.5-4.4     l499.3-358.7c21-15.1,18.1-47.1-5.3-58.1l-864.2-408.2C1134.8,1294.1,1105.7,1295.2,1081.7,1308.9z"/><linearGradient id="d" x1="1135.596" x2="2399.07" y1="1127.005" y2="1127.005" gradientUnits="userSpaceOnUse"><stop class="stopColor7f7f7f svgShape" offset="0" stop-color="#7f7f7f"/><stop class="stopColor444444 svgShape" offset="1" stop-color="#444"/></linearGradient><path fill="url(#d)" d="M1165.8,1282.4l864.4,408.3c25,11.8,54.8,0.5,65.7-25l298.7-701.8c12.6-29.5-2-63.5-32.1-74.7l-872.2-326     c-35.4-13.2-75,3.7-89.8,38.6l-260.6,612.4C1128.7,1240.2,1140.2,1270.3,1165.8,1282.4z"/><linearGradient id="e" x1="1941.837" x2="1573.624" y1="795.417" y2="1438.229" gradientUnits="userSpaceOnUse"><stop class="stopColor82fb7c svgShape" offset="0" stop-color="#52cc99"/><stop class="stopColor0ba2b3 svgShape" offset="1" stop-color="#0bb36d"/></linearGradient><path fill="url(#e)" d="M2051,1663c-2.4,0-4.8-0.5-7-1.6l-864.4-408.3c-10-4.7-14.4-16.3-10.1-26.4l260.6-612.4     c6-14.2,19.9-23.4,35.4-23.4c4.6,0,9.1,0.8,13.4,2.4l872.2,326c6.2,2.3,11,6.9,13.6,13c2.6,6.1,2.6,12.7,0,18.8L2066.1,1653     C2063.6,1659.1,2057.6,1663,2051,1663C2051,1663,2051,1663,2051,1663z"/><linearGradient id="f" x1="565.461" x2="2043.424" y1="1694.808" y2="1694.808" gradientUnits="userSpaceOnUse"><stop class="stopColorfbfbfb svgShape" offset="0" stop-color="#fbfbfb"/><stop class="stopColore5e5e5 svgShape" offset="1" stop-color="#e5e5e5"/></linearGradient><path fill="url(#f)" d="M1081.7,1282.6l-500.3,285.3c-21.4,12.2-21.2,43.1,0.3,55.1l870.9,486.1c24.5,13.7,54.7,12,77.5-4.4     l499.3-358.7c21-15.1,18.1-47.1-5.3-58.1l-864.2-408.2C1134.8,1267.8,1105.7,1268.9,1081.7,1282.6z"/><path fill="#fff" d="M2029.3,1744.4L1530,2103.1c-22.8,16.4-53,18.1-77.5,4.4l-870.9-486.1c-10.5-5.9-15.9-16.3-16.2-26.8     c-0.2,11,5.2,22.1,16.2,28.2l870.9,486.1c24.5,13.7,54.7,12,77.5-4.4l499.3-358.7c9.5-6.8,14.1-17.2,14.1-27.4     C2043,1728.2,2038.4,1737.9,2029.3,1744.4z" class="colorffffff svgShape"/><linearGradient id="g" x1="1449.172" x2="2399.071" y1="1126.722" y2="1126.722" gradientUnits="userSpaceOnUse"><stop class="stopColor7f7f7f svgShape" offset="0" stop-color="#7f7f7f"/><stop class="stopColorffffff svgShape" offset="1" stop-color="#fff"/></linearGradient><path fill="url(#g)" d="M2362.5,889.1l-872.2-326c-13.6-5.1-27.9-5.7-41.1-2.5c12.1-2.2,24.9-1.3,37.3,3.3l872.2,326     c30,11.2,44.6,45.2,32.1,74.7l-298.7,701.8c-6.3,14.9-19.2,24.9-33.7,28.3c16.1-2.5,30.6-12.9,37.5-29.1l298.7-701.8     C2407.1,934.3,2392.5,900.3,2362.5,889.1z" opacity=".54"/><linearGradient id="h" x1="1440.403" x2="1749.382" y1="1161.873" y2="1670.781" gradientUnits="userSpaceOnUse"><stop class="stopColor7f7f7f svgShape" offset="0" stop-color="#7f7f7f"/><stop class="stopColor444444 svgShape" offset="1" stop-color="#444"/></linearGradient><polygon fill="url(#h)" points="1735.3 1664.8 1775.1 1638.6 1723.7 1612.9 1684.6 1638.7"/><linearGradient id="i" x1="1160.995" x2="1469.975" y1="1331.514" y2="1840.421" gradientUnits="userSpaceOnUse"><stop class="stopColor7f7f7f svgShape" offset="0" stop-color="#7f7f7f"/><stop class="stopColor444444 svgShape" offset="1" stop-color="#444"/></linearGradient><polygon fill="url(#i)" points="1369.6 1602 1319.3 1575.6 1280.4 1601.2 1330 1628.1"/><linearGradient id="j" x1="1192.502" x2="1501.481" y1="1312.385" y2="1821.293" gradientUnits="userSpaceOnUse"><stop class="stopColor7f7f7f svgShape" offset="0" stop-color="#7f7f7f"/><stop class="stopColor444444 svgShape" offset="1" stop-color="#444"/></linearGradient><polygon fill="url(#j)" points="1433.7 1635.7 1383.4 1609.2 1343.7 1635.4 1393.3 1662.3"/><linearGradient id="k" x1="1194.536" x2="1503.516" y1="1311.149" y2="1820.057" gradientUnits="userSpaceOnUse"><stop class="stopColor7f7f7f svgShape" offset="0" stop-color="#7f7f7f"/><stop class="stopColor444444 svgShape" offset="1" stop-color="#444"/></linearGradient><polygon fill="url(#k)" points="1248.8 1470 1299.2 1496.4 1334.9 1472.9 1284.2 1446.7"/><linearGradient id="l" x1="1162.344" x2="1471.324" y1="1330.695" y2="1839.602" gradientUnits="userSpaceOnUse"><stop class="stopColor7f7f7f svgShape" offset="0" stop-color="#7f7f7f"/><stop class="stopColor444444 svgShape" offset="1" stop-color="#444"/></linearGradient><polygon fill="url(#l)" points="1184.6 1436.4 1235 1462.7 1270.3 1439.4 1219.6 1413.2"/><linearGradient id="m" x1="1066.472" x2="1375.452" y1="1388.903" y2="1897.81" gradientUnits="userSpaceOnUse"><stop class="stopColor7f7f7f svgShape" offset="0" stop-color="#7f7f7f"/><stop class="stopColor444444 svgShape" offset="1" stop-color="#444"/></linearGradient><polygon fill="url(#m)" points="1177.1 1500.9 1126.8 1474.5 1090.4 1498.5 1140 1525.3"/><linearGradient id="n" x1="1129.488" x2="1438.467" y1="1350.643" y2="1859.551" gradientUnits="userSpaceOnUse"><stop class="stopColor7f7f7f svgShape" offset="0" stop-color="#7f7f7f"/><stop class="stopColor444444 svgShape" offset="1" stop-color="#444"/></linearGradient><polygon fill="url(#n)" points="1305.4 1568.3 1255.1 1541.9 1217 1567 1266.7 1593.8"/><linearGradient id="o" x1="1370.476" x2="1679.456" y1="1204.329" y2="1713.237" gradientUnits="userSpaceOnUse"><stop class="stopColor7f7f7f svgShape" offset="0" stop-color="#7f7f7f"/><stop class="stopColor444444 svgShape" offset="1" stop-color="#444"/></linearGradient><polygon fill="url(#o)" points="1736 1740.4 1685.7 1713.9 1652.9 1735.5 1703.3 1761.9"/><linearGradient id="p" x1="1224.01" x2="1532.99" y1="1293.255" y2="1802.163" gradientUnits="userSpaceOnUse"><stop class="stopColor7f7f7f svgShape" offset="0" stop-color="#7f7f7f"/><stop class="stopColor444444 svgShape" offset="1" stop-color="#444"/></linearGradient><polygon fill="url(#p)" points="1497.9 1669.4 1447.6 1642.9 1407 1669.7 1456.7 1696.5"/><linearGradient id="q" x1="1473.325" x2="1782.304" y1="1141.885" y2="1650.793" gradientUnits="userSpaceOnUse"><stop class="stopColor7f7f7f svgShape" offset="0" stop-color="#7f7f7f"/><stop class="stopColor444444 svgShape" offset="1" stop-color="#444"/></linearGradient><polygon fill="url(#q)" points="1800 1698.1 1840.7 1671.3 1789.3 1645.6 1749.3 1672"/><linearGradient id="r" x1="1419.893" x2="1728.873" y1="1174.326" y2="1683.234" gradientUnits="userSpaceOnUse"><stop class="stopColor7f7f7f svgShape" offset="0" stop-color="#7f7f7f"/><stop class="stopColor444444 svgShape" offset="1" stop-color="#444"/></linearGradient><polygon fill="url(#r)" points="1786.9 1706.8 1736.3 1680.6 1698.6 1705.5 1748.9 1731.8"/><linearGradient id="s" x1="1338.502" x2="1647.481" y1="1223.742" y2="1732.65" gradientUnits="userSpaceOnUse"><stop class="stopColor7f7f7f svgShape" offset="0" stop-color="#7f7f7f"/><stop class="stopColor444444 svgShape" offset="1" stop-color="#444"/></linearGradient><polygon fill="url(#s)" points="1671.8 1706.7 1621.6 1680.2 1588.7 1701.9 1639.1 1728.3"/><linearGradient id="t" x1="1255.516" x2="1564.496" y1="1274.126" y2="1783.034" gradientUnits="userSpaceOnUse"><stop class="stopColor7f7f7f svgShape" offset="0" stop-color="#7f7f7f"/><stop class="stopColor444444 svgShape" offset="1" stop-color="#444"/></linearGradient><polygon fill="url(#t)" points="1562 1703 1511.8 1676.6 1470.4 1703.9 1520 1730.8"/><linearGradient id="u" x1="1287.024" x2="1596.003" y1="1254.996" y2="1763.904" gradientUnits="userSpaceOnUse"><stop class="stopColor7f7f7f svgShape" offset="0" stop-color="#7f7f7f"/><stop class="stopColor444444 svgShape" offset="1" stop-color="#444"/></linearGradient><polygon fill="url(#u)" points="1626.2 1736.7 1575.9 1710.3 1533.7 1738.2 1583.3 1765"/><linearGradient id="v" x1="1097.981" x2="1406.961" y1="1369.772" y2="1878.68" gradientUnits="userSpaceOnUse"><stop class="stopColor7f7f7f svgShape" offset="0" stop-color="#7f7f7f"/><stop class="stopColor444444 svgShape" offset="1" stop-color="#444"/></linearGradient><polygon fill="url(#v)" points="1241.3 1534.6 1191 1508.2 1153.7 1532.7 1203.3 1559.6"/><linearGradient id="w" x1="1387.699" x2="1696.679" y1="1193.872" y2="1702.78" gradientUnits="userSpaceOnUse"><stop class="stopColor7f7f7f svgShape" offset="0" stop-color="#7f7f7f"/><stop class="stopColor444444 svgShape" offset="1" stop-color="#444"/></linearGradient><polygon fill="url(#w)" points="1722.4 1673.3 1671.7 1647.1 1634.3 1671.8 1684.7 1698.2"/><linearGradient id="x" x1="1355.505" x2="1664.485" y1="1213.418" y2="1722.326" gradientUnits="userSpaceOnUse"><stop class="stopColor7f7f7f svgShape" offset="0" stop-color="#7f7f7f"/><stop class="stopColor444444 svgShape" offset="1" stop-color="#444"/></linearGradient><polygon fill="url(#x)" points="1570.1 1638.2 1620.4 1664.5 1657.8 1639.9 1607.1 1613.7"/><linearGradient id="y" x1="1178.619" x2="1487.598" y1="1320.814" y2="1829.722" gradientUnits="userSpaceOnUse"><stop class="stopColor7f7f7f svgShape" offset="0" stop-color="#7f7f7f"/><stop class="stopColor444444 svgShape" offset="1" stop-color="#444"/></linearGradient><polygon fill="url(#y)" points="1351.2 1538.1 1300.9 1511.7 1267.3 1533.8 1317.7 1560.2"/><linearGradient id="z" x1="1114.665" x2="1423.645" y1="1359.643" y2="1868.551" gradientUnits="userSpaceOnUse"><stop class="stopColor7f7f7f svgShape" offset="0" stop-color="#7f7f7f"/><stop class="stopColor444444 svgShape" offset="1" stop-color="#444"/></linearGradient><polygon fill="url(#z)" points="1138.7 1466.6 1189.1 1492.9 1222.9 1470.7 1172.6 1444.2"/><linearGradient id="A" x1="1510.547" x2="1819.527" y1="1119.286" y2="1628.194" gradientUnits="userSpaceOnUse"><stop class="stopColor7f7f7f svgShape" offset="0" stop-color="#7f7f7f"/><stop class="stopColor444444 svgShape" offset="1" stop-color="#444"/></linearGradient><path fill="url(#A)" d="M1918.8,1710.4l-64-32l-40.9,26.9l88.6,45.6l17.9-11.8C1931.2,1732.2,1930.3,1716.1,1918.8,1710.4z"/><linearGradient id="B" x1="1082.689" x2="1391.669" y1="1379.057" y2="1887.965" gradientUnits="userSpaceOnUse"><stop class="stopColor7f7f7f svgShape" offset="0" stop-color="#7f7f7f"/><stop class="stopColor444444 svgShape" offset="1" stop-color="#444"/></linearGradient><polygon fill="url(#B)" points="1074.5 1433 1124.9 1459.3 1158.8 1436.9 1108.5 1410.5"/><linearGradient id="C" x1="1258.924" x2="1567.904" y1="1272.057" y2="1780.965" gradientUnits="userSpaceOnUse"><stop class="stopColor7f7f7f svgShape" offset="0" stop-color="#7f7f7f"/><stop class="stopColor444444 svgShape" offset="1" stop-color="#444"/></linearGradient><polygon fill="url(#C)" points="1377.3 1537.3 1427.7 1563.6 1464 1539.7 1413.4 1513.5"/><linearGradient id="D" x1="1146.642" x2="1455.622" y1="1340.228" y2="1849.136" gradientUnits="userSpaceOnUse"><stop class="stopColor7f7f7f svgShape" offset="0" stop-color="#7f7f7f"/><stop class="stopColor444444 svgShape" offset="1" stop-color="#444"/></linearGradient><polygon fill="url(#D)" points="1287.1 1504.4 1236.8 1477.9 1203 1500.2 1253.4 1526.6"/><linearGradient id="E" x1="1323.312" x2="1632.292" y1="1232.965" y2="1741.872" gradientUnits="userSpaceOnUse"><stop class="stopColor7f7f7f svgShape" offset="0" stop-color="#7f7f7f"/><stop class="stopColor444444 svgShape" offset="1" stop-color="#444"/></linearGradient><polygon fill="url(#E)" points="1505.8 1604.5 1556.2 1630.9 1593.2 1606.5 1542.6 1580.3"/><linearGradient id="F" x1="1210.596" x2="1519.575" y1="1301.399" y2="1810.307" gradientUnits="userSpaceOnUse"><stop class="stopColor7f7f7f svgShape" offset="0" stop-color="#7f7f7f"/><stop class="stopColor444444 svgShape" offset="1" stop-color="#444"/></linearGradient><polygon fill="url(#F)" points="1415.3 1571.8 1365 1545.4 1331.6 1567.4 1382 1593.8"/><linearGradient id="G" x1="1306.524" x2="1615.504" y1="1243.157" y2="1752.065" gradientUnits="userSpaceOnUse"><stop class="stopColor7f7f7f svgShape" offset="0" stop-color="#7f7f7f"/><stop class="stopColor444444 svgShape" offset="1" stop-color="#444"/></linearGradient><polygon fill="url(#G)" points="1607.7 1672.9 1557.4 1646.5 1524.4 1668.3 1574.8 1694.7"/><linearGradient id="H" x1="1291.117" x2="1600.097" y1="1252.511" y2="1761.419" gradientUnits="userSpaceOnUse"><stop class="stopColor7f7f7f svgShape" offset="0" stop-color="#7f7f7f"/><stop class="stopColor444444 svgShape" offset="1" stop-color="#444"/></linearGradient><polygon fill="url(#H)" points="1441.6 1570.9 1491.9 1597.3 1528.6 1573.1 1478 1546.9"/><linearGradient id="I" x1="1274.549" x2="1583.529" y1="1262.57" y2="1771.478" gradientUnits="userSpaceOnUse"><stop class="stopColor7f7f7f svgShape" offset="0" stop-color="#7f7f7f"/><stop class="stopColor444444 svgShape" offset="1" stop-color="#444"/></linearGradient><polygon fill="url(#I)" points="1543.6 1639.2 1493.3 1612.8 1460.1 1634.7 1510.5 1661"/><linearGradient id="J" x1="1242.571" x2="1551.551" y1="1281.986" y2="1790.893" gradientUnits="userSpaceOnUse"><stop class="stopColor7f7f7f svgShape" offset="0" stop-color="#7f7f7f"/><stop class="stopColor444444 svgShape" offset="1" stop-color="#444"/></linearGradient><polygon fill="url(#J)" points="1479.4 1605.5 1429.2 1579.1 1395.8 1601.1 1446.2 1627.4"/><linearGradient id="K" x1="1226.731" x2="1535.711" y1="1291.603" y2="1800.511" gradientUnits="userSpaceOnUse"><stop class="stopColor7f7f7f svgShape" offset="0" stop-color="#7f7f7f"/><stop class="stopColor444444 svgShape" offset="1" stop-color="#444"/></linearGradient><polygon fill="url(#K)" points="1313.1 1503.6 1363.5 1530 1399.4 1506.3 1348.8 1480.1"/><linearGradient id="L" x1="1196.726" x2="1505.706" y1="1309.82" y2="1818.728" gradientUnits="userSpaceOnUse"><stop class="stopColor7f7f7f svgShape" offset="0" stop-color="#7f7f7f"/><stop class="stopColor444444 svgShape" offset="1" stop-color="#444"/></linearGradient><polygon fill="url(#L)" points="1457.9 1712.1 1410 1743.7 1460.1 1770.3 1507.5 1739"/><linearGradient id="M" x1="1228.015" x2="1536.994" y1="1290.823" y2="1799.731" gradientUnits="userSpaceOnUse"><stop class="stopColor7f7f7f svgShape" offset="0" stop-color="#7f7f7f"/><stop class="stopColor444444 svgShape" offset="1" stop-color="#444"/></linearGradient><polygon fill="url(#M)" points="1521.1 1746.5 1473.9 1777.6 1523.9 1804.2 1570.7 1773.4"/><linearGradient id="N" x1="1165.441" x2="1474.421" y1="1328.815" y2="1837.722" gradientUnits="userSpaceOnUse"><stop class="stopColor7f7f7f svgShape" offset="0" stop-color="#7f7f7f"/><stop class="stopColor444444 svgShape" offset="1" stop-color="#444"/></linearGradient><polygon fill="url(#N)" points="1394.7 1677.8 1346.2 1709.8 1396.2 1736.4 1444.2 1704.7"/><linearGradient id="O" x1="1259.303" x2="1568.283" y1="1271.827" y2="1780.735" gradientUnits="userSpaceOnUse"><stop class="stopColor7f7f7f svgShape" offset="0" stop-color="#7f7f7f"/><stop class="stopColor444444 svgShape" offset="1" stop-color="#444"/></linearGradient><polygon fill="url(#O)" points="1584.3 1780.8 1537.7 1811.5 1587.8 1838.1 1633.9 1807.7"/><linearGradient id="P" x1="1086.738" x2="1395.717" y1="1376.599" y2="1885.506" gradientUnits="userSpaceOnUse"><stop class="stopColor7f7f7f svgShape" offset="0" stop-color="#7f7f7f"/><stop class="stopColor444444 svgShape" offset="1" stop-color="#444"/></linearGradient><polygon fill="url(#P)" points="1381 1670.4 1141.8 1540.6 1090.8 1574.2 1330.5 1703.7 1332.4 1702.5 1332.4 1702.5"/><linearGradient id="Q" x1="949.253" x2="1258.232" y1="1460.072" y2="1968.98" gradientUnits="userSpaceOnUse"><stop class="stopColor7f7f7f svgShape" offset="0" stop-color="#7f7f7f"/><stop class="stopColor444444 svgShape" offset="1" stop-color="#444"/></linearGradient><path fill="url(#Q)" d="M943.6,1432.9l-29.3,17.4c-11.7,7-11.3,24.1,0.7,30.5l34.3,18.2l52.4-34.6L943.6,1432.9z"/><linearGradient id="R" x1="1144.098" x2="1453.078" y1="1341.773" y2="1850.681" gradientUnits="userSpaceOnUse"><stop class="stopColor7f7f7f svgShape" offset="0" stop-color="#7f7f7f"/><stop class="stopColor444444 svgShape" offset="1" stop-color="#444"/></linearGradient><path fill="url(#R)" d="M1185.1,1343.6l-33.3-16.7c-10.1-5.1-22.1-4.6-31.8,1.2l-17.8,10.6l50.8,26.2L1185.1,1343.6z"/><linearGradient id="S" x1="1299.51" x2="1608.489" y1="1247.416" y2="1756.323" gradientUnits="userSpaceOnUse"><stop class="stopColor7f7f7f svgShape" offset="0" stop-color="#7f7f7f"/><stop class="stopColor444444 svgShape" offset="1" stop-color="#444"/></linearGradient><path fill="url(#S)" d="M1601.6,1845.4l65.8,35c12.9,6.8,28.4,6.1,40.6-1.9l25.5-16.7l-86-46.7L1601.6,1845.4z"/><linearGradient id="T" x1="1461.539" x2="1770.518" y1="1149.041" y2="1657.949" gradientUnits="userSpaceOnUse"><stop class="stopColor7f7f7f svgShape" offset="0" stop-color="#7f7f7f"/><stop class="stopColor444444 svgShape" offset="1" stop-color="#444"/></linearGradient><polygon fill="url(#T)" points="1762.8 1739.1 1850.6 1785 1889.3 1759.7 1800.9 1714"/><linearGradient id="U" x1="1318.53" x2="1627.51" y1="1235.868" y2="1744.775" gradientUnits="userSpaceOnUse"><stop class="stopColor7f7f7f svgShape" offset="0" stop-color="#7f7f7f"/><stop class="stopColor444444 svgShape" offset="1" stop-color="#444"/></linearGradient><polygon fill="url(#U)" points="1690.4 1770.4 1640.1 1744 1597 1772.4 1646.7 1799.3"/><linearGradient id="V" x1="1359.282" x2="1668.262" y1="1211.125" y2="1720.033" gradientUnits="userSpaceOnUse"><stop class="stopColor7f7f7f svgShape" offset="0" stop-color="#7f7f7f"/><stop class="stopColor444444 svgShape" offset="1" stop-color="#444"/></linearGradient><polygon fill="url(#V)" points="1660.3 1806.7 1746.5 1853.2 1791.7 1823.6 1704.2 1777.7"/><linearGradient id="W" x1="1411.728" x2="1720.707" y1="1179.283" y2="1688.191" gradientUnits="userSpaceOnUse"><stop class="stopColor7f7f7f svgShape" offset="0" stop-color="#7f7f7f"/><stop class="stopColor444444 svgShape" offset="1" stop-color="#444"/></linearGradient><polygon fill="url(#W)" points="1717.2 1769.1 1804.9 1815 1837.4 1793.7 1749.8 1747.7"/><linearGradient id="X" x1="977.712" x2="1286.692" y1="1442.793" y2="1951.701" gradientUnits="userSpaceOnUse"><stop class="stopColor7f7f7f svgShape" offset="0" stop-color="#7f7f7f"/><stop class="stopColor444444 svgShape" offset="1" stop-color="#444"/></linearGradient><polygon fill="url(#X)" points="1015.4 1471.9 963.1 1506.4 1013.2 1533 1064.9 1498.8"/><linearGradient id="Y" x1="1177.029" x2="1486.008" y1="1321.779" y2="1830.687" gradientUnits="userSpaceOnUse"><stop class="stopColor7f7f7f svgShape" offset="0" stop-color="#7f7f7f"/><stop class="stopColor444444 svgShape" offset="1" stop-color="#444"/></linearGradient><polygon fill="url(#Y)" points="1217.7 1398.1 1250.7 1376.3 1199.3 1350.7 1167 1372"/><linearGradient id="Z" x1="1242.872" x2="1551.852" y1="1281.803" y2="1790.711" gradientUnits="userSpaceOnUse"><stop class="stopColor7f7f7f svgShape" offset="0" stop-color="#7f7f7f"/><stop class="stopColor444444 svgShape" offset="1" stop-color="#444"/></linearGradient><polygon fill="url(#Z)" points="1347.1 1464.8 1381.8 1441.9 1330.4 1416.2 1296.4 1438.7"/><linearGradient id="aa" x1="1209.951" x2="1518.93" y1="1301.791" y2="1810.699" gradientUnits="userSpaceOnUse"><stop class="stopColor7f7f7f svgShape" offset="0" stop-color="#7f7f7f"/><stop class="stopColor444444 svgShape" offset="1" stop-color="#444"/></linearGradient><polygon fill="url(#aa)" points="1282.4 1431.5 1316.3 1409.1 1264.9 1383.4 1231.7 1405.3"/><linearGradient id="ab" x1="1009" x2="1317.98" y1="1423.796" y2="1932.704" gradientUnits="userSpaceOnUse"><stop class="stopColor7f7f7f svgShape" offset="0" stop-color="#7f7f7f"/><stop class="stopColor444444 svgShape" offset="1" stop-color="#444"/></linearGradient><polygon fill="url(#ab)" points="1078.6 1506.2 1027 1540.3 1077 1566.9 1128.2 1533.1"/><linearGradient id="ac" x1="1374.559" x2="1683.539" y1="1201.85" y2="1710.758" gradientUnits="userSpaceOnUse"><stop class="stopColor7f7f7f svgShape" offset="0" stop-color="#7f7f7f"/><stop class="stopColor444444 svgShape" offset="1" stop-color="#444"/></linearGradient><polygon fill="url(#ac)" points="1605.9 1598.1 1644 1573 1592.6 1547.3 1555.2 1572"/><linearGradient id="ad" x1="1308.717" x2="1617.697" y1="1241.826" y2="1750.733" gradientUnits="userSpaceOnUse"><stop class="stopColor7f7f7f svgShape" offset="0" stop-color="#7f7f7f"/><stop class="stopColor444444 svgShape" offset="1" stop-color="#444"/></linearGradient><polygon fill="url(#ad)" points="1476.5 1531.5 1512.9 1507.5 1461.5 1481.8 1425.8 1505.3"/><linearGradient id="ae" x1="1341.637" x2="1650.617" y1="1221.838" y2="1730.746" gradientUnits="userSpaceOnUse"><stop class="stopColor7f7f7f svgShape" offset="0" stop-color="#7f7f7f"/><stop class="stopColor444444 svgShape" offset="1" stop-color="#444"/></linearGradient><polygon fill="url(#ae)" points="1541.2 1564.8 1578.5 1540.2 1527.1 1514.5 1490.5 1538.7"/><linearGradient id="af" x1="1275.794" x2="1584.774" y1="1261.815" y2="1770.722" gradientUnits="userSpaceOnUse"><stop class="stopColor7f7f7f svgShape" offset="0" stop-color="#7f7f7f"/><stop class="stopColor444444 svgShape" offset="1" stop-color="#444"/></linearGradient><polygon fill="url(#af)" points="1411.8 1498.1 1447.4 1474.7 1396 1449 1361.1 1472"/><linearGradient id="ag" x1="1001.506" x2="1310.486" y1="1428.347" y2="1937.255" gradientUnits="userSpaceOnUse"><stop class="stopColor7f7f7f svgShape" offset="0" stop-color="#7f7f7f"/><stop class="stopColor444444 svgShape" offset="1" stop-color="#444"/></linearGradient><polygon fill="url(#ag)" points="1048.8 1433.5 992.4 1403.9 955.7 1425.7 1013.4 1456.8"/><linearGradient id="ah" x1="1034.966" x2="1343.946" y1="1408.032" y2="1916.939" gradientUnits="userSpaceOnUse"><stop class="stopColor7f7f7f svgShape" offset="0" stop-color="#7f7f7f"/><stop class="stopColor444444 svgShape" offset="1" stop-color="#444"/></linearGradient><polygon fill="url(#ah)" points="1027 1464.2 1076.7 1491.1 1112.9 1467.2 1062.6 1440.8"/><linearGradient id="ai" x1="1407.482" x2="1716.462" y1="1181.861" y2="1690.769" gradientUnits="userSpaceOnUse"><stop class="stopColor7f7f7f svgShape" offset="0" stop-color="#7f7f7f"/><stop class="stopColor444444 svgShape" offset="1" stop-color="#444"/></linearGradient><polygon fill="url(#ai)" points="1670.6 1631.5 1709.6 1605.8 1658.2 1580.1 1619.9 1605.3"/><linearGradient id="aj" x1="1097.28" x2="1406.26" y1="1370.198" y2="1879.106" gradientUnits="userSpaceOnUse"><stop class="stopColor7f7f7f svgShape" offset="0" stop-color="#7f7f7f"/><stop class="stopColor444444 svgShape" offset="1" stop-color="#444"/></linearGradient><polygon fill="url(#aj)" points="1141.1 1372.6 1089.8 1346 1053.4 1367.7 1106.5 1395.5"/><linearGradient id="ak" x1="1130.151" x2="1439.131" y1="1350.241" y2="1859.149" gradientUnits="userSpaceOnUse"><stop class="stopColor7f7f7f svgShape" offset="0" stop-color="#7f7f7f"/><stop class="stopColor444444 svgShape" offset="1" stop-color="#444"/></linearGradient><polygon fill="url(#ak)" points="1120.3 1402.7 1170.7 1429.1 1205.7 1406 1155.1 1379.8"/><linearGradient id="al" x1="1049.372" x2="1358.352" y1="1399.285" y2="1908.193" gradientUnits="userSpaceOnUse"><stop class="stopColor7f7f7f svgShape" offset="0" stop-color="#7f7f7f"/><stop class="stopColor444444 svgShape" offset="1" stop-color="#444"/></linearGradient><polygon fill="url(#al)" points="1094.7 1403.2 1041 1375 1004.8 1396.5 1060.6 1425.7"/><g class="color000000 svgShape" opacity=".17"><ellipse cx="1387.3" cy="1359" fill="#004c2c" class="color4c0000 svgShape" opacity="0" rx="294.9" ry="86.7"/><ellipse cx="1387.3" cy="1359" fill="#014a2b" class="color4a0101 svgShape" opacity=".038" rx="287.7" ry="84.6"/><ellipse cx="1387.3" cy="1359" fill="#02482b" class="color480202 svgShape" opacity=".077" rx="280.6" ry="82.5"/><ellipse cx="1387.3" cy="1359" fill="#03462a" class="color460303 svgShape" opacity=".115" rx="273.4" ry="80.4"/><ellipse cx="1387.3" cy="1359" fill="#044429" class="color440404 svgShape" opacity=".154" rx="266.3" ry="78.3"/><ellipse cx="1387.3" cy="1359" fill="#054228" class="color420505 svgShape" opacity=".192" rx="259.2" ry="76.2"/><ellipse cx="1387.3" cy="1359" fill="#064028" class="color400606 svgShape" opacity=".231" rx="252" ry="74.1"/><ellipse cx="1387.3" cy="1359" fill="#063e27" class="color3e0606 svgShape" opacity=".269" rx="244.9" ry="72"/><ellipse cx="1387.3" cy="1359" fill="#073c26" class="color3c0707 svgShape" opacity=".308" rx="237.8" ry="69.9"/><ellipse cx="1387.3" cy="1359" fill="#083a25" class="color3a0808 svgShape" opacity=".346" rx="230.6" ry="67.8"/><ellipse cx="1387.3" cy="1359" fill="#093824" class="color380909 svgShape" opacity=".385" rx="223.5" ry="65.7"/><ellipse cx="1387.3" cy="1359" fill="#0a3624" class="color360a0a svgShape" opacity=".423" rx="216.4" ry="63.6"/><ellipse cx="1387.3" cy="1359" fill="#0b3423" class="color340b0b svgShape" opacity=".462" rx="209.2" ry="61.5"/><ellipse cx="1387.3" cy="1359" fill="#0c3323" class="color330c0c svgShape" opacity=".5" rx="202.1" ry="59.4"/><ellipse cx="1387.3" cy="1359" fill="#0d3122" class="color310d0d svgShape" opacity=".538" rx="194.9" ry="57.3"/><ellipse cx="1387.3" cy="1359" fill="#0e2f21" class="color2f0e0e svgShape" opacity=".577" rx="187.8" ry="55.2"/><ellipse cx="1387.3" cy="1359" fill="#0f2d20" class="color2d0f0f svgShape" opacity=".615" rx="180.7" ry="53.1"/><ellipse cx="1387.3" cy="1359" fill="#102b20" class="color2b1010 svgShape" opacity=".654" rx="173.5" ry="51"/><ellipse cx="1387.3" cy="1359" fill="#11291f" class="color291111 svgShape" opacity=".692" rx="166.4" ry="48.9"/><ellipse cx="1387.3" cy="1359" fill="#12271e" class="color271212 svgShape" opacity=".731" rx="159.3" ry="46.8"/><ellipse cx="1387.3" cy="1359" fill="#12251d" class="color251212 svgShape" opacity=".769" rx="152.1" ry="44.7"/><ellipse cx="1387.3" cy="1359" fill="#13231c" class="color231313 svgShape" opacity=".808" rx="145" ry="42.6"/><ellipse cx="1387.3" cy="1359" fill="#14211c" class="color211414 svgShape" opacity=".846" rx="137.9" ry="40.5"/><ellipse cx="1387.3" cy="1359" fill="#151f1b" class="color1f1515 svgShape" opacity=".885" rx="130.7" ry="38.4"/><ellipse cx="1387.3" cy="1359" fill="#161d1a" class="color1d1616 svgShape" opacity=".923" rx="123.6" ry="36.3"/><ellipse cx="1387.3" cy="1359" fill="#171b19" class="color1b1717 svgShape" opacity=".962" rx="116.5" ry="34.2"/><ellipse cx="1387.3" cy="1359" fill="#181919" class="color191818 svgShape" rx="109.3" ry="32.1"/></g><g class="color000000 svgShape" opacity=".17"><ellipse cx="857" cy="1373.4" fill="#004c2c" class="color4c0000 svgShape" opacity="0" rx="244.6" ry="71.9"/><ellipse cx="857" cy="1373.4" fill="#014a2b" class="color4a0101 svgShape" opacity=".038" rx="238.7" ry="70.2"/><ellipse cx="857" cy="1373.4" fill="#02482b" class="color480202 svgShape" opacity=".077" rx="232.8" ry="68.5"/><ellipse cx="857" cy="1373.4" fill="#03462a" class="color460303 svgShape" opacity=".115" rx="226.8" ry="66.7"/><ellipse cx="857" cy="1373.4" fill="#044429" class="color440404 svgShape" opacity=".154" rx="220.9" ry="65"/><ellipse cx="857" cy="1373.4" fill="#054228" class="color420505 svgShape" opacity=".192" rx="215" ry="63.2"/><ellipse cx="857" cy="1373.4" fill="#064028" class="color400606 svgShape" opacity=".231" rx="209.1" ry="61.5"/><ellipse cx="857" cy="1373.4" fill="#063e27" class="color3e0606 svgShape" opacity=".269" rx="203.2" ry="59.8"/><ellipse cx="857" cy="1373.4" fill="#073c26" class="color3c0707 svgShape" opacity=".308" rx="197.2" ry="58"/><ellipse cx="857" cy="1373.4" fill="#083a25" class="color3a0808 svgShape" opacity=".346" rx="191.3" ry="56.3"/><ellipse cx="857" cy="1373.4" fill="#093824" class="color380909 svgShape" opacity=".385" rx="185.4" ry="54.5"/><ellipse cx="857" cy="1373.4" fill="#0a3624" class="color360a0a svgShape" opacity=".423" rx="179.5" ry="52.8"/><ellipse cx="857" cy="1373.4" fill="#0b3423" class="color340b0b svgShape" opacity=".462" rx="173.6" ry="51"/><ellipse cx="857" cy="1373.4" fill="#0c3323" class="color330c0c svgShape" opacity=".5" rx="167.6" ry="49.3"/><ellipse cx="857" cy="1373.4" fill="#0d3122" class="color310d0d svgShape" opacity=".538" rx="161.7" ry="47.6"/><ellipse cx="857" cy="1373.4" fill="#0e2f21" class="color2f0e0e svgShape" opacity=".577" rx="155.8" ry="45.8"/><ellipse cx="857" cy="1373.4" fill="#0f2d20" class="color2d0f0f svgShape" opacity=".615" rx="149.9" ry="44.1"/><ellipse cx="857" cy="1373.4" fill="#102b20" class="color2b1010 svgShape" opacity=".654" rx="144" ry="42.3"/><ellipse cx="857" cy="1373.4" fill="#11291f" class="color291111 svgShape" opacity=".692" rx="138" ry="40.6"/><ellipse cx="857" cy="1373.4" fill="#12271e" class="color271212 svgShape" opacity=".731" rx="132.1" ry="38.9"/><ellipse cx="857" cy="1373.4" fill="#12251d" class="color251212 svgShape" opacity=".769" rx="126.2" ry="37.1"/><ellipse cx="857" cy="1373.4" fill="#13231c" class="color231313 svgShape" opacity=".808" rx="120.3" ry="35.4"/><ellipse cx="857" cy="1373.4" fill="#14211c" class="color211414 svgShape" opacity=".846" rx="114.4" ry="33.6"/><ellipse cx="857" cy="1373.4" fill="#151f1b" class="color1f1515 svgShape" opacity=".885" rx="108.4" ry="31.9"/><ellipse cx="857" cy="1373.4" fill="#161d1a" class="color1d1616 svgShape" opacity=".923" rx="102.5" ry="30.2"/><ellipse cx="857" cy="1373.4" fill="#171b19" class="color1b1717 svgShape" opacity=".962" rx="96.6" ry="28.4"/><ellipse cx="857" cy="1373.4" fill="#181919" class="color191818 svgShape" rx="90.7" ry="26.7"/></g><g class="color000000 svgShape" opacity=".17"><ellipse cx="828.8" cy="879.4" fill="#004c2c" class="color4c0000 svgShape" opacity="0" rx="244.6" ry="71.9"/><ellipse cx="828.8" cy="879.4" fill="#014a2b" class="color4a0101 svgShape" opacity=".038" rx="238.7" ry="70.2"/><ellipse cx="828.8" cy="879.4" fill="#02482b" class="color480202 svgShape" opacity=".077" rx="232.8" ry="68.5"/><ellipse cx="828.8" cy="879.4" fill="#03462a" class="color460303 svgShape" opacity=".115" rx="226.8" ry="66.7"/><ellipse cx="828.8" cy="879.4" fill="#044429" class="color440404 svgShape" opacity=".154" rx="220.9" ry="65"/><ellipse cx="828.8" cy="879.4" fill="#054228" class="color420505 svgShape" opacity=".192" rx="215" ry="63.2"/><ellipse cx="828.8" cy="879.4" fill="#064028" class="color400606 svgShape" opacity=".231" rx="209.1" ry="61.5"/><ellipse cx="828.8" cy="879.4" fill="#063e27" class="color3e0606 svgShape" opacity=".269" rx="203.2" ry="59.8"/><ellipse cx="828.8" cy="879.4" fill="#073c26" class="color3c0707 svgShape" opacity=".308" rx="197.2" ry="58"/><ellipse cx="828.8" cy="879.4" fill="#083a25" class="color3a0808 svgShape" opacity=".346" rx="191.3" ry="56.3"/><ellipse cx="828.8" cy="879.4" fill="#093824" class="color380909 svgShape" opacity=".385" rx="185.4" ry="54.5"/><ellipse cx="828.8" cy="879.4" fill="#0a3624" class="color360a0a svgShape" opacity=".423" rx="179.5" ry="52.8"/><ellipse cx="828.8" cy="879.4" fill="#0b3423" class="color340b0b svgShape" opacity=".462" rx="173.6" ry="51"/><ellipse cx="828.8" cy="879.4" fill="#0c3323" class="color330c0c svgShape" opacity=".5" rx="167.6" ry="49.3"/><ellipse cx="828.8" cy="879.4" fill="#0d3122" class="color310d0d svgShape" opacity=".538" rx="161.7" ry="47.6"/><ellipse cx="828.8" cy="879.4" fill="#0e2f21" class="color2f0e0e svgShape" opacity=".577" rx="155.8" ry="45.8"/><ellipse cx="828.8" cy="879.4" fill="#0f2d20" class="color2d0f0f svgShape" opacity=".615" rx="149.9" ry="44.1"/><ellipse cx="828.8" cy="879.4" fill="#102b20" class="color2b1010 svgShape" opacity=".654" rx="144" ry="42.3"/><ellipse cx="828.8" cy="879.4" fill="#11291f" class="color291111 svgShape" opacity=".692" rx="138" ry="40.6"/><ellipse cx="828.8" cy="879.4" fill="#12271e" class="color271212 svgShape" opacity=".731" rx="132.1" ry="38.9"/><ellipse cx="828.8" cy="879.4" fill="#12251d" class="color251212 svgShape" opacity=".769" rx="126.2" ry="37.1"/><ellipse cx="828.8" cy="879.4" fill="#13231c" class="color231313 svgShape" opacity=".808" rx="120.3" ry="35.4"/><ellipse cx="828.8" cy="879.4" fill="#14211c" class="color211414 svgShape" opacity=".846" rx="114.4" ry="33.6"/><ellipse cx="828.8" cy="879.4" fill="#151f1b" class="color1f1515 svgShape" opacity=".885" rx="108.4" ry="31.9"/><ellipse cx="828.8" cy="879.4" fill="#161d1a" class="color1d1616 svgShape" opacity=".923" rx="102.5" ry="30.2"/><ellipse cx="828.8" cy="879.4" fill="#171b19" class="color1b1717 svgShape" opacity=".962" rx="96.6" ry="28.4"/><ellipse cx="828.8" cy="879.4" fill="#181919" class="color191818 svgShape" rx="90.7" ry="26.7"/></g><polygon fill="#9fa0a0" points="920.7 838.3 969 801.3 946.5 874.2 898.3 911.2" class="color9f9fa0 svgShape"/><polygon fill="#b3b4b4" points="593.3 481.9 641.6 444.9 721.3 452.6 673 489.6" class="colorb3b3b4 svgShape"/><path fill="#818382" d="M976.4,724.5c2.2-1.2,4.4-2.5,6.5-3.8l48.3-37c-2.1,1.4-4.3,2.6-6.5,3.8c-0.7,0.4-1.4,0.7-2.1,1.1     c-1.6,0.8-3.1,1.6-4.7,2.3c-0.9,0.4-1.8,0.8-2.7,1.2c-1,0.4-2,0.8-2.9,1.2c-1,0.4-2,0.8-3,1.2c-1,0.4-2,0.7-3,1.1     c-0.8,0.3-1.7,0.5-2.5,0.8c-2.9,0.9-5.8,1.7-8.7,2.4c-0.3,0.1-0.7,0.1-1,0.2c-2.3,0.5-4.6,0.9-6.9,1.3c-0.8,0.1-1.6,0.2-2.4,0.4     c-1.8,0.3-3.6,0.5-5.5,0.6c-0.7,0.1-1.5,0.2-2.2,0.2c-2.1,0.2-4.3,0.3-6.4,0.3c-0.3,0-0.6,0-0.9,0c-2.4,0.1-4.8,0-7.2,0     c-0.8,0-1.5-0.1-2.3-0.1c-1.6-0.1-3.2-0.2-4.8-0.3c-0.9-0.1-1.9-0.2-2.8-0.3c-1.4-0.1-2.8-0.3-4.3-0.5c-1-0.1-1.9-0.3-2.9-0.4     c-1.4-0.2-2.7-0.4-4.1-0.7c-1-0.2-2-0.4-3-0.6c-1.4-0.3-2.8-0.6-4.1-0.9c-1.4-0.3-2.8-0.7-4.2-1c-4.3-1.2-8.6-2.5-12.9-4.1     c-0.3-0.1-0.5-0.2-0.8-0.3c-3.6-1.3-7.2-2.9-10.7-4.5c-0.8-0.4-1.6-0.7-2.3-1.1c-3.7-1.8-7.4-3.7-11-5.7     c-0.9-0.5-1.7-1.1-2.6-1.6c-2.7-1.6-5.4-3.3-8.1-5.1c-1.6-1.1-3.2-2.2-4.8-3.4c-2.5-1.8-5-3.7-7.5-5.7c-0.7-0.6-1.4-1.1-2-1.7     c-3.1-2.6-6.2-5.4-9.2-8.3c-2.5-2.4-4.8-5-7.2-7.6c-1.2-1.3-2.4-2.5-3.5-3.8c-3.4-4-6.7-8.2-9.8-12.5c-2.6-3.7-5.1-7.5-7.3-11.3     c-0.4-0.7-0.9-1.5-1.3-2.2c-1.9-3.3-3.7-6.6-5.4-10c-0.2-0.5-0.5-0.9-0.7-1.4c-1.9-4-3.7-8.1-5.2-12.2c-0.1-0.3-0.2-0.5-0.3-0.8     c-1.4-3.6-2.6-7.2-3.6-10.9c-0.3-0.9-0.5-1.9-0.8-2.9c-1-3.5-1.9-7.1-2.6-10.6c0-0.2-0.1-0.5-0.2-0.7c-0.7-3.8-1.3-7.7-1.7-11.5     c-0.1-0.6-0.2-1.3-0.2-1.9c-0.4-3.7-0.6-7.4-0.6-11c0-0.6,0-1.3,0-1.9c0-3.7,0.1-7.3,0.4-10.9c0-0.5,0.1-1.1,0.1-1.6     c0.3-3.7,0.8-7.4,1.4-11c0-0.3,0.1-0.5,0.2-0.7c0.6-3.4,1.4-6.8,2.3-10.2c0.2-0.6,0.3-1.2,0.5-1.7c1-3.4,2.1-6.7,3.3-9.9     c0.3-0.9,0.7-1.7,1-2.6c1-2.4,2.1-4.8,3.2-7.2c0.6-1.2,1.2-2.4,1.8-3.5c1-1.8,2-3.6,3.1-5.3c1.1-1.8,2.1-3.5,3.3-5.2     c1.8-2.7,3.7-5.3,5.8-7.8c0-0.1,0.1-0.1,0.1-0.2c2.3-2.7,4.7-5.3,7.3-7.8c0.6-0.6,1.3-1.2,1.9-1.9c2.6-2.5,5.4-4.9,8.3-7.1     l-48.3,37c-2.9,2.2-5.6,4.6-8.3,7.1c-0.7,0.6-1.3,1.2-1.9,1.9c-2.6,2.5-5,5.1-7.3,7.8c0,0.1-0.1,0.1-0.1,0.2     c-1.6,2-3.2,4-4.7,6.1c-0.4,0.6-0.7,1.2-1.1,1.7c-1.2,1.7-2.2,3.5-3.3,5.2c-0.7,1.1-1.5,2.2-2.1,3.3c-0.4,0.7-0.7,1.4-1,2     c-0.6,1.2-1.2,2.3-1.8,3.5c-0.5,1.1-1.1,2.1-1.6,3.2c-0.6,1.3-1.1,2.7-1.6,4c-0.3,0.9-0.7,1.7-1,2.6c-0.2,0.5-0.4,0.9-0.6,1.4     c-0.9,2.4-1.7,4.9-2.5,7.4c-0.1,0.4-0.2,0.7-0.3,1.1c-0.2,0.6-0.3,1.2-0.5,1.7c-0.4,1.4-0.8,2.8-1.1,4.3c-0.4,2-0.8,3.9-1.2,5.9     c0,0.2-0.1,0.5-0.1,0.7c0,0.1,0,0.2-0.1,0.3c-0.4,2.3-0.7,4.6-1,6.9c-0.1,1.3-0.2,2.5-0.3,3.8c0,0.5-0.1,1.1-0.1,1.6     c0,0.5-0.1,0.9-0.1,1.4c-0.1,2.3-0.2,4.6-0.3,6.9c0,0.9,0,1.8,0,2.7c0,0.6,0,1.3,0,1.9c0,0.8,0,1.6,0,2.4     c0.1,2.4,0.2,4.7,0.4,7.1c0,0.5,0.1,1.1,0.2,1.6c0.1,0.6,0.1,1.3,0.2,1.9c0.1,1.3,0.3,2.5,0.4,3.8c0.3,2.5,0.8,5,1.2,7.5     c0,0.1,0,0.2,0.1,0.3c0,0.2,0.1,0.5,0.2,0.7c0.5,2.4,1,4.7,1.6,7.1c0.3,1.2,0.7,2.4,1,3.6c0.3,0.9,0.5,1.9,0.8,2.9     c0.2,0.7,0.4,1.5,0.6,2.2c0.9,2.9,1.9,5.8,3,8.6c0.1,0.3,0.2,0.5,0.3,0.8c0,0.1,0,0.1,0.1,0.2c1.5,3.8,3.1,7.6,4.9,11.4     c0.1,0.2,0.2,0.4,0.3,0.6c0.2,0.5,0.5,0.9,0.7,1.4c1.7,3.4,3.4,6.7,5.4,10c0.4,0.7,0.8,1.5,1.3,2.2c0.3,0.5,0.6,1,0.9,1.5     c2,3.3,4.2,6.6,6.5,9.8c3.1,4.4,6.4,8.5,9.8,12.5c1.1,1.3,2.4,2.5,3.5,3.8c2.4,2.6,4.7,5.2,7.2,7.6c0.3,0.3,0.6,0.6,0.9,0.9     c2.7,2.6,5.5,5,8.3,7.4c0.7,0.6,1.4,1.1,2,1.7c1.3,1.1,2.6,2.2,3.9,3.2c1.2,0.9,2.4,1.7,3.5,2.5c1.6,1.1,3.2,2.3,4.8,3.4     c0.8,0.5,1.5,1.1,2.3,1.6c1.9,1.2,3.8,2.3,5.8,3.5c0.9,0.5,1.7,1.1,2.6,1.6c0.3,0.2,0.6,0.4,0.9,0.5c2.8,1.6,5.6,3.1,8.5,4.5     c0.5,0.3,1.1,0.5,1.6,0.7c0.8,0.4,1.5,0.7,2.3,1.1c1.4,0.6,2.8,1.3,4.1,1.9c2.2,0.9,4.4,1.8,6.6,2.6c0.3,0.1,0.6,0.2,0.8,0.3     c0.1,0,0.2,0.1,0.3,0.1c2.5,0.9,5,1.7,7.6,2.5c1.6,0.5,3.3,1,5,1.4c0.8,0.2,1.6,0.4,2.5,0.6c0.6,0.1,1.2,0.3,1.8,0.4     c1.4,0.3,2.8,0.6,4.1,0.9c0.5,0.1,1,0.2,1.5,0.3c0.5,0.1,1,0.2,1.5,0.3c1.4,0.3,2.7,0.5,4.1,0.7c0.6,0.1,1.2,0.2,1.8,0.3     c0.4,0.1,0.8,0.1,1.2,0.1c1.4,0.2,2.8,0.3,4.3,0.5c0.7,0.1,1.3,0.2,2,0.2c0.3,0,0.5,0,0.8,0.1c1.6,0.1,3.2,0.2,4.8,0.3     c0.6,0,1.3,0.1,1.9,0.1c0.1,0,0.3,0,0.4,0c2.4,0.1,4.8,0.1,7.2,0c0,0,0.1,0,0.1,0c0.3,0,0.5,0,0.8,0c2.2-0.1,4.3-0.2,6.4-0.3     c0.2,0,0.5,0,0.7,0c0.5,0,1-0.1,1.5-0.2c1.8-0.2,3.6-0.4,5.5-0.6c0.4-0.1,0.9-0.1,1.3-0.2c0.4-0.1,0.7-0.1,1.1-0.2     c2.3-0.4,4.6-0.8,6.9-1.3c0.3-0.1,0.6-0.1,0.8-0.2c0.1,0,0.1,0,0.2-0.1c2.9-0.7,5.8-1.5,8.7-2.4c0.3-0.1,0.7-0.2,1-0.3     c0.5-0.2,1-0.4,1.5-0.5c1-0.3,2-0.7,3-1c1-0.4,2-0.8,3.1-1.2c1-0.4,2-0.8,2.9-1.2c0.5-0.2,1-0.4,1.5-0.6c0.4-0.2,0.8-0.4,1.2-0.6     c1.6-0.7,3.1-1.5,4.7-2.3C975.1,725.2,975.8,724.9,976.4,724.5z" class="color818183 svgShape"/><defs><path id="am" fill="#000" d="M1039.1,678.2l-48.3,37c-2.5,1.9-5.1,3.7-7.8,5.5l48.3-37       C1033.9,682,1036.5,680.1,1039.1,678.2z" class="color000000 svgShape" enable-background="new"/></defs><clipPath id="an"><use overflow="visible" xlink:href="#am"/></clipPath><g class="color000000 svgShape" clip-path="url(#an)"><path fill="#818382" d="M982.9,720.7l48.3-37c2.7-1.7,5.3-3.6,7.8-5.5l-48.3,37C988.3,717.1,985.7,719,982.9,720.7" class="color818183 svgShape"/></g><defs><path id="ao" fill="#000" d="M1157.5,824.2l-48.3,37c3.2-2.4,6.3-5,9.4-7.5l48.3-37       C1163.8,819.3,1160.7,821.8,1157.5,824.2z" class="color000000 svgShape" enable-background="new"/></defs><clipPath id="ap"><use overflow="visible" xlink:href="#ao"/></clipPath><g class="color000000 svgShape" clip-path="url(#ap)"><path fill="#818382" d="M1118.6,853.7l48.3-37c-3,2.6-6.2,5.1-9.4,7.5l-48.3,37C1112.4,858.8,1115.5,856.3,1118.6,853.7" class="color818183 svgShape"/></g><polygon fill="#e8eae9" points="1080.2 777.9 1128.5 740.9 1166.9 816.7 1118.6 853.7" class="colore8e8ea svgShape"/><defs><path id="aq" fill="#000" d="M685.1,338.6l48.3-37c5.6-4.3,11.5-8.4,17.6-12.3c9.6-6.1,19.5-11.5,29.7-16.3l-48.3,37       c-10.2,4.8-20.1,10.2-29.7,16.3C696.6,330.2,690.8,334.3,685.1,338.6z" class="color000000 svgShape" enable-background="new"/></defs><clipPath id="ar"><use overflow="visible" xlink:href="#aq"/></clipPath><g class="color000000 svgShape" clip-path="url(#ar)"><path fill="#b3b4b4" d="M685.1,338.6l48.3-37c5.6-4.3,11.5-8.4,17.6-12.3c9.6-6.1,19.5-11.5,29.7-16.3l-48.3,37       c-10.2,4.8-20.1,10.2-29.7,16.3C696.6,330.2,690.8,334.3,685.1,338.6" class="colorb3b3b4 svgShape"/></g><polygon fill="#edefee" points="732.4 310 780.7 273 840.4 335.2 792.1 372.2" class="colorededef svgShape"/><path fill="#b3b4b4" d="M1169.6,673.3L1169.6,673.3l-48.3,37c-0.4,1.3-1,2.5-1.4,3.7c-1.3,3.3-2.6,6.6-4,9.9     c-0.4,0.9-0.8,1.9-1.2,2.8c-2,4.4-4.2,8.6-6.5,12.8c-0.7,1.2-1.4,2.4-2.1,3.6c-0.9,1.6-1.8,3.2-2.8,4.7c-0.8,1.3-1.7,2.7-2.5,4     c-1,1.5-2,3-3,4.5c-0.8,1.1-1.6,2.3-2.5,3.4c-1.6,2.2-3.3,4.4-5,6.5c-0.7,0.9-1.5,1.9-2.2,2.8c-2.5,3-5,5.9-7.7,8.7l48.3-37     c2.7-2.8,5.2-5.8,7.7-8.7c0.8-0.9,1.5-1.9,2.2-2.8c1.7-2.1,3.4-4.3,5-6.5c0.4-0.6,0.9-1.1,1.3-1.7c0.4-0.6,0.8-1.2,1.2-1.7     c1-1.5,2-3,3-4.5c0.9-1.3,1.7-2.6,2.5-4c1-1.6,1.9-3.1,2.8-4.7c0.5-0.9,1.1-1.7,1.6-2.6c0.2-0.3,0.3-0.7,0.5-1     c2.3-4.2,4.5-8.5,6.5-12.8c0.2-0.3,0.3-0.6,0.5-1c0.3-0.6,0.5-1.2,0.7-1.8c1.4-3.3,2.8-6.6,4-9.9c0.2-0.6,0.5-1.1,0.7-1.7     C1169.1,674.7,1169.3,674,1169.6,673.3L1169.6,673.3L1169.6,673.3z" class="colorb3b3b4 svgShape"/><path fill="#a4a6a5" d="M921.9,324.6c-1.5-0.1-3-0.1-4.5-0.2c-0.7,0-1.5,0-2.2,0c-3-0.1-6-0.1-8.9-0.1c-0.8,0-1.6,0-2.5,0     c-0.4,0-0.8,0-1.1,0.1c-4.2,0.1-8.3,0.3-12.4,0.7c-0.1,0-0.2,0-0.3,0c-0.4,0-0.8,0.1-1.2,0.1c-3.8,0.3-7.6,0.8-11.4,1.3     c-0.6,0.1-1.2,0.1-1.8,0.2c-0.6,0.1-1.1,0.2-1.7,0.3c-4.5,0.7-8.9,1.5-13.3,2.5c-0.1,0-0.2,0-0.3,0.1c0,0-0.1,0-0.1,0     c-0.3,0.1-0.5,0.1-0.8,0.2c-2.9,0.7-5.7,1.4-8.5,2.2c-1,0.3-2,0.6-3,0.9c-1.5,0.4-3,0.9-4.5,1.3c-1,0.3-2,0.7-3,1l-48.3,37     c2.5-0.8,5-1.6,7.5-2.3c1-0.3,2-0.6,3-0.9c2.8-0.8,5.7-1.5,8.5-2.2c0.3-0.1,0.5-0.1,0.8-0.2c0.1,0,0.3,0,0.4-0.1     c4.4-1,8.8-1.8,13.3-2.5c1.2-0.2,2.3-0.4,3.5-0.5c3.8-0.5,7.6-1,11.4-1.3c0.5,0,1-0.1,1.5-0.2c4.1-0.3,8.3-0.5,12.4-0.7     c1.2,0,2.4,0,3.6,0c3,0,6,0,8.9,0.1c2.2,0.1,4.4,0.1,6.7,0.2l0,0l0,0L921.9,324.6z" class="colora4a4a6 svgShape"/><path fill="#bdbfbe" d="M1121.9,561.3c0.3,1,0.6,1.9,0.9,2.9c1.1,3.6,2.1,7.1,3,10.7c0.3,1.3,0.7,2.6,1,3.9     c0.8,3.4,1.5,6.7,2.2,10.1c0.2,0.8,0.4,1.7,0.5,2.5c0.8,4,1.4,8,2,12c0.5,3.3,0.9,6.6,1.2,9.9l48.3-37c-0.3-3.1-0.7-6.2-1.1-9.3     c0-0.2-0.1-0.4-0.1-0.6c-0.6-4-1.2-8-2-12c0-0.2-0.1-0.3-0.1-0.5c-0.1-0.7-0.3-1.3-0.4-2c-0.7-3.4-1.4-6.7-2.2-10.1     c-0.1-0.6-0.2-1.2-0.4-1.8c-0.2-0.7-0.4-1.4-0.6-2.1c-0.9-3.6-1.9-7.1-3-10.7c-0.2-0.7-0.4-1.4-0.6-2.1c-0.1-0.3-0.2-0.5-0.3-0.7     c-1.5-4.8-3.2-9.6-5-14.4c-0.2-0.5-0.3-0.9-0.5-1.4c-0.2-0.6-0.5-1.2-0.7-1.8c-2-5.1-4.1-10.3-6.5-15.4l-48.3,37     c2.4,5.1,4.5,10.2,6.5,15.4c0.4,1,0.8,2.1,1.2,3.1C1118.7,551.7,1120.3,556.5,1121.9,561.3z" class="colorbdbdbf svgShape"/><path fill="#e0e2e1" d="M1002.4,405.2c1.6,1.1,3.3,2.2,4.9,3.3c1.5,1,2.9,2,4.4,3c1.7,1.2,3.3,2.4,5,3.6c1.4,1,2.8,2,4.2,3.1     c0.4,0.3,0.7,0.6,1.1,0.9c3.4,2.6,6.8,5.4,10.1,8.2c1.1,0.9,2.1,1.8,3.1,2.7c2.9,2.5,5.8,5.1,8.6,7.8c1.1,1,2.2,2,3.2,3l48.3-37     c-0.5-0.5-1-1-1.5-1.4c-0.6-0.5-1.1-1-1.7-1.5c-2.8-2.7-5.7-5.3-8.6-7.8c-1-0.9-2.1-1.8-3.1-2.7c-3.3-2.8-6.7-5.6-10.1-8.2     c-0.3-0.2-0.6-0.5-0.8-0.7c-0.1-0.1-0.2-0.1-0.2-0.2c-1.4-1.1-2.8-2.1-4.2-3.1c-1.7-1.2-3.3-2.5-5-3.6c-1.4-1-2.9-2-4.3-3     c-1.6-1.1-3.1-2.2-4.7-3.2c-0.1-0.1-0.2-0.1-0.2-0.1c-4.8-3.1-9.6-6-14.5-8.8c-0.5-0.3-1-0.6-1.6-0.9c-0.5-0.3-1-0.5-1.4-0.8     c-4-2.2-8.1-4.4-12.2-6.4l-48.3,37c4.1,2,8.1,4.2,12.2,6.4c1,0.6,2,1.1,3,1.7C992.8,399.2,997.7,402.1,1002.4,405.2z" class="colore0e0e2 svgShape"/><path fill="#9a9c9b" d="M1257.4,610.6L1257.4,610.6l-48.3,37c0,4.6-0.2,9.1-0.3,13.7c-0.1,1.9-0.1,3.8-0.2,5.6     c-0.3,4.8-0.7,9.6-1.2,14.3c-0.1,0.8-0.1,1.6-0.2,2.4c-0.6,5.6-1.5,11.1-2.4,16.6c-0.3,1.9-0.8,3.7-1.1,5.5     c-0.8,4.1-1.6,8.3-2.6,12.4c0,0,0,0,0,0l0,0l0,0l48.3-37c0.2-0.9,0.5-1.9,0.7-2.9c0.7-3.1,1.3-6.3,1.9-9.5     c0.4-1.9,0.8-3.7,1.1-5.5c0-0.3,0.1-0.5,0.2-0.8c0.9-5.1,1.6-10.3,2.2-15.6c0-0.1,0-0.2,0-0.2c0.1-0.8,0.1-1.6,0.2-2.4     c0.5-4.2,0.9-8.5,1.2-12.8c0-0.5,0-1,0.1-1.6c0.1-1.9,0.1-3.7,0.2-5.6c0.1-2.7,0.3-5.5,0.3-8.2     C1257.4,614.2,1257.4,612.4,1257.4,610.6L1257.4,610.6L1257.4,610.6z" class="color9a9a9c svgShape"/><polygon fill="#d6d8d7" points="1132.6 613.2 1180.9 576.2 1257.4 610.6 1209.1 647.6" class="colord6d6d8 svgShape"/><path fill="#c2c4c3" d="M968,308.1l48.3-37c-2.7-1.1-5.5-2.1-8.2-3.1c-1.7-0.6-3.5-1.2-5.3-1.8c-2.6-0.9-5.3-1.8-7.9-2.6     c-1.3-0.4-2.5-0.9-3.8-1.3c-3.7-1.1-7.4-2.2-11.1-3.2c-1.8-0.5-3.7-1-5.5-1.4c-2.4-0.6-4.7-1-7.1-1.6c-2.4-0.5-4.7-1.1-7.1-1.6     c-0.7-0.1-1.4-0.3-2.2-0.5c-4.6-0.9-9.2-1.7-13.8-2.4l-48.3,37c5.3,0.8,10.7,1.8,16,2.9c2.4,0.5,4.8,1.1,7.2,1.6     c4.2,1,8.4,1.9,12.6,3c5,1.3,9.9,2.9,14.8,4.4c2.6,0.8,5.3,1.7,7.9,2.6C959,304.8,963.5,306.3,968,308.1z" class="colorc2c2c4 svgShape"/><polygon fill="#c6c8c7" points="1016.3 271.1 968 308.1 972.8 388.3 1021.1 351.3" class="colorc6c6c8 svgShape"/><polygon fill="#b3b4b4" points="1162.2 477.1 1210.4 440.1 1157.4 491.3 1109.2 528.3" class="colorb3b3b4 svgShape"/><polygon fill="#b3b4b4" points="1047 440.8 1095.2 403.8 1165.3 376.6 1117 413.6" class="colorb3b3b4 svgShape"/><defs><path id="as" fill="#000" d="M1117,413.6l48.3-37c8.4,9.7,16.5,19.9,24.2,30.7c7.7,10.7,14.6,21.7,21,32.8l-48.3,37       c-6.4-11.1-13.3-22.1-21-32.8C1133.6,433.5,1125.4,423.3,1117,413.6z" class="color000000 svgShape" enable-background="new"/></defs><clipPath id="at"><use overflow="visible" xlink:href="#as"/></clipPath><g class="color000000 svgShape" clip-path="url(#at)"><path fill="#e0e2e1" d="M1117,413.6l48.3-37c8.4,9.7,16.5,19.9,24.2,30.7c5.3,7.4,10.2,14.9,14.8,22.4l-48.3,37       c-4.6-7.6-9.5-15.1-14.8-22.4C1133.6,433.5,1125.4,423.3,1117,413.6" class="colore0e0e2 svgShape"/><path fill="#dbdddc" d="M1156,466.7l48.3-37c2.1,3.5,4.2,6.9,6.2,10.4l-48.3,37C1160.2,473.6,1158.1,470.1,1156,466.7" class="colordbdbdd svgShape"/></g><linearGradient id="au" x1="585.155" x2="1209.121" y1="599.976" y2="599.976" gradientUnits="userSpaceOnUse"><stop class="stopColorfbfbfb svgShape" offset="0" stop-color="#fbfbfb"/><stop class="stopColore5e5e5 svgShape" offset="1" stop-color="#e5e5e5"/></linearGradient><path fill="url(#au)" d="M1201,718.1l-79.7-7.7c-8.9,25.2-22.6,48.1-41.1,67.6l38.3,75.8c-8.4,7.2-17.4,13.8-27,19.9      c-9.6,6.1-19.5,11.6-29.7,16.3l-59.6-62.2c-26,8.9-53.6,12.3-81.5,10.7l-22.5,72.9c-11.9-1.8-23.8-4.4-35.6-7.5      c-12.2-3.3-24.4-7.3-36.4-11.9l-4.7-80.2c-26.6-13.1-51.7-30.7-74.2-52.5l-70.1,27.3c-8.5-9.8-16.6-20-24.2-30.8      c-7.6-10.7-14.6-21.7-20.9-32.8l53-51.2c-12.8-27.9-20.6-56.6-23.4-84.9l-76.7-34.4c-0.1-24.2,2.7-47.8,8.2-70.4l79.7,7.7      c9-25.1,22.6-48.1,41.1-67.6l-38.3-75.8c8.4-7.1,17.4-13.8,27-19.9c9.6-6.1,19.5-11.5,29.7-16.3l59.6,62.2      c26-8.8,53.6-12.1,81.5-10.6l22.4-72.9c12,1.8,23.9,4.3,35.7,7.5c12.2,3.3,24.3,7.2,36.2,11.9l4.8,80.2      c26.5,13.2,51.8,30.7,74.2,52.5l70.1-27.2c8.4,9.7,16.5,19.9,24.2,30.7c7.7,10.7,14.6,21.7,21,32.8l-53,51.2      c12.9,27.9,20.6,56.7,23.4,84.9l76.5,34.3C1209.2,671.7,1206.5,695.4,1201,718.1z M982.9,720.7c59.4-37.9,69.2-122.7,21.8-189.4      c-23.7-33.4-57.3-55.9-92.3-65.3c-34.9-9.4-71.4-5.7-101,13.2C752,517.2,742.2,602,789.5,668.6c23.7,33.4,57.3,55.9,92.4,65.3      C916.8,743.3,953.2,739.6,982.9,720.7"/><g class="color000000 svgShape"><path fill="#fff" d="M669.5,491.9c0.3-0.9,0.7-1.7,1-2.6l-77.2-7.4c-0.2,0.9-0.4,1.8-0.6,2.7L669.5,491.9z" class="colorffffff svgShape"/><path fill="#fff" d="M728.9,312.3l59.6,62.2c26-8.8,53.6-12.1,81.5-10.6l0.8-2.5c-27-1.1-53.6,2.2-78.7,10.7L732.4,310      c-10.2,4.8-20.1,10.2-29.7,16.3c-1,0.6-1.9,1.3-2.8,1.9C709.3,322.3,719,317,728.9,312.3z" class="colorffffff svgShape"/><path fill="#fff" d="M1132.6,613.2c-2.8-28.2-10.6-57-23.4-84.9l53-51.2c-6.4-11.1-13.3-22.1-21-32.8      c-7.6-10.8-15.7-21-24.2-30.7l-70.1,27.2c-22.4-21.8-47.6-39.3-74.2-52.5l-4.8-80.2c-11.9-4.6-24-8.6-36.2-11.9      c-11.9-3.2-23.8-5.7-35.7-7.5l-0.9,2.8c11.1,1.8,22.1,4.1,33.1,7c12.2,3.3,24.3,7.2,36.2,11.9l4.8,80.2      c26.5,13.2,51.8,30.7,74.2,52.5l70.1-27.2c8.4,9.7,16.5,19.9,24.2,30.7c7.7,10.7,14.6,21.7,21,32.8l-53,51.2      c12.9,27.9,20.6,56.7,23.4,84.9l76.5,34.3c0.1,23.2-2.5,46-7.5,67.9l3,0.3c5.5-22.7,8.2-46.4,8.1-70.5L1132.6,613.2z" class="colorffffff svgShape"/><path fill="#fff" d="M979.4,723.1c1-0.7,2-1.3,3-2c-29.6,18.6-65.8,22.2-100.5,12.9c-35.1-9.4-68.6-31.9-92.4-65.3      c-46.5-65.5-37.8-148.5,19-187.4c-0.2,0.1-0.4,0.2-0.6,0.3c-59.5,37.9-69.3,122.7-21.9,189.4c23.7,33.4,57.3,55.9,92.4,65.3      C913.3,745.7,949.7,742,979.4,723.1z" class="colorffffff svgShape"/><path fill="#fff" d="M917.2,840.7l-21.6,70.1c0.9,0.1,1.8,0.4,2.7,0.5l21.7-70.4C919,840.8,918.1,840.8,917.2,840.7z" class="colorffffff svgShape"/><path fill="#fff" d="M1120.3,713l-2.5-0.2c-8.9,25.2-22.6,48.1-41.1,67.6l38.3,75.8c-7.6,6.4-15.7,12.4-24.2,18      c0.2-0.1,0.5-0.3,0.7-0.4c9.6-6.1,18.6-12.8,27-19.9l-38.3-75.8C1098,759.2,1111.4,737.1,1120.3,713z" class="colorffffff svgShape"/></g><g class="color000000 svgShape"><linearGradient id="av" x1="981.984" x2="848.297" y1="1260.497" y2="957.187" gradientUnits="userSpaceOnUse"><stop class="stopColor82fb7c svgShape" offset="0" stop-color="#52cc99"/><stop class="stopColor0ba2b3 svgShape" offset="1" stop-color="#0bb36d"/></linearGradient><path fill="url(#av)" d="M1065.9,1144c0-2.2,0-4.3-0.1-6.5c0-1.2,0-2.4,0-3.5c0-0.1,0-0.1,0-0.2c-0.1-3.4-0.3-6.9-0.6-10.3     c0,0,0-0.1,0-0.1c0-0.5-0.1-1-0.2-1.6c-0.3-2.9-0.6-5.8-1-8.7c0-0.1,0-0.3,0-0.4c-0.1-0.9-0.3-1.8-0.4-2.7     c-0.4-2.5-0.8-5-1.2-7.4c-0.1-0.3-0.1-0.7-0.2-1c-0.2-0.9-0.4-1.7-0.6-2.6c-0.5-2.5-1.1-5-1.7-7.5c-0.1-0.6-0.2-1.2-0.4-1.8     c-0.2-0.7-0.4-1.4-0.6-2c-0.7-2.9-1.5-5.7-2.4-8.5c-0.2-0.7-0.4-1.5-0.6-2.2c-0.1-0.3-0.2-0.6-0.3-0.9c-1.3-4.2-2.8-8.3-4.3-12.4     c-0.1-0.3-0.2-0.6-0.3-0.8c-0.6-1.5-1.2-3-1.8-4.5c-0.4-1.1-0.9-2.2-1.3-3.3c-0.9-2.2-1.9-4.4-3-6.6c-0.3-0.7-0.6-1.4-1-2.2     c0-0.1-0.1-0.2-0.1-0.2c-0.2-0.4-0.4-0.7-0.5-1.1c-1.5-3.2-3.1-6.3-4.8-9.5c-0.6-1.1-1.2-2.2-1.8-3.3c-1.4-2.5-2.9-5-4.4-7.5     c-0.4-0.7-0.8-1.3-1.2-2c-0.2-0.3-0.5-0.7-0.7-1c-2.4-3.9-4.9-7.7-7.5-11.4c-0.5-0.7-1-1.4-1.5-2.1c-2.4-3.3-4.8-6.5-7.3-9.7     c-0.6-0.7-1.1-1.4-1.7-2.1c-2.9-3.5-5.9-7-8.9-10.4c-0.7-0.7-1.4-1.5-2-2.2c-2.8-3-5.7-6-8.7-8.9c-0.4-0.3-0.7-0.7-1-1.1     c-0.1-0.1-0.3-0.3-0.4-0.4c-2.8-2.7-5.7-5.3-8.7-7.9c-0.7-0.6-1.4-1.2-2.1-1.8c-2.3-1.9-4.6-3.9-7-5.7c-0.4-0.3-0.9-0.7-1.3-1.1     c-0.4-0.3-0.8-0.6-1.2-0.9c-4.2-3.2-8.6-6.3-13-9.2c-0.2-0.1-0.4-0.3-0.5-0.4c-0.5-0.3-1.1-0.6-1.6-1c-3.1-2-6.2-3.9-9.3-5.7     c-0.6-0.3-1.1-0.7-1.7-1c-0.4-0.2-0.9-0.4-1.3-0.7c-3-1.7-6-3.2-9-4.8c-0.4-0.2-0.9-0.5-1.3-0.7c-0.1,0-0.2-0.1-0.3-0.1     c-3.4-1.6-6.8-3.2-10.2-4.7c-0.2-0.1-0.4-0.2-0.5-0.2c-0.9-0.4-1.9-0.7-2.9-1.1c-2.2-0.9-4.4-1.8-6.7-2.6     c-0.4-0.1-0.7-0.3-1.1-0.4c-1.1-0.4-2.2-0.7-3.3-1.1c-1.9-0.6-3.7-1.3-5.6-1.9c-0.5-0.2-0.9-0.3-1.4-0.5c-2.3-0.7-4.6-1.4-6.9-2     c-1.1-0.3-2.3-0.6-3.4-0.9c-1.3-0.3-2.6-0.6-3.9-0.9c-1.6-0.4-3.1-0.7-4.7-1c-0.5-0.1-1-0.2-1.5-0.3c-1.4-0.3-2.8-0.5-4.2-0.7     c-1.5-0.3-3.1-0.6-4.6-0.8c-0.4-0.1-0.8-0.1-1.2-0.2c-1.5-0.2-3-0.3-4.4-0.5c-1.5-0.2-3.1-0.4-4.6-0.5c-0.3,0-0.7-0.1-1-0.1     c-1.5-0.1-2.9-0.2-4.4-0.3c-1.6-0.1-3.3-0.2-4.9-0.3c-0.3,0-0.6,0-0.9-0.1c-1.3,0-2.6,0-3.9,0c-1.9,0-3.7-0.1-5.6,0     c-0.3,0-0.7,0-1,0c-1.1,0-2.2,0.1-3.4,0.2c-2,0.1-4.1,0.2-6.1,0.3c-0.4,0-0.9,0-1.3,0.1c-0.9,0.1-1.9,0.2-2.8,0.3     c-2.2,0.2-4.4,0.5-6.6,0.8c-0.6,0.1-1.2,0.1-1.8,0.2c-0.7,0.1-1.4,0.3-2.1,0.4c-2.7,0.4-5.4,1-8.1,1.5c-0.7,0.2-1.5,0.3-2.2,0.4     c-0.3,0.1-0.6,0.2-1,0.3c-4.1,1-8.1,2.1-12.1,3.3c-0.2,0.1-0.5,0.1-0.7,0.2c-1.4,0.4-2.7,1-4.1,1.4c-1.2,0.4-2.5,0.9-3.7,1.3     c-1.7,0.7-3.4,1.4-5.1,2.1c-1.1,0.5-2.3,0.9-3.4,1.4c-0.2,0.1-0.3,0.1-0.5,0.2c-1.5,0.7-2.9,1.4-4.3,2.1     c-1.2,0.6-2.4,1.1-3.6,1.7c-1.6,0.8-3.2,1.8-4.8,2.7c-1.1,0.6-2.2,1.2-3.2,1.8c-1.8,1-3.5,2.2-5.2,3.3c-0.9,0.6-1.8,1.1-2.6,1.7     c-2.5,1.7-4.9,3.4-7.3,5.3c-0.1,0-0.1,0.1-0.2,0.1l-1.2,0.9c-0.3,0.2-0.6,0.3-0.9,0.5c-1.1,0.6-2.2,1.2-3.3,1.8     c-1.8,1-3.5,2.2-5.2,3.3c-0.9,0.6-1.8,1.1-2.6,1.7c-2.5,1.7-4.9,3.4-7.3,5.3c-0.1,0.1-0.1,0.1-0.2,0.1L700,975.7     c2.4-1.9,4.9-3.7,7.5-5.4c0.9-0.6,1.8-1.1,2.7-1.7c1.7-1.1,3.4-2.2,5.1-3.3c1.1-0.6,2.2-1.2,3.3-1.8c1.6-0.9,3.2-1.8,4.8-2.7     c1.2-0.6,2.4-1.2,3.6-1.7c1.6-0.8,3.2-1.6,4.8-2.3c1.1-0.5,2.3-1,3.4-1.4c1.7-0.7,3.4-1.4,5.1-2.1c1.2-0.5,2.5-0.9,3.8-1.3     c1.6-0.6,3.2-1.1,4.8-1.6c4-1.3,8-2.4,12.1-3.3c1.1-0.2,2.1-0.5,3.2-0.7c2.7-0.6,5.4-1.1,8.1-1.5c1.3-0.2,2.6-0.4,3.9-0.6     c2.2-0.3,4.4-0.6,6.6-0.8c1.4-0.1,2.7-0.3,4.1-0.4c2-0.2,4-0.2,6.1-0.3c1.5-0.1,2.9-0.2,4.4-0.2c1.8,0,3.7,0,5.6,0     c1.6,0,3.2,0,4.8,0.1c1.6,0.1,3.3,0.2,4.9,0.3c1.8,0.1,3.5,0.2,5.3,0.4c1.5,0.1,3.1,0.4,4.6,0.5c1.9,0.2,3.7,0.4,5.6,0.7     c1.5,0.2,3.1,0.5,4.6,0.8c1.9,0.3,3.8,0.7,5.7,1c1.6,0.3,3.1,0.7,4.7,1c2.4,0.6,4.9,1.1,7.3,1.8c2.8,0.7,5.6,1.6,8.3,2.4     c1.9,0.6,3.8,1.2,5.6,1.9c1.4,0.5,2.9,1,4.3,1.5c2.3,0.8,4.5,1.7,6.7,2.6c1.1,0.5,2.3,0.9,3.4,1.4c3.5,1.5,6.9,3,10.3,4.7     c0.5,0.3,1,0.5,1.5,0.8c3.1,1.5,6.1,3.1,9.1,4.8c1,0.6,2,1.1,3,1.7c3.2,1.8,6.3,3.7,9.4,5.7c0.7,0.4,1.4,0.9,2.1,1.3     c4.4,2.9,8.8,6,13,9.2c0.8,0.6,1.7,1.3,2.6,1.9c2.4,1.9,4.7,3.8,7,5.7c0.7,0.6,1.4,1.2,2.1,1.8c3,2.6,5.9,5.2,8.7,7.9     c0.5,0.5,1,1,1.5,1.4c3,2.9,5.9,5.9,8.7,8.9c0.7,0.7,1.4,1.4,2,2.2c3.1,3.4,6.1,6.9,9,10.4c0.6,0.7,1.1,1.4,1.7,2.1     c2.5,3.2,5,6.4,7.4,9.7c0.5,0.7,1,1.4,1.5,2.1c2.6,3.7,5.1,7.6,7.6,11.4c0.6,1,1.2,2,1.8,3c1.5,2.5,2.9,5,4.4,7.5     c0.6,1.1,1.2,2.2,1.8,3.3c1.7,3.1,3.3,6.3,4.8,9.5c0.2,0.4,0.4,0.8,0.6,1.2c0.3,0.7,0.7,1.5,1,2.2c1,2.2,2,4.4,2.9,6.6     c0.5,1.1,0.9,2.2,1.3,3.3c0.7,1.8,1.4,3.5,2.1,5.3c1.6,4.1,3,8.2,4.3,12.4c0.3,1,0.6,2.1,0.9,3.1c0.8,2.8,1.6,5.7,2.4,8.5     c0.3,1.3,0.7,2.5,1,3.8c0.6,2.5,1.1,5,1.7,7.5c0.2,1.2,0.5,2.4,0.7,3.6c0.5,2.5,0.8,4.9,1.2,7.4c0.2,1.1,0.4,2.1,0.5,3.2     c0.4,2.9,0.7,5.7,1,8.6c0.1,0.6,0.1,1.2,0.2,1.8c0.3,3.4,0.5,6.8,0.6,10.3c0,1.2,0,2.5,0.1,3.7c0,2.2,0.1,4.3,0.1,6.5     c0,1.4-0.1,2.8-0.2,4.2c-0.1,2-0.1,4-0.2,6c-0.2,3.2-0.5,6.4-0.8,9.7c-0.1,1.2-0.3,2.4-0.5,3.6c-0.3,2.3-0.6,4.5-1,6.8     c-0.2,1.2-0.4,2.4-0.6,3.5c-0.4,2.1-0.8,4.2-1.3,6.3c-0.3,1.2-0.6,2.4-0.9,3.6c-0.5,2.1-1.1,4.3-1.7,6.4c-0.3,1.1-0.6,2.2-1,3.3     c-0.9,3-1.9,5.9-2.9,8.8c-0.1,0.4-0.2,0.7-0.4,1.1c-1.3,3.5-2.7,7-4.2,10.4c-0.4,0.8-0.7,1.6-1.1,2.4c-1.8,3.9-3.7,7.6-5.7,11.3     c-0.5,0.9-1.1,1.9-1.6,2.8c-0.9,1.5-1.8,3.1-2.7,4.6c-0.6,1-1.3,2-2,3c-0.9,1.4-1.8,2.8-2.8,4.1c-0.5,0.7-1,1.4-1.6,2.1     c-1.7,2.3-3.4,4.5-5.2,6.7c-0.6,0.7-1.1,1.4-1.7,2c-2.2,2.6-4.5,5.2-6.9,7.7c-0.4,0.4-0.8,0.8-1.2,1.2c-2.1,2.1-4.2,4.1-6.4,6.1     c-0.7,0.6-1.4,1.3-2.1,1.9c-2.6,2.3-5.2,4.5-8,6.6l23.1-17.7c2.7-2.1,5.4-4.3,8-6.6c0.7-0.6,1.4-1.2,2.1-1.9c2.2-2,4.3-4,6.4-6.1     c0.4-0.4,0.8-0.8,1.2-1.2c2.4-2.5,4.7-5.1,6.9-7.7c0.6-0.7,1.1-1.4,1.7-2c1.8-2.2,3.5-4.4,5.2-6.7c0.3-0.4,0.7-0.9,1-1.3     c0.2-0.3,0.4-0.6,0.6-0.8c1-1.3,1.9-2.7,2.8-4.1c0.7-1,1.3-2,2-3c0.7-1.1,1.3-2.2,2-3.3c0,0,0,0,0,0c-0.5,0.9-1.1,1.9-1.6,2.8     c-0.9,1.5-1.8,3.1-2.7,4.6c-0.6,1-1.3,2-2,3c-0.9,1.4-1.8,2.8-2.8,4.1c-0.5,0.7-1,1.4-1.6,2.1c-1.7,2.3-3.4,4.5-5.2,6.7     c-0.6,0.7-1.1,1.4-1.7,2c-2.2,2.6-4.5,5.2-6.9,7.7c-0.4,0.4-0.8,0.8-1.2,1.2c-2.1,2.1-4.2,4.1-6.4,6.1c-0.7,0.6-1.4,1.3-2.1,1.9     c-2.6,2.3-5.2,4.5-8,6.6l23.1-17.7c2.7-2.1,5.4-4.3,8-6.6c0.7-0.6,1.4-1.2,2.1-1.9c2.2-2,4.3-4,6.4-6.1c0.4-0.4,0.8-0.8,1.2-1.2     c2.4-2.5,4.7-5.1,6.9-7.7c0.6-0.7,1.1-1.4,1.7-2c1.8-2.2,3.5-4.4,5.2-6.7c0.3-0.5,0.7-0.9,1-1.3c0.2-0.3,0.4-0.6,0.6-0.8     c1-1.4,1.9-2.7,2.8-4.1c0.7-1,1.3-2,2-3c0.9-1.5,1.8-3,2.7-4.6c0.5-0.8,1-1.6,1.5-2.5c0.1-0.1,0.1-0.2,0.2-0.3     c2-3.7,3.9-7.4,5.7-11.3c0.2-0.4,0.4-0.8,0.6-1.2c0.2-0.4,0.3-0.8,0.5-1.2c1.5-3.4,2.9-6.8,4.2-10.4c0-0.1,0-0.1,0.1-0.2     c0.1-0.3,0.2-0.6,0.3-0.9c1-2.9,2-5.8,2.9-8.8c0.1-0.4,0.3-0.8,0.4-1.2c0.2-0.7,0.4-1.4,0.5-2.1c0.6-2.1,1.2-4.2,1.7-6.4     c0.2-0.7,0.4-1.3,0.5-2c0.1-0.5,0.2-1.1,0.3-1.6c0.5-2.1,0.9-4.2,1.3-6.3c0.2-0.8,0.4-1.7,0.5-2.5c0.1-0.3,0.1-0.7,0.1-1     c0.4-2.2,0.7-4.5,1-6.8c0.1-0.9,0.3-1.7,0.4-2.6c0-0.3,0.1-0.7,0.1-1c0.3-3.1,0.6-6.2,0.8-9.3c0-0.1,0-0.3,0-0.4     c0.1-2,0.2-4,0.2-6c0-1.3,0.1-2.6,0.2-3.9C1066,1144.2,1065.9,1144.1,1065.9,1144z"/><linearGradient id="aw" x1="635.433" x2="1022.222" y1="1143.684" y2="1143.684" gradientUnits="userSpaceOnUse"><stop class="stopColor82fb7c svgShape" offset="0" stop-color="#52cc99"/><stop class="stopColor0ba2b3 svgShape" offset="1" stop-color="#0bb36d"/></linearGradient><path fill="url(#aw)" d="M850.4,949.2c106.1,28.4,182.5,138.5,170.6,245.9c-11.9,107.4-107.6,171.4-213.8,143      c-106.1-28.4-182.5-138.5-170.6-245.9C648.6,984.8,744.3,920.8,850.4,949.2z"/><polygon fill="#fff" points="725.4 1087.3 769 1233.8 965.7 1166.1 952 1117.9 804.2 1165.6 772.3 1066.1" class="colorffffff svgShape"/><linearGradient id="ax" x1="762.744" x2="1022.223" y1="1142.162" y2="1142.162" gradientUnits="userSpaceOnUse"><stop class="stopColor82fb7c svgShape" offset="0" stop-color="#52cc99"/><stop class="stopColorfbfbfb svgShape" offset="1" stop-color="#fbfbfb"/></linearGradient><path fill="url(#ax)" d="M850.4,949.2c-30.7-8.2-60.5-8.7-87.7-2.6c25.8-4.9,53.7-4,82.5,3.7c106.1,28.4,182.5,138.5,170.6,245.9     c-8.5,76.3-59.3,130.7-126.1,145.6c69.3-13.2,122.6-68.3,131.3-146.6C1032.9,1087.8,956.6,977.7,850.4,949.2z"/></g><g class="color000000 svgShape"><polygon fill="#9fa0a0" points="1351.8 1286.1 1400.1 1249.1 1377.7 1322 1329.4 1359" class="color9f9fa0 svgShape"/><polygon fill="#b3b4b4" points="1024.4 929.6 1072.7 892.6 1152.4 900.3 1104.1 937.3" class="colorb3b3b4 svgShape"/><path fill="#818382" d="M1407.6,1172.3c2.2-1.2,4.4-2.5,6.5-3.8l48.3-37c-2.1,1.4-4.3,2.6-6.5,3.8c-0.7,0.4-1.4,0.7-2.1,1.1     c-1.6,0.8-3.1,1.6-4.7,2.3c-0.9,0.4-1.8,0.8-2.7,1.2c-1,0.4-2,0.8-2.9,1.2c-1,0.4-2,0.8-3,1.2c-1,0.4-2,0.7-3,1.1     c-0.8,0.3-1.7,0.5-2.5,0.8c-2.9,0.9-5.8,1.7-8.7,2.4c-0.3,0.1-0.7,0.1-1,0.2c-2.3,0.5-4.6,0.9-6.9,1.3c-0.8,0.1-1.6,0.2-2.4,0.4     c-1.8,0.3-3.6,0.5-5.5,0.6c-0.7,0.1-1.5,0.2-2.2,0.2c-2.1,0.2-4.3,0.3-6.4,0.3c-0.3,0-0.6,0-0.9,0c-2.4,0.1-4.8,0-7.2,0     c-0.8,0-1.5-0.1-2.3-0.1c-1.6-0.1-3.2-0.2-4.8-0.3c-0.9-0.1-1.9-0.2-2.8-0.3c-1.4-0.1-2.8-0.3-4.3-0.5c-1-0.1-1.9-0.3-2.9-0.4     c-1.4-0.2-2.7-0.4-4.1-0.7c-1-0.2-2-0.4-3-0.6c-1.4-0.3-2.8-0.6-4.1-0.9c-1.4-0.3-2.8-0.7-4.2-1c-4.3-1.2-8.6-2.5-12.9-4.1     c-0.3-0.1-0.5-0.2-0.8-0.3c-3.6-1.3-7.2-2.9-10.7-4.5c-0.8-0.4-1.6-0.7-2.3-1.1c-3.7-1.8-7.4-3.7-11-5.7     c-0.9-0.5-1.7-1.1-2.6-1.6c-2.7-1.6-5.4-3.3-8.1-5.1c-1.6-1.1-3.2-2.2-4.8-3.4c-2.5-1.8-5-3.7-7.5-5.7c-0.7-0.6-1.4-1.1-2-1.7     c-3.1-2.6-6.2-5.4-9.2-8.3c-2.5-2.4-4.8-5-7.2-7.6c-1.2-1.3-2.4-2.5-3.5-3.8c-3.4-4-6.7-8.2-9.8-12.5c-2.6-3.7-5.1-7.5-7.3-11.3     c-0.4-0.7-0.9-1.5-1.3-2.2c-1.9-3.3-3.7-6.6-5.4-10c-0.2-0.5-0.5-0.9-0.7-1.4c-1.9-4-3.7-8.1-5.2-12.2c-0.1-0.3-0.2-0.5-0.3-0.8     c-1.4-3.6-2.6-7.2-3.6-10.9c-0.3-0.9-0.5-1.9-0.8-2.9c-1-3.5-1.9-7.1-2.6-10.6c0-0.2-0.1-0.5-0.2-0.7c-0.7-3.8-1.3-7.7-1.7-11.5     c-0.1-0.6-0.2-1.3-0.2-1.9c-0.4-3.7-0.6-7.4-0.6-11c0-0.6,0-1.3,0-1.9c0-3.7,0.1-7.3,0.4-10.9c0-0.5,0.1-1.1,0.1-1.6     c0.3-3.7,0.8-7.4,1.4-11c0-0.3,0.1-0.5,0.2-0.7c0.6-3.4,1.4-6.8,2.3-10.2c0.2-0.6,0.3-1.2,0.5-1.7c1-3.4,2.1-6.7,3.3-9.9     c0.3-0.9,0.7-1.7,1-2.6c1-2.4,2.1-4.8,3.2-7.2c0.6-1.2,1.2-2.4,1.8-3.5c1-1.8,2-3.6,3.1-5.3c1.1-1.8,2.1-3.5,3.3-5.2     c1.8-2.7,3.7-5.3,5.8-7.8c0-0.1,0.1-0.1,0.1-0.2c2.3-2.7,4.7-5.3,7.3-7.8c0.6-0.6,1.3-1.2,1.9-1.9c2.6-2.5,5.4-4.9,8.3-7.1     l-48.3,37c-2.9,2.2-5.6,4.6-8.3,7.1c-0.7,0.6-1.3,1.2-1.9,1.9c-2.6,2.5-5,5.1-7.3,7.8c0,0.1-0.1,0.1-0.1,0.2     c-1.6,2-3.2,4-4.7,6.1c-0.4,0.6-0.7,1.2-1.1,1.7c-1.2,1.7-2.2,3.5-3.3,5.2c-0.7,1.1-1.5,2.2-2.1,3.3c-0.4,0.7-0.7,1.4-1,2     c-0.6,1.2-1.2,2.3-1.8,3.5c-0.5,1.1-1.1,2.1-1.6,3.2c-0.6,1.3-1.1,2.7-1.6,4c-0.3,0.9-0.7,1.7-1,2.6c-0.2,0.5-0.4,0.9-0.6,1.4     c-0.9,2.4-1.7,4.9-2.5,7.4c-0.1,0.4-0.2,0.7-0.3,1.1c-0.2,0.6-0.3,1.2-0.5,1.7c-0.4,1.4-0.8,2.8-1.1,4.3c-0.4,2-0.8,3.9-1.2,5.9     c0,0.2-0.1,0.5-0.1,0.7c0,0.1,0,0.2-0.1,0.3c-0.4,2.3-0.7,4.6-1,6.9c-0.1,1.3-0.2,2.5-0.3,3.8c0,0.5-0.1,1.1-0.1,1.6     c0,0.5-0.1,0.9-0.1,1.4c-0.1,2.3-0.2,4.6-0.3,6.9c0,0.9,0,1.8,0,2.7c0,0.6,0,1.3,0,1.9c0,0.8,0,1.6,0,2.4     c0.1,2.4,0.2,4.7,0.4,7.1c0,0.5,0.1,1.1,0.2,1.6c0.1,0.6,0.1,1.3,0.2,1.9c0.1,1.3,0.3,2.5,0.4,3.8c0.3,2.5,0.8,5,1.2,7.5     c0,0.1,0,0.2,0.1,0.3c0,0.2,0.1,0.5,0.2,0.7c0.5,2.4,1,4.7,1.6,7.1c0.3,1.2,0.7,2.4,1,3.6c0.3,0.9,0.5,1.9,0.8,2.9     c0.2,0.7,0.4,1.5,0.6,2.2c0.9,2.9,1.9,5.8,3,8.6c0.1,0.3,0.2,0.5,0.3,0.8c0,0.1,0,0.1,0.1,0.2c1.5,3.8,3.1,7.6,4.9,11.4     c0.1,0.2,0.2,0.4,0.3,0.6c0.2,0.5,0.5,0.9,0.7,1.4c1.7,3.4,3.4,6.7,5.4,10c0.4,0.7,0.8,1.5,1.3,2.2c0.3,0.5,0.6,1,0.9,1.5     c2,3.3,4.2,6.6,6.5,9.8c3.1,4.4,6.4,8.5,9.8,12.5c1.1,1.3,2.4,2.5,3.5,3.8c2.4,2.6,4.7,5.2,7.2,7.6c0.3,0.3,0.6,0.6,0.9,0.9     c2.7,2.6,5.5,5,8.3,7.4c0.7,0.6,1.4,1.1,2,1.7c1.3,1.1,2.6,2.2,3.9,3.2c1.2,0.9,2.4,1.7,3.5,2.5c1.6,1.1,3.2,2.3,4.8,3.4     c0.8,0.5,1.5,1.1,2.3,1.6c1.9,1.2,3.8,2.3,5.8,3.5c0.9,0.5,1.7,1.1,2.6,1.6c0.3,0.2,0.6,0.4,0.9,0.5c2.8,1.6,5.6,3.1,8.5,4.5     c0.5,0.3,1.1,0.5,1.6,0.7c0.8,0.4,1.5,0.7,2.3,1.1c1.4,0.6,2.8,1.3,4.1,1.9c2.2,0.9,4.4,1.8,6.6,2.6c0.3,0.1,0.6,0.2,0.8,0.3     c0.1,0,0.2,0.1,0.3,0.1c2.5,0.9,5,1.7,7.6,2.5c1.6,0.5,3.3,1,5,1.4c0.8,0.2,1.6,0.4,2.5,0.6c0.6,0.1,1.2,0.3,1.8,0.4     c1.4,0.3,2.8,0.6,4.1,0.9c0.5,0.1,1,0.2,1.5,0.3c0.5,0.1,1,0.2,1.5,0.3c1.4,0.3,2.7,0.5,4.1,0.7c0.6,0.1,1.2,0.2,1.8,0.3     c0.4,0.1,0.8,0.1,1.2,0.1c1.4,0.2,2.8,0.3,4.3,0.5c0.7,0.1,1.3,0.2,2,0.2c0.3,0,0.5,0,0.8,0.1c1.6,0.1,3.2,0.2,4.8,0.3     c0.6,0,1.3,0.1,1.9,0.1c0.1,0,0.3,0,0.4,0c2.4,0.1,4.8,0.1,7.2,0c0,0,0.1,0,0.1,0c0.3,0,0.5,0,0.8,0c2.2-0.1,4.3-0.2,6.4-0.3     c0.2,0,0.5,0,0.7,0c0.5,0,1-0.1,1.5-0.2c1.8-0.2,3.6-0.4,5.5-0.6c0.4-0.1,0.9-0.1,1.3-0.2c0.4-0.1,0.7-0.1,1.1-0.2     c2.3-0.4,4.6-0.8,6.9-1.3c0.3-0.1,0.6-0.1,0.8-0.2c0.1,0,0.1,0,0.2-0.1c2.9-0.7,5.8-1.5,8.7-2.4c0.3-0.1,0.7-0.2,1-0.3     c0.5-0.2,1-0.4,1.5-0.5c1-0.3,2-0.7,3-1c1-0.4,2-0.8,3.1-1.2c1-0.4,2-0.8,2.9-1.2c0.5-0.2,1-0.4,1.5-0.6c0.4-0.2,0.8-0.4,1.2-0.6     c1.6-0.7,3.1-1.5,4.7-2.3C1406.2,1173,1406.9,1172.6,1407.6,1172.3z" class="color818183 svgShape"/><defs><path id="ay" fill="#000" d="M1470.2,1126l-48.3,37c-2.5,1.9-5.1,3.7-7.8,5.5l48.3-37       C1465.1,1129.7,1467.7,1127.9,1470.2,1126z" class="color000000 svgShape" enable-background="new"/></defs><clipPath id="az"><use overflow="visible" xlink:href="#ay"/></clipPath><g class="color000000 svgShape" clip-path="url(#az)"><path fill="#818382" d="M1414.1,1168.4l48.3-37c2.7-1.7,5.3-3.6,7.8-5.5l-48.3,37C1419.4,1164.9,1416.8,1166.7,1414.1,1168.4" class="color818183 svgShape"/></g><defs><path id="aA" fill="#000" d="M1588.6,1272l-48.3,37c3.2-2.4,6.3-5,9.4-7.5l48.3-37       C1594.9,1267,1591.8,1269.5,1588.6,1272z" class="color000000 svgShape" enable-background="new"/></defs><clipPath id="aB"><use overflow="visible" xlink:href="#aA"/></clipPath><g class="color000000 svgShape" clip-path="url(#aB)"><path fill="#818382" d="M1549.7,1301.5l48.3-37c-3,2.6-6.2,5.1-9.4,7.5l-48.3,37C1543.5,1306.5,1546.7,1304,1549.7,1301.5" class="color818183 svgShape"/></g><polygon fill="#e8eae9" points="1511.4 1225.7 1559.6 1188.7 1598 1264.4 1549.7 1301.5" class="colore8e8ea svgShape"/><defs><path id="aC" fill="#000" d="M1116.3,786.3l48.3-37c5.6-4.3,11.5-8.4,17.6-12.3c9.6-6.1,19.5-11.5,29.7-16.3l-48.3,37       c-10.2,4.8-20.1,10.2-29.7,16.3C1127.8,777.9,1121.9,782,1116.3,786.3z" class="color000000 svgShape" enable-background="new"/></defs><clipPath id="aD"><use overflow="visible" xlink:href="#aC"/></clipPath><g class="color000000 svgShape" clip-path="url(#aD)"><path fill="#b3b4b4" d="M1116.3,786.3l48.3-37c5.6-4.3,11.5-8.4,17.6-12.3c9.6-6.1,19.5-11.5,29.7-16.3l-48.3,37       c-10.2,4.8-20.1,10.2-29.7,16.3C1127.8,777.9,1121.9,782,1116.3,786.3" class="colorb3b3b4 svgShape"/></g><polygon fill="#edefee" points="1163.6 757.7 1211.8 720.7 1271.5 782.9 1223.2 819.9" class="colorededef svgShape"/><path fill="#b3b4b4" d="M1600.7,1121.1L1600.7,1121.1l-48.3,37c-0.4,1.3-1,2.5-1.4,3.7c-1.3,3.3-2.6,6.6-4,9.9     c-0.4,0.9-0.8,1.9-1.2,2.8c-2,4.4-4.2,8.6-6.5,12.8c-0.7,1.2-1.4,2.4-2.1,3.6c-0.9,1.6-1.8,3.2-2.8,4.7c-0.8,1.3-1.7,2.7-2.5,4     c-1,1.5-2,3-3,4.5c-0.8,1.1-1.6,2.3-2.5,3.4c-1.6,2.2-3.3,4.4-5,6.5c-0.7,0.9-1.5,1.9-2.2,2.8c-2.5,3-5,5.9-7.7,8.7l48.3-37     c2.7-2.8,5.2-5.8,7.7-8.7c0.8-0.9,1.5-1.9,2.2-2.8c1.7-2.1,3.4-4.3,5-6.5c0.4-0.6,0.9-1.1,1.3-1.7c0.4-0.6,0.8-1.2,1.2-1.7     c1-1.5,2-3,3-4.5c0.9-1.3,1.7-2.6,2.5-4c1-1.6,1.9-3.1,2.8-4.7c0.5-0.9,1.1-1.7,1.6-2.6c0.2-0.3,0.3-0.7,0.5-1     c2.3-4.2,4.5-8.5,6.5-12.8c0.2-0.3,0.3-0.6,0.5-1c0.3-0.6,0.5-1.2,0.7-1.8c1.4-3.3,2.8-6.6,4-9.9c0.2-0.6,0.5-1.1,0.7-1.7     C1600.2,1122.4,1600.5,1121.8,1600.7,1121.1C1600.7,1121.1,1600.7,1121.1,1600.7,1121.1L1600.7,1121.1z" class="colorb3b3b4 svgShape"/><path fill="#a4a6a5" d="M1353,772.3c-1.5-0.1-3-0.1-4.5-0.2c-0.7,0-1.5,0-2.2,0c-3-0.1-6-0.1-8.9-0.1c-0.8,0-1.6,0-2.5,0     c-0.4,0-0.8,0-1.1,0.1c-4.2,0.1-8.3,0.3-12.4,0.7c-0.1,0-0.2,0-0.3,0c-0.4,0-0.8,0.1-1.2,0.1c-3.8,0.3-7.6,0.8-11.4,1.3     c-0.6,0.1-1.2,0.1-1.8,0.2c-0.6,0.1-1.1,0.2-1.7,0.3c-4.5,0.7-8.9,1.5-13.3,2.5c-0.1,0-0.2,0-0.3,0.1c0,0-0.1,0-0.1,0     c-0.3,0.1-0.5,0.1-0.8,0.2c-2.9,0.7-5.7,1.4-8.5,2.2c-1,0.3-2,0.6-3,0.9c-1.5,0.4-3,0.9-4.5,1.3c-1,0.3-2,0.7-3,1l-48.3,37     c2.5-0.8,5-1.6,7.5-2.3c1-0.3,2-0.6,3-0.9c2.8-0.8,5.7-1.5,8.5-2.2c0.3-0.1,0.5-0.1,0.8-0.2c0.1,0,0.3,0,0.4-0.1     c4.4-1,8.8-1.8,13.3-2.5c1.2-0.2,2.3-0.4,3.5-0.5c3.8-0.5,7.6-1,11.4-1.3c0.5,0,1-0.1,1.5-0.2c4.1-0.3,8.3-0.5,12.4-0.7     c1.2,0,2.4,0,3.6,0c3,0,6,0,8.9,0.1c2.2,0.1,4.4,0.1,6.7,0.2l0,0l0,0L1353,772.3z" class="colora4a4a6 svgShape"/><path fill="#bdbfbe" d="M1553,1009.1c0.3,1,0.6,1.9,0.9,2.9c1.1,3.6,2.1,7.1,3,10.7c0.3,1.3,0.7,2.6,1,3.9     c0.8,3.4,1.5,6.7,2.2,10.1c0.2,0.8,0.4,1.7,0.5,2.5c0.8,4,1.4,8,2,12c0.5,3.3,0.9,6.6,1.2,9.9l48.3-37c-0.3-3.1-0.7-6.2-1.1-9.3     c0-0.2-0.1-0.4-0.1-0.6c-0.6-4-1.2-8-2-12c0-0.2-0.1-0.3-0.1-0.5c-0.1-0.7-0.3-1.3-0.4-2c-0.7-3.4-1.4-6.7-2.2-10.1     c-0.1-0.6-0.2-1.2-0.4-1.8c-0.2-0.7-0.4-1.4-0.6-2.1c-0.9-3.6-1.9-7.1-3-10.7c-0.2-0.7-0.4-1.4-0.6-2.1c-0.1-0.3-0.2-0.5-0.3-0.7     c-1.5-4.8-3.2-9.6-5-14.4c-0.2-0.5-0.3-0.9-0.5-1.4c-0.2-0.6-0.5-1.2-0.7-1.8c-2-5.1-4.1-10.3-6.5-15.4l-48.3,37     c2.4,5.1,4.5,10.2,6.5,15.4c0.4,1,0.8,2.1,1.2,3.1C1549.8,999.4,1551.5,1004.2,1553,1009.1z" class="colorbdbdbf svgShape"/><path fill="#e0e2e1" d="M1433.5,853c1.6,1.1,3.3,2.2,4.9,3.3c1.5,1,2.9,2,4.4,3c1.7,1.2,3.3,2.4,5,3.6c1.4,1,2.8,2,4.2,3.1     c0.4,0.3,0.7,0.6,1.1,0.9c3.4,2.6,6.8,5.4,10.1,8.2c1.1,0.9,2.1,1.8,3.1,2.7c2.9,2.5,5.8,5.1,8.6,7.8c1.1,1,2.2,2,3.2,3l48.3-37     c-0.5-0.5-1-1-1.5-1.4c-0.6-0.5-1.1-1-1.7-1.5c-2.8-2.7-5.7-5.3-8.6-7.8c-1-0.9-2.1-1.8-3.1-2.7c-3.3-2.8-6.7-5.6-10.1-8.2     c-0.3-0.2-0.6-0.5-0.8-0.7c-0.1-0.1-0.2-0.1-0.2-0.2c-1.4-1.1-2.8-2.1-4.2-3.1c-1.7-1.2-3.3-2.5-5-3.6c-1.4-1-2.9-2-4.3-3     c-1.6-1.1-3.1-2.2-4.7-3.2c-0.1-0.1-0.2-0.1-0.2-0.1c-4.8-3.1-9.6-6-14.5-8.8c-0.5-0.3-1-0.6-1.6-0.9c-0.5-0.3-1-0.5-1.4-0.8     c-4-2.2-8.1-4.4-12.2-6.4l-48.3,37c4.1,2,8.1,4.2,12.2,6.4c1,0.6,2,1.1,3,1.7C1423.9,847,1428.8,849.9,1433.5,853z" class="colore0e0e2 svgShape"/><path fill="#9a9c9b" d="M1688.5,1058.3L1688.5,1058.3l-48.3,37c0,4.6-0.2,9.1-0.3,13.7c-0.1,1.9-0.1,3.8-0.2,5.6     c-0.3,4.8-0.7,9.6-1.2,14.3c-0.1,0.8-0.1,1.6-0.2,2.4c-0.6,5.6-1.5,11.1-2.4,16.6c-0.3,1.9-0.8,3.7-1.1,5.5     c-0.8,4.1-1.6,8.3-2.6,12.4l0,0l0,0l0,0l48.3-37c0.2-0.9,0.5-1.9,0.7-2.9c0.7-3.1,1.3-6.3,1.9-9.5c0.4-1.9,0.8-3.7,1.1-5.5     c0-0.3,0.1-0.5,0.2-0.8c0.9-5.1,1.6-10.3,2.2-15.6c0-0.1,0-0.2,0-0.2c0.1-0.8,0.1-1.6,0.2-2.4c0.5-4.2,0.9-8.5,1.2-12.8     c0-0.5,0-1,0.1-1.6c0.1-1.9,0.1-3.7,0.2-5.6c0.1-2.7,0.3-5.5,0.3-8.2C1688.5,1062,1688.5,1060.1,1688.5,1058.3L1688.5,1058.3     L1688.5,1058.3z" class="color9a9a9c svgShape"/><polygon fill="#d6d8d7" points="1563.7 1061 1612 1024 1688.5 1058.3 1640.2 1095.3" class="colord6d6d8 svgShape"/><path fill="#c2c4c3" d="M1399.1,755.8l48.3-37c-2.7-1.1-5.5-2.1-8.2-3.1c-1.7-0.6-3.5-1.2-5.3-1.8c-2.6-0.9-5.3-1.8-7.9-2.6     c-1.3-0.4-2.5-0.9-3.8-1.3c-3.7-1.1-7.4-2.2-11.1-3.2c-1.8-0.5-3.7-1-5.5-1.4c-2.4-0.6-4.7-1-7.1-1.6c-2.4-0.5-4.7-1.1-7.1-1.6     c-0.7-0.1-1.4-0.3-2.2-0.5c-4.6-0.9-9.2-1.7-13.8-2.4l-48.3,37c5.3,0.8,10.7,1.8,16,2.9c2.4,0.5,4.8,1.1,7.2,1.6     c4.2,1,8.4,1.9,12.6,3c5,1.3,9.9,2.9,14.8,4.4c2.6,0.8,5.3,1.7,7.9,2.6C1390.1,752.5,1394.6,754.1,1399.1,755.8z" class="colorc2c2c4 svgShape"/><polygon fill="#c6c8c7" points="1447.4 718.8 1399.1 755.8 1403.9 836 1452.2 799" class="colorc6c6c8 svgShape"/><polygon fill="#b3b4b4" points="1593.3 924.8 1641.6 887.8 1588.6 939.1 1540.3 976.1" class="colorb3b3b4 svgShape"/><polygon fill="#b3b4b4" points="1478.1 888.5 1526.4 851.5 1596.4 824.3 1548.1 861.3" class="colorb3b3b4 svgShape"/><defs><path id="aE" fill="#000" d="M1548.1,861.3l48.3-37c8.4,9.7,16.5,19.9,24.2,30.7c7.7,10.7,14.6,21.7,21,32.8l-48.3,37       c-6.4-11.1-13.3-22.1-21-32.8C1564.7,881.3,1556.6,871.1,1548.1,861.3z" class="color000000 svgShape" enable-background="new"/></defs><clipPath id="aF"><use overflow="visible" xlink:href="#aE"/></clipPath><g class="color000000 svgShape" clip-path="url(#aF)"><path fill="#e0e2e1" d="M1548.1,861.3l48.3-37c8.4,9.7,16.5,19.9,24.2,30.7c5.3,7.4,10.2,14.9,14.8,22.4l-48.3,37       c-4.6-7.6-9.5-15.1-14.8-22.4C1564.7,881.3,1556.6,871.1,1548.1,861.3" class="colore0e0e2 svgShape"/><path fill="#dbdddc" d="M1587.1,914.4l48.3-37c2.1,3.5,4.2,6.9,6.2,10.4l-48.3,37C1591.3,921.4,1589.2,917.9,1587.1,914.4" class="colordbdbdd svgShape"/></g><g class="color000000 svgShape"><linearGradient id="aG" x1="1016.27" x2="1640.236" y1="1047.729" y2="1047.729" gradientUnits="userSpaceOnUse"><stop class="stopColorfbfbfb svgShape" offset="0" stop-color="#fbfbfb"/><stop class="stopColore5e5e5 svgShape" offset="1" stop-color="#e5e5e5"/></linearGradient><path fill="url(#aG)" d="M1632.2,1165.8l-79.7-7.7c-8.9,25.2-22.6,48.1-41.1,67.6l38.3,75.8c-8.4,7.2-17.4,13.8-27,19.9      c-9.6,6.1-19.5,11.6-29.7,16.3l-59.6-62.2c-26,8.9-53.6,12.3-81.5,10.7l-22.5,72.9c-11.9-1.8-23.8-4.4-35.6-7.5      c-12.2-3.3-24.4-7.3-36.4-11.9l-4.7-80.2c-26.6-13.1-51.7-30.7-74.2-52.5l-70.1,27.3c-8.5-9.8-16.6-20-24.2-30.8      c-7.6-10.7-14.6-21.7-20.9-32.8l53-51.2c-12.8-27.9-20.6-56.6-23.4-84.9l-76.7-34.4c-0.1-24.2,2.7-47.8,8.2-70.4l79.7,7.7      c9-25.1,22.6-48.1,41.1-67.6l-38.3-75.8c8.4-7.1,17.4-13.8,27-19.9c9.6-6.1,19.5-11.5,29.7-16.3l59.6,62.2      c26-8.8,53.6-12.1,81.5-10.6l22.4-72.9c12,1.8,23.9,4.3,35.7,7.5c12.2,3.3,24.3,7.2,36.2,11.9l4.8,80.2      c26.5,13.2,51.8,30.7,74.2,52.5l70.1-27.2c8.4,9.7,16.5,19.9,24.2,30.7c7.7,10.7,14.6,21.7,21,32.8l-53,51.2      c12.9,27.9,20.6,56.7,23.4,84.9l76.5,34.3C1640.3,1119.5,1637.6,1143.2,1632.2,1165.8z M1414.1,1168.4      c59.4-37.9,69.2-122.7,21.8-189.4c-23.7-33.4-57.3-55.9-92.3-65.3c-34.9-9.4-71.4-5.7-101,13.2      c-59.5,37.9-69.3,122.7-21.9,189.4c23.7,33.4,57.3,55.9,92.4,65.3C1347.9,1191,1384.4,1187.4,1414.1,1168.4"/></g><g class="color000000 svgShape"><path fill="#fff" d="M1100.6,939.7c0.3-0.9,0.7-1.7,1-2.6l-77.2-7.4c-0.2,0.9-0.4,1.8-0.6,2.7L1100.6,939.7z" class="colorffffff svgShape"/><path fill="#fff" d="M1160,760.1l59.6,62.2c26-8.8,53.6-12.1,81.5-10.6l0.8-2.5c-27-1.1-53.6,2.2-78.7,10.7l-59.6-62.2      c-10.2,4.8-20.1,10.2-29.7,16.3c-1,0.6-1.9,1.3-2.8,1.9C1140.4,770,1150.1,764.7,1160,760.1z" class="colorffffff svgShape"/><path fill="#fff" d="M1563.7,1061c-2.8-28.2-10.6-57-23.4-84.9l53-51.2c-6.4-11.1-13.3-22.1-21-32.8      c-7.6-10.8-15.7-21-24.2-30.7l-70.1,27.2c-22.4-21.8-47.6-39.3-74.2-52.5l-4.8-80.2c-11.9-4.6-24-8.6-36.2-11.9      c-11.9-3.2-23.8-5.7-35.7-7.5l-0.9,2.8c11.1,1.8,22.1,4.1,33.1,7c12.2,3.3,24.3,7.2,36.2,11.9l4.8,80.2      c26.5,13.2,51.8,30.7,74.2,52.5l70.1-27.2c8.4,9.7,16.5,19.9,24.2,30.7c7.7,10.7,14.6,21.7,21,32.8l-53,51.2      c12.9,27.9,20.6,56.7,23.4,84.9l76.5,34.3c0.1,23.2-2.5,46-7.5,67.9l3,0.3c5.5-22.7,8.2-46.4,8.1-70.5L1563.7,1061z" class="colorffffff svgShape"/><path fill="#fff" d="M1410.5,1170.8c1-0.7,2-1.3,3-2c-29.6,18.6-65.8,22.2-100.5,12.9c-35.1-9.4-68.6-31.9-92.4-65.3      c-46.5-65.5-37.8-148.5,19-187.4c-0.2,0.1-0.4,0.2-0.6,0.3c-59.5,37.9-69.3,122.7-21.9,189.4c23.7,33.4,57.3,55.9,92.4,65.3      C1344.4,1193.4,1380.8,1189.7,1410.5,1170.8z" class="colorffffff svgShape"/><path fill="#fff" d="M1348.3,1288.5l-21.6,70.1c0.9,0.1,1.8,0.4,2.7,0.5l21.7-70.4C1350.1,1288.5,1349.2,1288.5,1348.3,1288.5z      " class="colorffffff svgShape"/><path fill="#fff" d="M1551.4,1160.7l-2.5-0.2c-8.9,25.2-22.6,48.1-41.1,67.6l38.3,75.8c-7.6,6.4-15.7,12.4-24.2,18      c0.2-0.1,0.5-0.3,0.7-0.4c9.6-6.1,18.6-12.8,27-19.9l-38.3-75.8C1529.1,1206.9,1542.5,1184.8,1551.4,1160.7z" class="colorffffff svgShape"/></g></g><g class="color000000 svgShape"><linearGradient id="aH" x1="2180.847" x2="1930.648" y1="1721.787" y2="1263.088" gradientTransform="matrix(.9999 .01137 -.01136 .9999 22.397 102.355)" gradientUnits="userSpaceOnUse"><stop class="stopColorfe7f0a svgShape" offset="0" stop-color="#0afe98"/><stop class="stopColorffb538 svgShape" offset="1" stop-color="#38ffac"/></linearGradient><path fill="url(#aH)" d="M2336.4,1627.9c-13.8-0.2-27.1-3.2-39.6-9.2L1427.3,1208c-48.7-23-71.5-80.3-52-130.5    c16.4-42.3,58-70.4,103.5-69.9c15.8,0.2,31.1,3.7,45.5,10.5l842,397.8c56.4,26.6,82.8,93,60.3,151.1    C2412.2,1603.9,2376,1628.4,2336.4,1627.9z"/><linearGradient id="aI" x1="1943.482" x2="1785.923" y1="1070.066" y2="1361.866" gradientTransform="matrix(.9999 .01137 -.01136 .9999 22.397 102.355)" gradientUnits="userSpaceOnUse"><stop class="stopColorfe7f0a svgShape" offset="0" stop-color="#0afe98"/><stop class="stopColorffb538 svgShape" offset="1" stop-color="#38ffac"/></linearGradient><path fill="url(#aI)" d="M2312,1639.2c-13.8-0.2-27.1-3.2-39.6-9.2L1403,1219.3c-48.7-23-71.5-80.3-52-130.5    c16.4-42.3,58-70.4,103.5-69.9c15.8,0.2,31.1,3.7,45.5,10.5l842,397.8c56.4,26.6,82.8,93,60.3,151.1    C2387.8,1615.2,2351.6,1639.7,2312,1639.2z"/><linearGradient id="aJ" x1="1932.015" x2="1799.464" y1="1091.298" y2="1336.783" gradientTransform="matrix(.9999 .01137 -.01136 .9999 22.397 102.355)" gradientUnits="userSpaceOnUse"><stop class="stopColorfbfbfb svgShape" offset="0" stop-color="#fbfbfb"/><stop class="stopColore5e5e5 svgShape" offset="1" stop-color="#e5e5e5"/></linearGradient><path fill="url(#aJ)" d="M1490.6,1049.1l842,397.8c46.3,21.9,67.8,75.8,49.3,123.6v0c-15.5,39.8-61.5,58.2-100.2,39.9l-869.4-410.7    c-38.6-18.2-56.5-63.2-41-102.9l0,0C1389.7,1049.2,1444.5,1027.3,1490.6,1049.1z"/><linearGradient id="aK" x1="1947.71" x2="1850.707" y1="1078.888" y2="1258.538" gradientTransform="matrix(.9999 .01137 -.01136 .9999 22.397 102.355)" gradientUnits="userSpaceOnUse"><stop class="stopColorffffff svgShape" offset="0" stop-color="#fff"/><stop class="stopColorffb538 svgShape" offset="1" stop-color="#38ffac"/></linearGradient><path fill="url(#aK)" d="M2341.8,1427.2l-842-397.8c-14.4-6.8-29.7-10.3-45.5-10.5c-20-0.2-39.2,5.1-55.9,14.7    c15.8-8.4,33.7-13,52.2-12.8c15.8,0.2,31.1,3.7,45.5,10.5l842,397.8c56.4,26.6,82.8,93,60.3,151.1c-8,20.7-22.9,37.4-41.4,48.1    c20.2-10.5,36.5-28,45-50C2424.7,1520.2,2398.2,1453.8,2341.8,1427.2z"/><linearGradient id="aL" x1="2025.41" x2="1511.073" y1="1275.421" y2="1037.54" gradientTransform="matrix(.9999 .01137 -.01136 .9999 22.397 102.355)" gradientUnits="userSpaceOnUse"><stop class="stopColor82fb7c svgShape" offset="0" stop-color="#52cc99"/><stop class="stopColor0ba2b3 svgShape" offset="1" stop-color="#0bb36d"/></linearGradient><polygon fill="url(#aL)" points="1690.4 1167.6 1667 1156.5 1621.1 1274.2 1644.6 1285.3"/><linearGradient id="aM" x1="2025.484" x2="1511.147" y1="1275.262" y2="1037.381" gradientTransform="matrix(.9999 .01137 -.01136 .9999 22.397 102.355)" gradientUnits="userSpaceOnUse"><stop class="stopColor82fb7c svgShape" offset="0" stop-color="#52cc99"/><stop class="stopColor0ba2b3 svgShape" offset="1" stop-color="#0bb36d"/></linearGradient><polygon fill="url(#aM)" points="1739.9 1190.9 1716.4 1179.8 1670.6 1297.6 1694.1 1308.7"/><linearGradient id="aN" x1="2025.117" x2="1510.78" y1="1276.056" y2="1038.175" gradientTransform="matrix(.9999 .01137 -.01136 .9999 22.397 102.355)" gradientUnits="userSpaceOnUse"><stop class="stopColor82fb7c svgShape" offset="0" stop-color="#52cc99"/><stop class="stopColor0ba2b3 svgShape" offset="1" stop-color="#0bb36d"/></linearGradient><path fill="url(#aN)" d="M1446.8,1191.9l45.8-117.8l-11.4-5.4c-4.1-1.9-8.3-3.4-12.6-4.4l-45.3,116.5L1446.8,1191.9z"/><linearGradient id="aO" x1="2025.557" x2="1511.22" y1="1275.104" y2="1037.223" gradientTransform="matrix(.9999 .01137 -.01136 .9999 22.397 102.355)" gradientUnits="userSpaceOnUse"><stop class="stopColor82fb7c svgShape" offset="0" stop-color="#52cc99"/><stop class="stopColor0ba2b3 svgShape" offset="1" stop-color="#0bb36d"/></linearGradient><polygon fill="url(#aO)" points="1789.3 1214.3 1765.9 1203.2 1720 1321 1743.5 1332.1"/><linearGradient id="aP" x1="2025.264" x2="1510.927" y1="1275.738" y2="1037.858" gradientTransform="matrix(.9999 .01137 -.01136 .9999 22.397 102.355)" gradientUnits="userSpaceOnUse"><stop class="stopColor82fb7c svgShape" offset="0" stop-color="#52cc99"/><stop class="stopColor0ba2b3 svgShape" offset="1" stop-color="#0bb36d"/></linearGradient><polygon fill="url(#aP)" points="1591.6 1120.9 1568.1 1109.8 1522.2 1227.5 1545.7 1238.6"/><linearGradient id="aQ" x1="2025.19" x2="1510.853" y1="1275.899" y2="1038.018" gradientTransform="matrix(.9999 .01137 -.01136 .9999 22.397 102.355)" gradientUnits="userSpaceOnUse"><stop class="stopColor82fb7c svgShape" offset="0" stop-color="#52cc99"/><stop class="stopColor0ba2b3 svgShape" offset="1" stop-color="#0bb36d"/></linearGradient><polygon fill="url(#aQ)" points="1542.1 1097.5 1518.6 1086.4 1472.8 1204.2 1496.3 1215.3"/><linearGradient id="aR" x1="2025.337" x2="1511" y1="1275.58" y2="1037.7" gradientTransform="matrix(.9999 .01137 -.01136 .9999 22.397 102.355)" gradientUnits="userSpaceOnUse"><stop class="stopColor82fb7c svgShape" offset="0" stop-color="#52cc99"/><stop class="stopColor0ba2b3 svgShape" offset="1" stop-color="#0bb36d"/></linearGradient><polygon fill="url(#aR)" points="1641 1144.2 1617.5 1133.1 1571.7 1250.9 1595.2 1262"/><linearGradient id="aS" x1="2025.852" x2="1511.515" y1="1274.466" y2="1036.586" gradientTransform="matrix(.9999 .01137 -.01136 .9999 22.397 102.355)" gradientUnits="userSpaceOnUse"><stop class="stopColor82fb7c svgShape" offset="0" stop-color="#52cc99"/><stop class="stopColor0ba2b3 svgShape" offset="1" stop-color="#0bb36d"/></linearGradient><polygon fill="url(#aS)" points="1987.1 1307.7 1963.6 1296.6 1917.8 1414.4 1941.3 1425.5"/><linearGradient id="aT" x1="2023.394" x2="1509.057" y1="1279.78" y2="1041.899" gradientTransform="matrix(.9999 .01137 -.01136 .9999 22.397 102.355)" gradientUnits="userSpaceOnUse"><stop class="stopColor82fb7c svgShape" offset="0" stop-color="#52cc99"/><stop class="stopColor0ba2b3 svgShape" offset="1" stop-color="#0bb36d"/></linearGradient><path fill="url(#aT)" d="M1437.9,1064.4c-20.8,5-38.5,19.8-46.5,40.2c-7.7,19.9-3.9,41.7,8.3,57.8L1437.9,1064.4z"/><linearGradient id="aU" x1="2025.928" x2="1511.591" y1="1274.303" y2="1036.422" gradientTransform="matrix(.9999 .01137 -.01136 .9999 22.397 102.355)" gradientUnits="userSpaceOnUse"><stop class="stopColor82fb7c svgShape" offset="0" stop-color="#52cc99"/><stop class="stopColor0ba2b3 svgShape" offset="1" stop-color="#0bb36d"/></linearGradient><polygon fill="url(#aU)" points="2013.1 1320 1967.2 1437.8 1995.4 1451 2040.8 1333.1"/><linearGradient id="aV" x1="2025.777" x2="1511.44" y1="1274.627" y2="1036.746" gradientTransform="matrix(.9999 .01137 -.01136 .9999 22.397 102.355)" gradientUnits="userSpaceOnUse"><stop class="stopColor82fb7c svgShape" offset="0" stop-color="#52cc99"/><stop class="stopColor0ba2b3 svgShape" offset="1" stop-color="#0bb36d"/></linearGradient><polygon fill="url(#aV)" points="1937.7 1284.4 1914.2 1273.3 1868.3 1391 1891.8 1402.1"/><linearGradient id="aW" x1="2025.704" x2="1511.367" y1="1274.787" y2="1036.906" gradientTransform="matrix(.9999 .01137 -.01136 .9999 22.397 102.355)" gradientUnits="userSpaceOnUse"><stop class="stopColor82fb7c svgShape" offset="0" stop-color="#52cc99"/><stop class="stopColor0ba2b3 svgShape" offset="1" stop-color="#0bb36d"/></linearGradient><polygon fill="url(#aW)" points="1888.2 1261 1864.7 1249.9 1818.9 1367.7 1842.4 1378.8"/><linearGradient id="aX" x1="2025.631" x2="1511.294" y1="1274.945" y2="1037.064" gradientTransform="matrix(.9999 .01137 -.01136 .9999 22.397 102.355)" gradientUnits="userSpaceOnUse"><stop class="stopColor82fb7c svgShape" offset="0" stop-color="#52cc99"/><stop class="stopColor0ba2b3 svgShape" offset="1" stop-color="#0bb36d"/></linearGradient><polygon fill="url(#aX)" points="1838.8 1237.6 1815.3 1226.6 1769.5 1344.3 1792.9 1355.4"/></g></svg>